<?xml version="1.0" encoding="UTF-8"?> <svg xmlns="http://www.w3.org/2000/svg" xmlns:xlink="http://www.w3.org/1999/xlink" id="svg" version="1.1" width="400" height="400" viewBox="0, 0, 400,400"><g id="svgg"><path id="path0" d="M188.095 20.267 C 176.698 23.911,167.006 33.906,163.702 45.424 C 162.630 49.161,162.472 53.679,162.664 75.111 L 162.891 100.391 165.003 104.898 C 166.190 107.431,168.867 111.113,171.114 113.301 C 176.949 118.984,176.672 119.304,162.889 122.782 C 156.445 124.408,150.908 125.748,150.586 125.760 C 150.264 125.772,150.000 122.649,150.000 118.820 C 150.000 80.086,98.953 66.468,79.499 100.011 C 75.223 107.384,74.917 110.036,75.164 137.611 L 75.391 162.891 77.503 167.398 C 78.690 169.931,81.367 173.613,83.614 175.801 C 89.596 181.628,89.484 181.730,72.335 186.022 C 51.272 191.293,45.570 194.811,40.178 205.859 L 37.891 210.547 37.660 239.648 L 37.429 268.750 43.659 268.750 L 49.889 268.750 50.140 242.383 C 50.501 204.369,49.941 205.197,80.398 197.647 C 91.262 194.954,97.628 192.997,98.562 192.063 C 100.949 189.676,100.694 172.333,98.242 170.297 C 87.599 161.456,87.981 162.542,87.635 140.116 C 87.092 104.932,92.595 94.930,112.500 94.924 C 132.422 94.918,137.925 104.927,137.347 140.116 C 136.976 162.694,137.414 161.445,126.758 170.297 C 124.306 172.333,124.051 189.676,126.438 192.063 C 127.372 192.997,133.738 194.954,144.602 197.647 C 168.009 203.450,174.219 207.647,174.219 217.664 L 174.219 219.754 179.021 219.252 C 181.662 218.976,184.699 218.750,185.771 218.750 C 189.871 218.750,186.233 205.840,180.120 198.698 C 174.892 192.591,170.635 190.600,153.543 186.266 C 135.444 181.678,135.395 181.636,141.386 175.801 C 148.111 169.251,149.562 165.068,149.861 151.373 L 150.112 139.855 154.158 138.705 C 156.383 138.072,164.150 136.078,171.419 134.273 C 188.185 130.109,187.500 130.773,187.500 118.691 C 187.500 109.861,187.387 109.163,185.742 107.797 C 175.099 98.956,175.481 100.042,175.135 77.616 C 174.592 42.432,180.095 32.430,200.000 32.424 C 219.922 32.418,225.425 42.427,224.847 77.616 C 224.476 100.194,224.914 98.945,214.258 107.797 C 212.613 109.163,212.500 109.861,212.500 118.691 C 212.500 130.773,211.815 130.109,228.581 134.273 C 235.850 136.078,243.617 138.072,245.842 138.705 L 249.888 139.855 250.139 151.373 C 250.438 165.068,251.889 169.251,258.614 175.801 C 264.605 181.636,264.556 181.678,246.457 186.266 C 223.046 192.201,214.270 199.485,212.746 214.245 L 212.305 218.517 218.281 219.058 C 224.838 219.653,225.781 219.408,225.781 217.116 C 225.781 207.698,232.397 203.349,255.398 197.647 C 266.262 194.954,272.628 192.997,273.562 192.063 C 275.949 189.676,275.694 172.333,273.242 170.297 C 262.599 161.456,262.981 162.542,262.635 140.116 C 262.092 104.931,267.597 94.926,287.500 94.926 C 307.412 94.926,312.925 104.953,312.347 140.116 C 311.976 162.694,312.414 161.445,301.758 170.297 C 299.306 172.333,299.051 189.676,301.438 192.063 C 302.372 192.997,308.738 194.954,319.602 197.647 C 350.059 205.197,349.499 204.369,349.860 242.383 L 350.111 268.750 356.341 268.750 L 362.571 268.750 362.340 239.648 L 362.109 210.547 359.987 206.226 C 354.380 194.808,349.155 191.492,328.543 186.266 C 310.444 181.678,310.395 181.636,316.386 175.801 C 318.633 173.613,321.310 169.931,322.497 167.398 L 324.609 162.891 324.836 137.611 C 325.083 110.036,324.777 107.384,320.501 100.011 C 301.047 66.468,250.000 80.086,250.000 118.820 C 250.000 122.649,249.736 125.772,249.414 125.760 C 249.092 125.748,243.555 124.408,237.111 122.782 C 223.328 119.304,223.051 118.984,228.886 113.301 C 231.133 111.113,233.810 107.431,234.997 104.898 L 237.109 100.391 237.336 75.111 C 237.528 53.679,237.370 49.161,236.298 45.424 C 230.577 25.478,208.248 13.825,188.095 20.267 M182.411 226.504 C 149.851 234.091,125.245 259.875,119.732 292.184 L 118.398 300.000 94.941 299.982 L 71.484 299.965 59.375 291.356 C 42.590 279.423,44.975 279.386,27.333 291.849 C 6.807 306.349,6.807 306.151,27.333 320.651 C 44.975 333.114,42.590 333.077,59.375 321.144 L 71.484 312.535 94.941 312.518 L 118.398 312.500 119.732 320.316 C 133.671 402.001,248.810 411.840,276.856 333.743 C 279.589 326.129,279.658 326.320,273.633 324.776 C 266.312 322.900,265.886 322.971,265.286 326.172 C 264.426 330.756,257.384 343.831,252.773 349.405 C 212.085 398.591,132.031 369.978,132.031 306.250 C 132.031 242.473,212.054 213.872,252.773 263.095 C 257.384 268.669,264.426 281.744,265.286 286.328 C 265.882 289.503,265.824 289.493,273.242 287.758 C 279.720 286.243,279.627 286.474,276.856 278.757 C 263.087 240.415,221.487 217.399,182.411 226.504 M62.500 250.000 L 62.500 268.750 68.750 268.750 L 75.000 268.750 75.000 250.000 L 75.000 231.250 68.750 231.250 L 62.500 231.250 62.500 250.000 M325.000 250.000 L 325.000 268.750 331.250 268.750 L 337.500 268.750 337.500 250.000 L 337.500 231.250 331.250 231.250 L 325.000 231.250 325.000 250.000 M185.336 251.574 C 150.497 260.702,133.314 300.476,150.142 333.036 C 170.146 371.742,229.454 372.240,249.436 333.870 C 253.146 326.747,253.255 327.167,247.051 324.733 C 240.296 322.083,240.594 322.027,238.191 326.378 C 216.423 365.782,157.050 351.054,157.050 306.250 C 157.050 261.431,216.416 246.704,238.191 286.122 C 240.594 290.473,240.296 290.417,247.051 287.767 C 253.255 285.333,253.146 285.753,249.436 278.630 C 238.199 257.052,209.944 245.126,185.336 251.574 M190.042 276.141 C 163.644 284.387,161.200 322.527,186.284 334.782 C 195.422 339.246,208.434 338.361,217.383 332.667 C 221.910 329.786,221.939 330.284,216.914 324.667 L 212.772 320.037 208.576 322.128 C 196.165 328.313,182.105 319.987,182.048 306.420 C 181.991 292.601,196.019 284.114,208.576 290.372 L 212.772 292.463 216.914 287.833 C 221.952 282.202,221.933 282.733,217.202 279.697 C 210.043 275.103,198.290 273.564,190.042 276.141 M318.391 290.625 L 308.908 300.000 254.454 300.000 L 200.000 300.000 200.000 306.250 L 200.000 312.500 254.454 312.500 L 308.908 312.500 318.391 321.875 L 327.874 331.250 356.124 331.250 C 391.705 331.250,387.500 334.600,387.500 306.250 C 387.500 277.900,391.705 281.250,356.124 281.250 L 327.874 281.250 318.391 290.625 M375.000 306.250 L 375.000 318.750 354.864 318.750 L 334.729 318.750 328.516 312.500 L 322.302 306.250 328.516 300.000 L 334.729 293.750 354.864 293.750 L 375.000 293.750 375.000 306.250 M50.057 301.309 C 57.560 306.680,57.565 305.816,50.000 311.232 L 43.750 315.707 37.484 311.221 C 34.038 308.754,31.313 306.459,31.430 306.121 C 31.616 305.578,42.973 296.989,43.612 296.907 C 43.751 296.889,46.651 298.870,50.057 301.309 " stroke="none" fill="#000000" fill-rule="evenodd"></path></g></svg> 