<?xml version="1.0" encoding="UTF-8"?> <svg xmlns="http://www.w3.org/2000/svg" xmlns:xlink="http://www.w3.org/1999/xlink" id="svg" version="1.1" width="400" height="400" viewBox="0, 0, 400,400"><g id="svgg"><path id="path0" d="M111.328 1.110 C 103.089 4.799,102.467 7.234,101.155 40.952 C 99.240 90.199,97.518 77.009,116.306 157.031 L 132.540 226.172 126.390 227.079 C 123.008 227.577,119.758 228.171,119.169 228.397 C 118.580 228.623,117.935 228.390,117.735 227.880 C 108.255 203.670,80.643 138.931,79.109 137.319 C 72.741 130.626,71.223 130.911,36.232 145.362 C 4.606 158.424,3.597 158.953,1.489 163.595 C -1.330 169.801,-1.553 169.143,24.903 232.813 L 49.737 292.578 46.548 293.227 C 33.353 295.911,23.768 300.606,15.970 308.203 C -13.525 336.942,-0.609 387.392,39.060 398.384 C 48.022 400.868,349.987 400.939,359.680 398.459 C 401.209 387.838,413.468 332.993,380.454 305.519 C 371.989 298.474,358.133 292.990,348.757 292.974 L 345.560 292.969 346.171 289.258 C 347.027 284.058,347.008 269.225,346.138 263.917 L 345.411 259.475 360.268 223.683 C 368.440 203.997,375.928 185.781,376.908 183.203 C 380.899 172.703,387.952 160.467,395.488 150.966 C 401.079 143.919,401.110 144.540,393.508 111.758 C 384.347 72.258,387.619 73.638,353.516 94.889 C 326.604 111.658,325.436 112.643,324.680 119.209 C 322.778 135.727,320.582 142.895,308.429 172.266 C 297.268 199.238,299.301 196.646,291.848 193.406 C 288.472 191.938,283.364 190.163,280.498 189.460 L 275.287 188.183 276.259 180.615 C 277.806 168.577,278.906 150.157,278.906 136.293 L 278.906 123.491 283.267 116.801 C 303.724 85.417,298.301 48.866,268.035 14.134 C 251.829 -4.463,240.482 -5.146,243.776 12.673 C 246.061 25.034,238.385 39.784,217.280 63.591 C 202.944 79.760,202.737 101.951,216.764 118.829 L 218.453 120.861 216.745 133.672 C 214.498 150.521,213.276 168.451,213.279 184.513 L 213.281 197.542 209.180 199.941 C 206.924 201.261,203.436 203.585,201.429 205.106 C 198.212 207.543,197.729 207.705,197.351 206.474 C 197.115 205.706,189.892 174.989,181.298 138.214 C 172.705 101.439,165.420 70.678,165.109 69.855 C 163.490 65.573,130.890 6.350,129.154 4.539 C 124.979 0.181,116.883 -1.376,111.328 1.110 M125.922 26.960 C 129.677 33.831,132.763 39.898,132.781 40.441 C 132.866 43.091,123.672 46.541,118.567 45.775 L 115.103 45.256 115.380 36.886 C 116.294 9.343,116.296 9.341,125.922 26.960 M268.510 38.124 C 284.214 63.174,285.194 87.469,271.362 108.862 L 267.906 114.209 263.445 113.758 C 260.992 113.511,252.305 112.911,244.141 112.425 C 227.914 111.460,228.453 111.632,225.070 106.359 C 217.560 94.656,219.319 83.207,230.624 70.204 C 244.195 54.594,252.756 41.382,255.862 31.250 C 256.586 28.887,257.353 26.426,257.565 25.781 C 258.089 24.188,263.836 30.670,268.510 38.124 M145.651 63.420 C 152.141 75.455,152.115 77.295,145.354 84.630 C 137.460 93.194,125.064 93.383,116.559 85.068 C 113.897 82.465,113.188 74.931,114.548 63.672 L 115.019 59.766 121.819 59.749 C 128.072 59.734,129.055 59.508,134.036 56.939 C 137.015 55.402,139.693 54.091,139.987 54.025 C 140.281 53.960,142.830 58.187,145.651 63.420 M262.741 57.790 C 259.350 59.215,258.402 61.877,259.003 68.286 C 259.719 75.933,257.950 84.114,254.250 90.258 C 248.929 99.094,250.400 104.688,258.046 104.688 C 267.155 104.688,275.881 80.581,272.712 64.174 C 271.664 58.752,267.222 55.908,262.741 57.790 M171.308 157.869 L 185.931 220.425 184.040 222.908 C 183.000 224.273,180.913 227.443,179.404 229.951 L 176.660 234.512 175.861 231.514 C 175.421 229.865,171.157 211.816,166.384 191.406 C 161.612 170.996,157.185 153.490,156.547 152.504 C 153.189 147.314,143.750 149.655,143.750 155.678 C 143.750 156.935,159.287 224.548,160.587 228.949 C 160.896 229.994,159.991 229.924,154.106 228.447 L 147.267 226.730 133.056 166.295 C 117.109 98.472,118.133 103.540,120.508 104.249 C 121.475 104.538,124.398 104.974,127.004 105.217 L 131.741 105.659 133.966 115.525 C 137.242 130.048,139.239 132.602,145.663 130.482 C 150.727 128.811,151.094 125.543,147.770 111.755 L 145.612 102.806 150.139 99.783 C 152.629 98.120,154.868 96.434,155.114 96.036 C 155.360 95.638,155.814 95.313,156.123 95.313 C 156.431 95.313,163.265 123.463,171.308 157.869 M360.212 116.727 C 354.578 130.276,354.378 132.533,358.526 135.717 C 363.862 139.814,367.871 136.072,373.741 121.518 C 376.271 115.245,378.418 110.210,378.512 110.329 C 379.463 111.537,385.239 140.294,384.688 141.076 C 376.878 152.161,373.323 157.781,369.970 164.337 C 365.135 173.795,363.830 174.563,353.516 174.028 C 338.957 173.273,328.036 162.115,331.775 151.815 C 334.390 144.611,336.573 135.829,337.714 127.926 L 338.696 121.127 351.574 113.031 C 358.658 108.578,364.566 105.021,364.704 105.127 C 364.842 105.233,362.820 110.453,360.212 116.727 M249.219 126.959 C 254.590 127.206,260.303 127.600,261.914 127.835 L 264.844 128.262 264.844 137.163 L 264.844 146.064 262.769 146.585 C 258.913 147.553,231.203 145.526,229.854 144.177 C 229.598 143.921,230.855 133.486,231.772 128.261 C 232.225 125.677,232.249 125.664,235.840 126.086 C 237.827 126.319,243.848 126.712,249.219 126.959 M71.256 152.874 C 73.882 159.320,74.854 158.289,60.761 164.009 C 47.690 169.315,45.313 171.079,45.313 175.470 C 45.313 182.905,50.822 183.654,64.271 178.046 C 69.527 175.854,74.994 173.577,76.418 172.986 L 79.009 171.912 80.805 175.995 C 84.193 183.697,84.380 183.123,77.565 185.936 C 69.680 189.191,67.969 190.773,67.969 194.812 C 67.969 201.744,73.039 203.249,82.813 199.219 C 85.939 197.930,88.744 196.875,89.047 196.875 C 89.645 196.875,94.102 207.770,93.641 208.106 C 93.486 208.218,87.910 210.533,81.250 213.248 C 65.496 219.672,62.303 223.395,67.434 229.360 C 70.273 232.660,73.562 232.149,87.449 226.247 C 94.081 223.428,99.558 221.204,99.619 221.303 C 99.680 221.403,100.803 224.164,102.114 227.439 L 104.499 233.394 101.837 234.664 C 85.223 242.587,69.262 261.147,63.625 279.102 C 62.849 281.572,62.015 283.586,61.771 283.576 C 61.528 283.566,52.363 261.875,41.406 235.372 C 30.449 208.869,19.867 183.292,17.889 178.533 L 14.295 169.881 40.936 158.812 C 72.323 145.772,68.656 146.491,71.256 152.874 M241.797 160.155 C 246.094 160.563,252.861 160.906,256.836 160.917 C 260.811 160.928,264.062 161.201,264.062 161.523 C 264.059 162.869,261.667 183.335,261.339 184.814 C 261.012 186.286,260.357 186.437,253.733 186.570 C 246.096 186.724,235.866 188.330,230.526 190.214 L 227.344 191.337 227.348 182.583 C 227.350 177.768,227.580 170.379,227.859 166.163 L 228.367 158.497 231.176 158.955 C 232.720 159.206,237.500 159.746,241.797 160.155 M333.159 182.437 C 339.069 185.901,346.609 188.310,353.107 188.811 L 359.078 189.271 348.964 213.724 L 338.850 238.177 335.158 232.034 C 328.906 221.631,322.897 214.433,314.516 207.309 L 310.708 204.071 316.844 189.195 L 322.981 174.319 326.188 177.275 C 327.952 178.901,331.089 181.224,333.159 182.437 M271.875 201.984 C 312.835 210.562,339.736 251.079,331.245 291.406 C 328.032 306.672,329.014 308.221,341.406 307.424 C 390.458 304.268,403.982 370.916,357.085 384.691 C 350.601 386.596,49.399 386.596,42.915 384.691 C 3.414 373.089,5.012 317.527,45.117 308.115 C 50.274 306.905,52.410 306.925,65.078 308.301 C 71.573 309.007,73.126 307.423,73.865 299.333 C 78.336 250.432,132.075 224.200,172.066 251.399 C 179.789 256.652,182.411 255.553,187.497 244.928 C 203.131 212.271,237.492 194.783,271.875 201.984 M234.330 215.068 C 216.684 221.084,200.846 242.849,208.034 251.205 C 212.361 256.236,218.178 253.918,221.060 246.014 C 224.693 236.050,233.619 228.879,244.255 227.381 C 250.251 226.536,251.873 225.678,253.106 222.701 C 256.520 214.459,247.214 210.676,234.330 215.068 M113.470 261.786 C 94.940 270.773,84.638 300.000,100.000 300.000 C 104.402 300.000,106.627 297.669,107.251 292.405 C 108.152 284.793,113.005 277.959,119.907 274.582 C 126.336 271.437,128.307 268.275,126.523 263.968 C 124.501 259.084,120.440 258.406,113.470 261.786 M195.725 293.761 C 171.880 297.997,156.928 322.420,164.054 345.492 C 165.951 351.634,167.792 353.480,172.020 353.480 C 177.822 353.480,180.212 348.613,177.757 341.797 C 167.358 312.933,211.141 293.146,225.055 320.421 C 228.121 326.430,232.532 327.282,239.660 323.242 C 249.557 317.634,260.763 321.152,266.817 331.769 C 270.454 338.147,280.485 336.230,280.461 329.162 C 280.414 314.904,255.231 302.276,238.406 308.073 L 235.027 309.237 232.162 306.048 C 223.841 296.789,208.260 291.535,195.725 293.761 " stroke="none" fill="#000000" fill-rule="evenodd"></path></g></svg> 