<?xml version="1.0" encoding="UTF-8"?> <svg xmlns="http://www.w3.org/2000/svg" xmlns:xlink="http://www.w3.org/1999/xlink" id="svg" version="1.1" width="400" height="400" viewBox="0, 0, 400,400"><g id="svgg"><path id="path0" d="M349.599 67.770 C 337.772 71.986,328.320 82.674,326.866 93.474 C 326.644 95.130,326.302 97.275,326.106 98.242 L 325.751 100.000 167.563 100.000 C 10.417 100.000,9.365 100.010,7.813 101.563 C 5.350 104.025,5.350 295.975,7.812 298.438 C 9.269 299.894,10.417 300.000,24.683 300.000 C 39.901 300.000,39.993 300.010,40.448 301.758 C 44.948 319.048,64.799 337.189,84.695 342.195 C 115.444 349.931,152.179 330.088,159.552 301.758 L 160.010 300.000 275.168 300.000 C 373.376 300.000,390.550 299.837,391.843 298.891 C 393.664 297.560,395.043 98.617,393.282 91.406 C 388.797 73.050,367.346 61.443,349.599 67.770 M369.316 81.763 C 381.141 87.343,384.786 101.844,377.041 112.500 C 369.638 122.685,354.116 123.779,345.595 114.717 C 329.562 97.664,348.185 71.793,369.316 81.763 M330.931 117.651 C 332.588 120.484,335.140 123.852,336.601 125.135 L 339.259 127.469 334.264 140.492 L 329.269 153.516 324.595 153.272 C 319.131 152.987,313.880 154.603,310.857 157.499 L 308.802 159.468 293.268 153.481 C 275.714 146.715,275.781 146.753,275.781 143.565 C 275.781 133.663,262.706 125.235,251.968 128.216 C 238.747 131.886,233.244 150.965,242.889 159.693 C 245.079 161.676,232.739 193.750,229.786 193.750 C 214.446 193.750,206.588 215.062,217.796 226.269 C 234.744 243.218,261.074 219.588,246.513 200.497 L 244.481 197.834 250.647 181.925 C 256.117 167.810,257.023 165.989,258.680 165.777 C 262.482 165.290,266.093 163.831,268.864 161.662 L 271.713 159.432 278.239 162.030 C 281.829 163.459,289.072 166.288,294.336 168.317 C 303.243 171.751,303.907 172.151,303.923 174.089 C 303.947 176.914,306.660 182.714,309.226 185.423 C 322.885 199.846,347.615 185.028,341.217 166.253 L 340.045 162.814 345.639 148.399 L 351.232 133.984 357.946 134.262 C 365.385 134.569,371.411 133.244,377.247 130.016 C 379.127 128.976,380.797 128.125,380.958 128.125 C 381.118 128.125,381.250 163.984,381.250 207.813 L 381.250 287.500 271.875 287.500 L 162.500 287.500 162.500 279.812 C 162.500 256.738,148.693 234.924,127.734 224.885 C 86.129 204.955,37.500 234.557,37.500 279.812 L 37.500 287.500 28.125 287.500 L 18.750 287.500 18.750 200.000 L 18.750 112.500 173.335 112.500 L 327.919 112.500 330.931 117.651 M120.313 126.563 C 118.800 128.075,118.750 129.167,118.750 160.938 L 118.750 193.750 115.625 193.750 L 112.500 193.750 112.500 182.813 C 112.500 167.791,113.778 168.750,93.750 168.750 C 73.722 168.750,75.000 167.791,75.000 182.813 L 75.000 193.750 71.875 193.750 L 68.750 193.750 68.750 167.188 C 68.750 133.975,70.976 137.500,50.000 137.500 C 29.024 137.500,31.250 133.975,31.250 167.188 C 31.250 193.229,31.219 193.750,29.687 193.750 C 25.412 193.750,23.237 201.362,26.563 204.688 C 29.024 207.149,201.445 207.149,203.906 204.688 C 207.048 201.546,205.098 193.750,201.172 193.750 C 200.153 193.750,200.000 190.278,200.000 167.188 C 200.000 133.975,202.226 137.500,181.250 137.500 C 160.274 137.500,162.500 133.975,162.500 167.188 L 162.500 193.750 159.375 193.750 L 156.250 193.750 156.250 160.938 C 156.250 120.440,158.629 125.000,137.500 125.000 C 122.917 125.000,121.771 125.104,120.313 126.563 M143.750 165.625 L 143.750 193.750 137.500 193.750 L 131.250 193.750 131.250 165.625 L 131.250 137.500 137.500 137.500 L 143.750 137.500 143.750 165.625 M260.463 142.383 C 264.487 145.998,262.457 152.344,257.277 152.344 C 252.063 152.344,249.563 145.437,253.621 142.244 C 256.267 140.163,258.032 140.199,260.463 142.383 M56.250 171.875 L 56.250 193.750 50.000 193.750 L 43.750 193.750 43.750 171.875 L 43.750 150.000 50.000 150.000 L 56.250 150.000 56.250 171.875 M187.500 171.875 L 187.500 193.750 181.250 193.750 L 175.000 193.750 175.000 171.875 L 175.000 150.000 181.250 150.000 L 187.500 150.000 187.500 171.875 M326.989 168.324 C 330.507 171.843,327.981 178.125,323.047 178.125 C 320.442 178.125,317.188 174.870,317.188 172.266 C 317.188 169.661,320.442 166.406,323.047 166.406 C 324.160 166.406,325.934 167.269,326.989 168.324 M100.000 187.500 L 100.000 193.750 93.750 193.750 L 87.500 193.750 87.500 187.500 L 87.500 181.250 93.750 181.250 L 100.000 181.250 100.000 187.500 M235.881 209.090 C 240.353 214.775,232.308 221.555,227.374 216.259 C 224.121 212.767,226.772 207.031,231.641 207.031 C 233.542 207.031,234.706 207.597,235.881 209.090 M107.188 232.375 C 111.566 232.810,122.656 236.416,122.656 237.405 C 122.656 237.682,116.751 246.167,109.534 256.260 L 96.412 274.609 73.532 274.817 L 50.652 275.024 51.181 272.473 C 56.085 248.840,80.619 228.836,101.172 231.714 C 102.031 231.834,104.739 232.132,107.188 232.375 M301.563 232.813 C 300.521 233.854,300.000 235.417,300.000 237.500 C 300.000 244.008,298.453 243.750,337.500 243.750 C 376.547 243.750,375.000 244.008,375.000 237.500 C 375.000 230.992,376.547 231.250,337.500 231.250 C 304.167 231.250,303.078 231.297,301.563 232.813 M141.181 254.159 C 151.902 270.273,151.900 292.364,141.176 308.397 C 139.064 311.555,136.998 314.025,136.584 313.887 C 134.895 313.324,108.685 280.953,109.211 280.080 C 109.516 279.575,115.201 271.553,121.844 262.255 L 133.921 245.348 135.778 247.088 C 136.799 248.045,139.230 251.227,141.181 254.159 M170.313 251.563 C 168.880 252.995,168.750 254.167,168.750 265.625 C 168.750 283.213,163.254 281.250,212.500 281.250 C 261.746 281.250,256.250 283.213,256.250 265.625 C 256.250 248.037,261.746 250.000,212.500 250.000 C 172.917 250.000,171.835 250.040,170.313 251.563 M320.313 251.563 C 319.271 252.604,318.750 254.167,318.750 256.250 C 318.750 262.576,318.406 262.500,346.875 262.500 C 375.344 262.500,375.000 262.576,375.000 256.250 C 375.000 249.924,375.344 250.000,346.875 250.000 C 322.917 250.000,321.810 250.065,320.313 251.563 M243.750 265.625 L 243.750 268.750 212.500 268.750 L 181.250 268.750 181.250 265.625 L 181.250 262.500 212.500 262.500 L 243.750 262.500 243.750 265.625 M326.563 270.313 C 321.418 275.457,325.557 281.250,334.375 281.250 C 341.912 281.250,343.750 280.025,343.750 275.000 C 343.750 269.975,341.912 268.750,334.375 268.750 C 329.167 268.750,327.865 269.010,326.563 270.313 M351.563 270.313 C 350.521 271.354,350.000 272.917,350.000 275.000 C 350.000 280.486,351.527 281.250,362.500 281.250 C 373.473 281.250,375.000 280.486,375.000 275.000 C 375.000 269.514,373.473 268.750,362.500 268.750 C 354.167 268.750,352.951 268.924,351.563 270.313 M111.130 305.176 C 119.186 314.877,125.557 323.169,125.288 323.603 C 125.020 324.038,122.940 325.216,120.666 326.221 C 99.835 335.434,75.152 329.510,61.409 312.001 C 56.222 305.393,53.369 299.124,51.235 289.648 L 50.751 287.500 73.618 287.519 L 96.484 287.539 111.130 305.176 " stroke="none" fill="#000000" fill-rule="evenodd"></path></g></svg> 