<?xml version="1.0" encoding="UTF-8"?> <svg xmlns="http://www.w3.org/2000/svg" xmlns:xlink="http://www.w3.org/1999/xlink" id="svg" version="1.1" width="400" height="400" viewBox="0, 0, 400,400"><g id="svgg"><path id="path0" d="" stroke="none" fill="#040404" fill-rule="evenodd"></path><path id="path1" d="M77.600 7.224 C 70.963 7.876,69.165 8.133,68.964 8.459 C 68.848 8.647,68.324 8.800,67.800 8.800 C 67.276 8.800,66.736 8.980,66.600 9.200 C 66.464 9.420,65.924 9.600,65.400 9.600 C 64.876 9.600,64.336 9.780,64.200 10.000 C 64.064 10.220,63.513 10.400,62.976 10.400 C 62.439 10.400,62.000 10.580,62.000 10.800 C 62.000 11.020,61.640 11.200,61.200 11.200 C 60.760 11.200,60.400 11.380,60.400 11.600 C 60.400 11.820,60.040 12.000,59.600 12.000 C 59.160 12.000,58.800 12.180,58.800 12.400 C 58.800 12.620,58.522 12.800,58.183 12.800 C 57.844 12.800,57.211 13.131,56.777 13.536 C 56.342 13.941,55.495 14.526,54.893 14.836 C 54.292 15.146,53.550 15.637,53.244 15.928 C 52.938 16.218,52.220 16.758,51.648 17.128 C 49.574 18.470,42.400 25.373,42.400 26.027 C 42.400 26.291,42.075 26.797,41.677 27.153 C 40.163 28.508,35.510 37.590,34.377 41.400 C 34.116 42.280,33.744 43.313,33.551 43.695 C 33.358 44.077,33.200 44.943,33.200 45.621 C 33.200 46.298,32.999 47.229,32.752 47.689 C 32.147 48.820,32.158 64.318,32.764 64.924 C 33.004 65.164,33.200 65.956,33.200 66.685 C 33.200 67.414,33.358 68.323,33.551 68.705 C 33.744 69.087,34.116 70.120,34.377 71.000 C 34.862 72.631,35.414 74.051,36.047 75.295 C 36.241 75.677,36.400 76.262,36.400 76.595 C 36.400 76.928,36.536 77.200,36.702 77.200 C 36.869 77.200,37.263 77.785,37.580 78.500 C 38.204 79.912,40.832 84.476,41.207 84.800 C 41.334 84.910,41.874 85.630,42.405 86.400 C 43.837 88.473,49.477 93.875,52.016 95.606 C 55.530 98.000,55.952 98.926,53.948 99.850 C 47.005 103.053,38.041 108.041,37.200 109.170 C 37.090 109.318,36.370 109.869,35.600 110.395 C 33.814 111.615,24.151 121.289,22.610 123.400 C 21.968 124.280,21.342 125.090,21.221 125.200 C 21.099 125.310,20.744 125.895,20.432 126.500 C 20.120 127.105,19.715 127.600,19.532 127.600 C 19.350 127.600,19.200 127.793,19.200 128.028 C 19.200 128.263,18.699 129.208,18.088 130.128 C 17.476 131.048,16.718 132.340,16.402 133.000 C 16.087 133.660,15.507 134.678,15.114 135.262 C 14.721 135.846,14.400 136.611,14.400 136.962 C 14.400 137.313,14.220 137.600,14.000 137.600 C 13.780 137.600,13.600 137.960,13.600 138.400 C 13.600 138.840,13.420 139.200,13.200 139.200 C 12.980 139.200,12.800 139.560,12.800 140.000 C 12.800 140.440,12.620 140.800,12.400 140.800 C 12.180 140.800,12.000 141.340,12.000 142.000 C 12.000 142.660,11.820 143.200,11.600 143.200 C 11.380 143.200,11.200 143.639,11.200 144.176 C 11.200 144.713,11.020 145.264,10.800 145.400 C 10.580 145.536,10.400 146.076,10.400 146.600 C 10.400 147.124,10.220 147.664,10.000 147.800 C 9.780 147.936,9.600 148.566,9.600 149.200 C 9.600 149.834,9.420 150.464,9.200 150.600 C 8.980 150.736,8.800 151.546,8.800 152.400 C 8.800 153.254,8.648 154.047,8.462 154.162 C 6.298 155.499,6.316 239.600,8.480 239.600 C 8.656 239.600,8.800 239.872,8.800 240.205 C 8.800 240.761,9.523 242.324,10.001 242.800 C 10.111 242.910,10.471 243.529,10.801 244.174 C 11.576 245.695,16.705 250.824,18.226 251.599 C 18.871 251.929,19.490 252.289,19.600 252.399 C 20.076 252.877,21.639 253.600,22.195 253.600 C 22.528 253.600,22.800 253.780,22.800 254.000 C 22.800 254.220,23.340 254.400,24.000 254.400 C 24.660 254.400,25.200 254.565,25.200 254.767 C 25.200 255.129,27.626 255.408,34.500 255.838 L 38.000 256.057 38.000 312.021 C 38.000 367.367,38.073 370.891,39.312 375.400 C 39.913 377.587,41.622 381.233,42.488 382.175 C 42.879 382.602,43.200 383.101,43.200 383.284 C 43.200 383.719,47.481 388.000,47.916 388.000 C 48.099 388.000,48.598 388.316,49.025 388.703 C 50.346 389.900,54.887 391.932,57.298 392.405 C 61.315 393.193,70.800 392.567,70.800 391.513 C 70.800 391.341,71.160 391.200,71.600 391.200 C 72.040 391.200,72.400 391.020,72.400 390.800 C 72.400 390.580,72.760 390.400,73.200 390.400 C 73.640 390.400,74.000 390.220,74.000 390.000 C 74.000 389.780,74.267 389.600,74.593 389.600 C 74.919 389.600,75.684 389.154,76.293 388.608 C 76.902 388.063,78.110 386.983,78.978 386.208 C 80.945 384.453,81.672 384.445,83.391 386.164 C 84.141 386.914,85.305 387.853,85.977 388.250 C 86.650 388.647,87.200 389.080,87.200 389.212 C 87.200 389.343,87.830 389.698,88.600 390.000 C 89.370 390.302,90.000 390.696,90.000 390.875 C 90.000 391.054,90.360 391.200,90.800 391.200 C 91.240 391.200,91.600 391.345,91.600 391.522 C 91.600 391.993,97.165 392.850,100.226 392.850 C 103.177 392.850,108.400 391.996,108.400 391.513 C 108.400 391.341,108.760 391.200,109.200 391.200 C 109.640 391.200,110.000 391.020,110.000 390.800 C 110.000 390.580,110.360 390.400,110.800 390.400 C 111.240 390.400,111.600 390.220,111.600 390.000 C 111.600 389.780,111.836 389.600,112.125 389.600 C 112.413 389.600,113.036 389.240,113.508 388.800 C 113.980 388.360,114.478 388.000,114.614 388.000 C 115.109 388.000,120.000 382.691,120.000 382.154 C 120.000 381.849,120.180 381.600,120.400 381.600 C 120.620 381.600,120.800 381.330,120.800 381.000 C 120.800 380.670,120.980 380.400,121.200 380.400 C 121.420 380.400,121.600 380.040,121.600 379.600 C 121.600 379.160,121.780 378.800,122.000 378.800 C 122.220 378.800,122.400 378.451,122.400 378.024 C 122.400 377.597,122.580 377.136,122.800 377.000 C 123.020 376.864,123.200 376.313,123.200 375.776 C 123.200 375.239,123.366 374.800,123.568 374.800 C 124.348 374.800,124.477 366.734,124.638 307.817 C 124.730 274.387,124.959 246.881,125.147 246.693 C 125.336 246.504,126.724 247.572,128.256 249.085 C 129.778 250.589,131.648 252.259,132.412 252.797 C 133.175 253.334,134.032 253.998,134.315 254.273 C 134.598 254.547,135.363 255.087,136.015 255.472 C 136.667 255.857,137.200 256.314,137.200 256.486 C 137.200 256.659,137.470 256.800,137.800 256.800 C 138.130 256.800,138.400 256.980,138.400 257.200 C 138.400 257.420,138.655 257.600,138.967 257.600 C 139.278 257.600,139.593 257.750,139.667 257.932 C 139.885 258.476,149.777 263.159,152.600 264.055 C 153.480 264.335,154.371 264.707,154.580 264.882 C 154.789 265.057,155.453 265.200,156.056 265.200 C 156.659 265.200,157.264 265.380,157.400 265.600 C 157.536 265.820,158.231 266.000,158.944 266.000 C 159.657 266.000,160.411 266.163,160.620 266.361 C 161.053 266.773,163.048 267.054,169.600 267.626 C 175.325 268.127,178.872 267.994,187.000 266.973 C 188.100 266.835,189.171 266.560,189.380 266.361 C 189.589 266.163,190.444 266.000,191.280 266.000 C 192.116 266.000,192.800 265.820,192.800 265.600 C 192.800 265.380,193.304 265.200,193.920 265.200 C 194.536 265.200,195.211 265.057,195.420 264.882 C 195.629 264.707,196.520 264.335,197.400 264.055 C 201.071 262.889,210.996 257.961,212.800 256.407 C 213.570 255.744,214.337 255.201,214.503 255.201 C 214.670 255.200,215.335 254.730,215.980 254.155 C 216.626 253.580,217.639 252.858,218.231 252.550 L 219.309 251.991 238.250 270.895 C 257.836 290.444,257.754 290.351,256.355 291.504 C 255.891 291.887,255.274 292.425,254.984 292.700 C 254.694 292.975,254.357 293.200,254.235 293.200 C 253.364 293.200,243.200 303.497,243.200 304.380 C 243.200 304.574,243.034 304.793,242.832 304.867 C 241.112 305.490,234.000 320.516,234.000 323.527 C 234.000 324.007,233.820 324.400,233.600 324.400 C 233.380 324.400,233.200 325.174,233.200 326.120 C 233.200 327.066,233.038 328.011,232.839 328.220 C 232.564 328.511,232.053 334.443,232.015 337.800 C 231.988 340.168,232.564 346.286,232.841 346.580 C 233.039 346.789,233.200 347.723,233.200 348.656 C 233.200 349.589,233.380 350.464,233.600 350.600 C 233.820 350.736,234.000 351.366,234.000 352.000 C 234.000 352.634,234.180 353.264,234.400 353.400 C 234.620 353.536,234.800 354.076,234.800 354.600 C 234.800 355.124,234.980 355.664,235.200 355.800 C 235.420 355.936,235.600 356.324,235.600 356.663 C 235.600 357.947,240.896 368.019,242.494 369.775 C 242.882 370.202,243.200 370.703,243.200 370.889 C 243.200 371.075,243.785 371.816,244.500 372.536 C 245.215 373.256,246.340 374.465,247.001 375.223 C 249.138 377.674,256.689 383.981,257.500 383.993 C 257.775 383.997,258.000 384.180,258.000 384.400 C 258.000 384.620,258.236 384.800,258.525 384.800 C 258.813 384.800,259.436 385.160,259.908 385.600 C 260.380 386.040,261.044 386.400,261.383 386.400 C 261.722 386.400,262.000 386.580,262.000 386.800 C 262.000 387.020,262.360 387.200,262.800 387.200 C 263.240 387.200,263.600 387.380,263.600 387.600 C 263.600 387.820,263.872 388.000,264.205 388.000 C 264.538 388.000,265.123 388.159,265.505 388.353 C 265.887 388.548,266.740 388.929,267.400 389.200 C 268.060 389.471,268.913 389.852,269.295 390.047 C 269.677 390.241,270.341 390.400,270.771 390.400 C 271.201 390.400,271.664 390.580,271.800 390.800 C 271.936 391.020,272.577 391.200,273.224 391.200 C 273.871 391.200,274.400 391.380,274.400 391.600 C 274.400 391.820,275.095 392.000,275.945 392.000 C 276.795 392.000,278.460 392.185,279.645 392.411 C 284.124 393.264,300.400 392.566,300.400 391.520 C 300.400 391.344,300.781 391.200,301.247 391.200 C 302.297 391.200,307.351 389.512,307.533 389.101 C 307.607 388.935,307.986 388.800,308.377 388.800 C 309.155 388.800,314.119 386.383,314.333 385.900 C 314.407 385.735,314.640 385.600,314.851 385.600 C 318.216 385.600,335.600 368.216,335.600 364.851 C 335.600 364.640,335.735 364.407,335.900 364.333 C 336.383 364.119,338.800 359.155,338.800 358.377 C 338.800 357.986,338.935 357.607,339.101 357.533 C 339.512 357.351,341.200 352.297,341.200 351.247 C 341.200 350.781,341.344 350.400,341.520 350.400 C 342.566 350.400,343.264 334.124,342.411 329.645 C 342.185 328.460,342.000 326.795,342.000 325.945 C 342.000 325.095,341.820 324.400,341.600 324.400 C 341.380 324.400,341.200 323.871,341.200 323.224 C 341.200 322.577,341.020 321.936,340.800 321.800 C 340.580 321.664,340.400 321.201,340.400 320.771 C 340.400 320.341,340.241 319.677,340.047 319.295 C 339.852 318.913,339.471 318.060,339.200 317.400 C 338.929 316.740,338.548 315.887,338.353 315.505 C 338.159 315.123,338.000 314.538,338.000 314.205 C 338.000 313.872,337.820 313.600,337.600 313.600 C 337.380 313.600,337.200 313.240,337.200 312.800 C 337.200 312.360,337.020 312.000,336.800 312.000 C 336.580 312.000,336.400 311.722,336.400 311.383 C 336.400 311.044,336.040 310.380,335.600 309.908 C 335.160 309.436,334.800 308.813,334.800 308.525 C 334.800 308.236,334.620 308.000,334.400 308.000 C 334.180 308.000,333.997 307.775,333.993 307.500 C 333.981 306.689,327.674 299.138,325.223 297.001 C 324.465 296.340,323.256 295.215,322.536 294.500 C 321.816 293.785,321.075 293.200,320.889 293.200 C 320.703 293.200,320.162 292.838,319.687 292.396 C 318.750 291.523,315.878 289.838,312.400 288.123 C 311.190 287.526,310.110 286.932,310.000 286.802 C 309.890 286.672,308.990 286.318,308.000 286.014 C 307.010 285.710,306.029 285.312,305.820 285.130 C 305.611 284.949,305.037 284.800,304.544 284.800 C 304.051 284.800,303.536 284.620,303.400 284.400 C 303.264 284.180,302.634 284.000,302.000 284.000 C 301.366 284.000,300.736 283.820,300.600 283.600 C 300.464 283.380,299.589 283.200,298.656 283.200 C 297.723 283.200,296.789 283.036,296.580 282.835 C 296.271 282.537,289.961 281.975,287.600 282.035 C 283.228 282.145,278.837 282.495,278.200 282.783 C 277.760 282.983,276.815 283.248,276.100 283.373 C 273.064 283.903,272.178 284.118,271.800 284.413 C 271.580 284.585,270.590 284.837,269.600 284.973 L 267.800 285.220 247.442 264.834 C 224.541 241.902,226.279 244.186,229.196 240.863 C 229.841 240.128,230.478 239.183,230.612 238.763 C 230.745 238.344,231.022 238.000,231.227 238.000 C 231.432 238.000,231.600 237.764,231.600 237.475 C 231.600 237.187,231.915 236.602,232.300 236.175 C 232.685 235.748,233.429 234.589,233.954 233.600 C 234.478 232.610,235.423 230.837,236.054 229.659 C 236.684 228.482,237.200 227.267,237.200 226.959 C 237.200 226.652,237.380 226.400,237.600 226.400 C 237.820 226.400,238.000 226.051,238.000 225.624 C 238.000 225.197,238.180 224.736,238.400 224.600 C 238.620 224.464,238.800 223.913,238.800 223.376 C 238.800 222.839,238.980 222.400,239.200 222.400 C 239.420 222.400,239.600 221.860,239.600 221.200 C 239.600 220.540,239.780 220.000,240.000 220.000 C 240.220 220.000,240.400 219.471,240.400 218.824 C 240.400 218.177,240.580 217.536,240.800 217.400 C 241.020 217.264,241.200 216.454,241.200 215.600 C 241.200 214.746,241.354 213.952,241.541 213.836 C 241.729 213.720,242.003 212.330,242.150 210.747 C 242.297 209.164,242.523 207.448,242.652 206.934 L 242.887 206.000 262.643 206.000 L 282.400 206.000 282.400 207.600 C 282.400 208.480,282.580 209.200,282.800 209.200 C 283.020 209.200,283.200 209.999,283.200 210.976 C 283.200 211.953,283.380 212.864,283.600 213.000 C 283.820 213.136,284.000 213.689,284.000 214.229 C 284.000 214.769,284.171 215.523,284.381 215.905 C 284.591 216.287,285.152 217.770,285.628 219.200 C 286.104 220.630,286.652 221.971,286.847 222.180 C 287.041 222.389,287.200 222.884,287.200 223.280 C 287.200 223.676,287.380 224.000,287.600 224.000 C 287.820 224.000,288.000 224.287,288.000 224.638 C 288.000 224.989,288.336 225.754,288.748 226.338 C 289.159 226.922,289.862 228.120,290.309 229.000 C 290.757 229.880,291.590 231.140,292.161 231.800 C 292.732 232.460,293.199 233.157,293.200 233.348 C 293.201 234.499,306.275 246.400,307.536 246.400 C 307.791 246.400,308.000 246.545,308.000 246.721 C 308.000 246.898,308.897 247.483,309.994 248.021 C 311.090 248.560,311.990 249.135,311.994 249.300 C 311.997 249.465,312.360 249.600,312.800 249.600 C 313.240 249.600,313.600 249.780,313.600 250.000 C 313.600 250.220,313.872 250.400,314.205 250.400 C 314.538 250.400,315.123 250.559,315.505 250.753 C 315.887 250.948,316.740 251.329,317.400 251.600 C 318.060 251.871,318.913 252.252,319.295 252.447 C 319.677 252.641,320.341 252.800,320.771 252.800 C 321.201 252.800,321.664 252.980,321.800 253.200 C 321.936 253.420,322.577 253.600,323.224 253.600 C 323.871 253.600,324.400 253.780,324.400 254.000 C 324.400 254.220,325.199 254.400,326.176 254.400 C 327.153 254.400,328.064 254.580,328.200 254.800 C 328.337 255.022,330.177 255.200,332.344 255.200 C 334.885 255.200,336.410 255.370,336.730 255.690 C 337.117 256.077,337.385 256.077,338.005 255.690 C 338.480 255.393,340.280 255.200,342.571 255.200 C 344.661 255.200,346.463 255.021,346.600 254.800 C 346.736 254.580,347.647 254.400,348.624 254.400 C 349.601 254.400,350.400 254.220,350.400 254.000 C 350.400 253.780,350.792 253.600,351.272 253.600 C 352.096 253.600,353.896 253.112,355.900 252.345 C 358.188 251.469,358.774 251.215,361.400 249.966 C 362.940 249.234,364.952 248.132,365.872 247.517 C 366.792 246.903,367.722 246.400,367.939 246.400 C 368.156 246.400,368.393 246.255,368.467 246.077 C 368.540 245.899,369.500 245.140,370.600 244.390 C 375.443 241.089,386.400 228.346,386.400 226.015 C 386.400 225.787,386.580 225.600,386.800 225.600 C 387.020 225.600,387.200 225.240,387.200 224.800 C 387.200 224.360,387.380 224.000,387.600 224.000 C 387.820 224.000,388.000 223.728,388.000 223.395 C 388.000 223.062,388.159 222.477,388.353 222.095 C 388.548 221.713,388.929 220.860,389.200 220.200 C 389.471 219.540,389.852 218.687,390.047 218.305 C 390.241 217.923,390.400 217.259,390.400 216.829 C 390.400 216.399,390.580 215.936,390.800 215.800 C 391.020 215.664,391.200 215.059,391.200 214.456 C 391.200 213.853,391.351 213.189,391.535 212.980 C 393.129 211.173,393.129 188.827,391.535 187.020 C 391.351 186.811,391.200 186.147,391.200 185.544 C 391.200 184.941,391.020 184.336,390.800 184.200 C 390.580 184.064,390.400 183.601,390.400 183.171 C 390.400 182.741,390.241 182.077,390.047 181.695 C 389.852 181.313,389.471 180.460,389.200 179.800 C 388.929 179.140,388.548 178.287,388.353 177.905 C 388.159 177.523,388.000 176.938,388.000 176.605 C 388.000 176.272,387.820 176.000,387.600 176.000 C 387.380 176.000,387.200 175.640,387.200 175.200 C 387.200 174.760,387.020 174.400,386.800 174.400 C 386.580 174.400,386.400 174.207,386.400 173.972 C 386.400 173.737,385.860 172.759,385.200 171.800 C 384.540 170.841,384.000 169.863,384.000 169.628 C 384.000 169.393,383.859 169.200,383.686 169.200 C 383.514 169.200,383.075 168.696,382.711 168.081 C 381.033 165.240,373.797 157.789,370.600 155.610 C 369.500 154.860,368.540 154.101,368.467 153.923 C 368.393 153.745,368.156 153.600,367.939 153.600 C 367.722 153.600,366.792 153.097,365.872 152.483 C 364.325 151.449,359.951 149.239,357.600 148.304 C 357.050 148.086,356.287 147.748,355.905 147.553 C 355.523 147.359,354.859 147.200,354.429 147.200 C 353.999 147.200,353.536 147.020,353.400 146.800 C 353.264 146.580,352.634 146.400,352.000 146.400 C 351.366 146.400,350.736 146.220,350.600 146.000 C 350.464 145.780,349.589 145.600,348.656 145.600 C 347.723 145.600,346.789 145.432,346.580 145.227 C 345.628 144.291,329.172 144.291,328.220 145.227 C 328.011 145.432,327.066 145.600,326.120 145.600 C 325.174 145.600,324.400 145.780,324.400 146.000 C 324.400 146.220,323.871 146.400,323.224 146.400 C 322.577 146.400,321.936 146.580,321.800 146.800 C 321.664 147.020,321.201 147.200,320.771 147.200 C 320.341 147.200,319.677 147.359,319.295 147.553 C 318.913 147.748,318.060 148.129,317.400 148.400 C 316.740 148.671,315.887 149.052,315.505 149.247 C 315.123 149.441,314.538 149.600,314.205 149.600 C 313.872 149.600,313.600 149.780,313.600 150.000 C 313.600 150.220,313.240 150.400,312.800 150.400 C 312.360 150.400,312.000 150.536,312.000 150.702 C 312.000 150.869,311.484 151.233,310.854 151.512 C 309.555 152.087,306.069 154.322,305.271 155.090 C 304.981 155.371,304.575 155.600,304.369 155.600 C 303.876 155.600,293.200 166.135,293.199 166.623 C 293.199 166.830,292.659 167.630,292.000 168.400 C 291.341 169.170,290.801 169.944,290.801 170.119 C 290.800 170.295,290.213 171.375,289.496 172.519 C 288.779 173.664,287.987 175.050,287.736 175.600 C 286.153 179.070,285.600 180.460,285.600 180.972 C 285.600 181.291,285.420 181.664,285.200 181.800 C 284.980 181.936,284.800 182.476,284.800 183.000 C 284.800 183.524,284.620 184.064,284.400 184.200 C 284.180 184.336,284.000 184.966,284.000 185.600 C 284.000 186.234,283.820 186.864,283.600 187.000 C 283.380 187.136,283.200 188.047,283.200 189.024 C 283.200 190.001,283.020 190.800,282.800 190.800 C 282.580 190.800,282.400 191.520,282.400 192.400 L 282.400 194.000 262.643 194.000 L 242.887 194.000 242.652 193.066 C 242.523 192.552,242.297 190.836,242.150 189.253 C 242.003 187.670,241.729 186.280,241.541 186.164 C 241.354 186.048,241.200 185.254,241.200 184.400 C 241.200 183.546,241.020 182.736,240.800 182.600 C 240.580 182.464,240.400 181.823,240.400 181.176 C 240.400 180.529,240.220 180.000,240.000 180.000 C 239.780 180.000,239.600 179.460,239.600 178.800 C 239.600 178.140,239.420 177.600,239.200 177.600 C 238.980 177.600,238.800 177.161,238.800 176.624 C 238.800 176.087,238.620 175.536,238.400 175.400 C 238.180 175.264,238.000 174.803,238.000 174.376 C 238.000 173.949,237.820 173.600,237.600 173.600 C 237.380 173.600,237.200 173.348,237.200 173.041 C 237.200 172.733,236.684 171.518,236.054 170.341 C 235.423 169.163,234.478 167.390,233.954 166.400 C 233.429 165.411,232.685 164.252,232.300 163.825 C 231.915 163.398,231.600 162.813,231.600 162.525 C 231.600 162.236,231.432 162.000,231.227 162.000 C 231.022 162.000,230.745 161.656,230.612 161.237 C 230.478 160.817,229.841 159.872,229.196 159.137 C 226.288 155.824,224.553 158.102,247.444 135.170 L 267.800 114.777 269.600 115.026 C 270.590 115.163,271.580 115.415,271.800 115.587 C 272.020 115.759,272.740 116.004,273.400 116.132 C 274.060 116.260,275.500 116.568,276.600 116.818 C 278.150 117.170,284.935 117.879,287.800 117.989 C 288.463 118.015,296.470 117.248,298.400 116.974 C 299.390 116.833,300.371 116.556,300.580 116.359 C 300.789 116.162,301.453 116.000,302.056 116.000 C 302.659 116.000,303.264 115.820,303.400 115.600 C 303.536 115.380,304.076 115.200,304.600 115.200 C 305.124 115.200,305.664 115.020,305.800 114.800 C 305.936 114.580,306.324 114.400,306.663 114.400 C 307.947 114.400,318.019 109.104,319.775 107.506 C 320.202 107.118,320.703 106.800,320.889 106.800 C 321.075 106.800,321.816 106.215,322.536 105.500 C 323.256 104.785,324.465 103.660,325.223 102.999 C 327.674 100.862,333.981 93.311,333.993 92.500 C 333.997 92.225,334.180 92.000,334.400 92.000 C 334.620 92.000,334.800 91.764,334.800 91.475 C 334.800 91.187,335.160 90.564,335.600 90.092 C 336.040 89.620,336.400 88.956,336.400 88.617 C 336.400 88.278,336.580 88.000,336.800 88.000 C 337.020 88.000,337.200 87.640,337.200 87.200 C 337.200 86.760,337.380 86.400,337.600 86.400 C 337.820 86.400,338.000 86.128,338.000 85.795 C 338.000 85.462,338.159 84.877,338.353 84.495 C 338.548 84.113,338.929 83.260,339.200 82.600 C 339.471 81.940,339.852 81.087,340.047 80.705 C 340.241 80.323,340.400 79.659,340.400 79.229 C 340.400 78.799,340.580 78.336,340.800 78.200 C 341.020 78.064,341.200 77.511,341.200 76.971 C 341.200 76.431,341.363 75.677,341.562 75.295 C 343.153 72.243,343.116 49.600,341.520 49.600 C 341.344 49.600,341.200 49.219,341.200 48.753 C 341.200 47.703,339.512 42.649,339.101 42.467 C 338.935 42.393,338.800 42.014,338.800 41.623 C 338.800 40.845,336.383 35.881,335.900 35.667 C 335.735 35.593,335.600 35.360,335.600 35.149 C 335.600 32.868,325.352 21.359,319.972 17.598 C 319.218 17.070,318.510 16.540,318.400 16.419 C 318.290 16.299,317.795 15.975,317.300 15.700 C 316.805 15.425,315.995 14.975,315.500 14.700 C 315.005 14.425,314.510 14.109,314.400 13.998 C 313.856 13.446,308.992 11.200,308.344 11.200 C 307.935 11.200,307.600 11.020,307.600 10.800 C 307.600 10.580,307.251 10.400,306.824 10.400 C 306.397 10.400,305.936 10.220,305.800 10.000 C 305.664 9.780,305.124 9.600,304.600 9.600 C 304.076 9.600,303.536 9.420,303.400 9.200 C 303.264 8.980,302.533 8.800,301.776 8.800 C 301.019 8.800,300.400 8.656,300.400 8.480 C 300.400 7.434,284.124 6.736,279.645 7.589 C 278.460 7.815,276.795 8.000,275.945 8.000 C 275.095 8.000,274.400 8.180,274.400 8.400 C 274.400 8.620,273.871 8.800,273.224 8.800 C 272.577 8.800,271.936 8.980,271.800 9.200 C 271.664 9.420,271.201 9.600,270.771 9.600 C 270.341 9.600,269.677 9.759,269.295 9.953 C 268.913 10.148,268.060 10.529,267.400 10.800 C 266.740 11.071,265.887 11.452,265.505 11.647 C 265.123 11.841,264.538 12.000,264.205 12.000 C 263.872 12.000,263.600 12.180,263.600 12.400 C 263.600 12.620,263.240 12.800,262.800 12.800 C 262.360 12.800,262.000 12.980,262.000 13.200 C 262.000 13.420,261.722 13.600,261.383 13.600 C 261.044 13.600,260.380 13.960,259.908 14.400 C 259.436 14.840,258.813 15.200,258.525 15.200 C 258.236 15.200,258.000 15.380,258.000 15.600 C 258.000 15.820,257.775 16.003,257.500 16.007 C 256.689 16.019,249.138 22.326,247.001 24.777 C 246.340 25.535,245.215 26.744,244.500 27.464 C 243.785 28.184,243.200 28.925,243.200 29.111 C 243.200 29.297,242.838 29.838,242.396 30.313 C 240.884 31.935,235.600 42.085,235.600 43.366 C 235.600 43.689,235.420 44.064,235.200 44.200 C 234.980 44.336,234.800 44.876,234.800 45.400 C 234.800 45.924,234.620 46.464,234.400 46.600 C 234.180 46.736,234.000 47.366,234.000 48.000 C 234.000 48.634,233.820 49.264,233.600 49.400 C 233.380 49.536,233.200 50.411,233.200 51.344 C 233.200 52.277,233.039 53.211,232.841 53.420 C 232.564 53.714,231.988 59.832,232.015 62.200 C 232.053 65.557,232.564 71.489,232.839 71.780 C 233.038 71.989,233.200 72.934,233.200 73.880 C 233.200 74.826,233.380 75.600,233.600 75.600 C 233.820 75.600,234.000 76.006,234.000 76.502 C 234.000 79.411,241.167 94.530,242.832 95.133 C 243.034 95.207,243.200 95.426,243.200 95.620 C 243.200 96.485,253.357 106.800,254.209 106.800 C 254.400 106.800,255.700 107.829,256.645 108.729 C 257.659 109.694,257.302 110.089,238.238 129.117 L 219.285 148.034 217.750 147.172 C 216.907 146.698,215.942 146.014,215.608 145.652 C 215.274 145.291,214.505 144.740,213.900 144.430 C 213.295 144.119,212.800 143.715,212.800 143.532 C 212.800 143.350,212.530 143.200,212.200 143.200 C 211.870 143.200,211.600 143.053,211.600 142.874 C 211.600 142.695,210.925 142.187,210.100 141.745 C 209.275 141.304,207.790 140.495,206.800 139.947 C 205.810 139.400,203.920 138.529,202.600 138.011 C 201.280 137.493,200.020 136.951,199.800 136.807 C 199.580 136.662,198.590 136.300,197.600 136.002 C 196.610 135.705,195.629 135.312,195.420 135.130 C 195.211 134.949,194.536 134.800,193.920 134.800 C 193.304 134.800,192.800 134.620,192.800 134.400 C 192.800 134.180,192.080 134.000,191.200 134.000 C 190.320 134.000,189.600 133.837,189.600 133.637 C 189.600 133.257,187.993 133.039,180.400 132.390 C 173.692 131.816,161.743 132.571,160.620 133.639 C 160.411 133.837,159.657 134.000,158.944 134.000 C 158.231 134.000,157.536 134.180,157.400 134.400 C 157.264 134.620,156.659 134.800,156.056 134.800 C 155.453 134.800,154.789 134.943,154.580 135.118 C 154.371 135.293,153.480 135.665,152.600 135.945 C 151.720 136.224,150.607 136.645,150.127 136.880 C 148.819 137.519,148.331 137.143,146.835 134.349 C 146.085 132.947,145.141 131.260,144.739 130.600 C 144.337 129.940,143.702 128.815,143.330 128.100 C 142.957 127.385,142.505 126.800,142.326 126.800 C 142.147 126.800,142.000 126.557,142.000 126.259 C 142.000 125.962,141.460 125.154,140.800 124.463 C 140.140 123.772,139.600 123.103,139.600 122.975 C 139.600 122.725,136.929 119.805,133.981 116.834 C 132.389 115.229,130.561 113.551,126.293 109.779 C 125.684 109.240,125.043 108.800,124.869 108.800 C 124.694 108.800,124.202 108.480,123.775 108.089 C 122.339 106.771,112.311 101.200,111.375 101.200 C 111.059 101.200,110.800 101.020,110.800 100.800 C 110.800 100.580,110.566 100.400,110.280 100.400 C 108.102 100.400,106.721 98.099,108.369 97.217 C 108.792 96.990,109.377 96.579,109.669 96.303 C 109.961 96.026,110.834 95.327,111.608 94.750 C 113.628 93.243,118.851 88.047,120.001 86.400 C 120.538 85.630,121.298 84.651,121.689 84.225 C 122.080 83.798,122.400 83.213,122.400 82.925 C 122.400 82.636,122.580 82.400,122.800 82.400 C 123.020 82.400,123.200 82.130,123.200 81.800 C 123.200 81.470,123.380 81.200,123.600 81.200 C 123.820 81.200,124.000 80.945,124.000 80.633 C 124.000 80.322,124.143 80.007,124.319 79.933 C 125.081 79.615,128.535 70.478,129.283 66.800 C 130.775 59.472,130.551 48.154,128.829 43.800 C 128.655 43.360,128.016 41.560,127.409 39.800 C 126.803 38.040,126.103 36.015,125.855 35.300 C 125.607 34.585,125.268 34.000,125.102 34.000 C 124.936 34.000,124.800 33.640,124.800 33.200 C 124.800 32.760,124.620 32.400,124.400 32.400 C 124.180 32.400,124.000 32.164,124.000 31.875 C 124.000 31.587,123.640 30.964,123.200 30.492 C 122.760 30.020,122.400 29.444,122.400 29.213 C 122.400 28.982,121.860 28.228,121.200 27.537 C 120.540 26.846,120.000 26.110,120.000 25.901 C 120.000 25.458,113.651 19.236,111.600 17.669 C 110.831 17.081,109.852 16.285,109.425 15.900 C 108.998 15.515,108.413 15.200,108.125 15.200 C 107.836 15.200,107.600 15.042,107.600 14.849 C 107.600 14.655,107.060 14.273,106.400 14.000 C 105.740 13.727,105.200 13.345,105.200 13.151 C 105.200 12.958,104.840 12.800,104.400 12.800 C 103.960 12.800,103.600 12.620,103.600 12.400 C 103.600 12.180,103.240 12.000,102.800 12.000 C 102.360 12.000,102.000 11.820,102.000 11.600 C 102.000 11.380,101.640 11.200,101.200 11.200 C 100.760 11.200,100.400 11.020,100.400 10.800 C 100.400 10.580,99.961 10.400,99.424 10.400 C 98.887 10.400,98.336 10.220,98.200 10.000 C 98.064 9.780,97.513 9.600,96.976 9.600 C 96.439 9.600,96.000 9.420,96.000 9.200 C 96.000 8.980,95.496 8.800,94.880 8.800 C 94.264 8.800,93.589 8.646,93.380 8.458 C 93.007 8.123,87.138 7.354,82.800 7.073 C 81.590 6.994,79.250 7.062,77.600 7.224 M89.000 18.800 C 89.136 19.020,89.629 19.200,90.095 19.200 C 90.996 19.200,93.339 19.865,94.495 20.449 C 94.877 20.642,95.462 20.800,95.795 20.800 C 96.128 20.800,96.400 20.980,96.400 21.200 C 96.400 21.420,96.760 21.600,97.200 21.600 C 97.640 21.600,98.000 21.780,98.000 22.000 C 98.000 22.220,98.360 22.400,98.800 22.400 C 99.240 22.400,99.600 22.580,99.600 22.800 C 99.600 23.020,99.960 23.200,100.400 23.200 C 100.840 23.200,101.200 23.380,101.200 23.600 C 101.200 23.820,101.470 24.000,101.800 24.000 C 102.130 24.000,102.400 24.180,102.400 24.400 C 102.400 24.620,102.670 24.800,103.000 24.800 C 103.330 24.800,103.600 24.941,103.600 25.114 C 103.600 25.286,104.095 25.724,104.700 26.087 C 106.172 26.971,109.524 30.221,111.004 32.200 C 111.662 33.079,112.515 34.148,112.900 34.575 C 113.285 35.002,113.600 35.587,113.600 35.875 C 113.600 36.164,113.780 36.400,114.000 36.400 C 114.220 36.400,114.400 36.760,114.400 37.200 C 114.400 37.640,114.580 38.000,114.800 38.000 C 115.020 38.000,115.200 38.360,115.200 38.800 C 115.200 39.240,115.380 39.600,115.600 39.600 C 115.820 39.600,116.000 39.960,116.000 40.400 C 116.000 40.840,116.135 41.201,116.300 41.202 C 116.465 41.203,117.015 42.598,117.522 44.302 C 118.029 46.006,118.614 47.953,118.822 48.628 C 119.335 50.295,119.315 63.481,118.800 63.800 C 118.580 63.936,118.400 64.656,118.400 65.400 C 118.400 66.144,118.220 66.864,118.000 67.000 C 117.780 67.136,117.600 67.599,117.600 68.029 C 117.600 68.459,117.439 69.123,117.242 69.505 C 117.045 69.887,116.281 71.460,115.544 73.000 C 114.807 74.540,114.068 75.860,113.902 75.933 C 113.736 76.007,113.600 76.288,113.600 76.558 C 113.600 76.828,113.280 77.398,112.889 77.825 C 112.498 78.251,111.735 79.230,111.194 80.000 C 108.543 83.769,103.638 87.757,98.814 90.065 C 96.936 90.963,95.087 91.856,94.705 92.049 C 94.323 92.242,93.659 92.400,93.229 92.400 C 92.799 92.400,92.336 92.580,92.200 92.800 C 92.064 93.020,91.344 93.200,90.600 93.200 C 89.856 93.200,89.136 93.380,89.000 93.600 C 88.667 94.139,73.733 94.139,73.400 93.600 C 73.264 93.380,72.544 93.200,71.800 93.200 C 71.056 93.200,70.336 93.020,70.200 92.800 C 70.064 92.580,69.601 92.400,69.171 92.400 C 68.741 92.400,68.077 92.244,67.695 92.054 C 67.313 91.863,65.388 90.918,63.418 89.954 C 61.448 88.989,59.432 87.795,58.937 87.300 C 58.441 86.805,57.883 86.400,57.696 86.400 C 57.194 86.400,52.775 82.051,51.396 80.200 C 50.741 79.320,50.100 78.510,49.972 78.400 C 49.845 78.290,49.304 77.390,48.770 76.400 C 48.237 75.410,47.708 74.510,47.595 74.400 C 42.934 69.862,41.790 49.918,45.736 42.008 C 46.101 41.276,46.400 40.435,46.400 40.139 C 46.400 39.842,46.580 39.600,46.800 39.600 C 47.020 39.600,47.200 39.240,47.200 38.800 C 47.200 38.360,47.380 38.000,47.600 38.000 C 47.820 38.000,48.000 37.807,48.000 37.572 C 48.000 37.065,50.409 33.459,50.877 33.267 C 51.055 33.193,51.200 32.904,51.200 32.624 C 51.200 32.089,57.354 26.000,57.895 26.000 C 58.067 26.000,58.656 25.585,59.204 25.077 C 59.752 24.570,60.785 23.896,61.500 23.580 C 62.215 23.263,62.800 22.869,62.800 22.702 C 62.800 22.536,63.160 22.400,63.600 22.400 C 64.040 22.400,64.400 22.220,64.400 22.000 C 64.400 21.780,64.760 21.600,65.200 21.600 C 65.640 21.600,66.001 21.465,66.002 21.300 C 66.003 21.135,67.398 20.585,69.102 20.077 C 70.806 19.569,72.650 19.004,73.200 18.820 C 74.662 18.331,88.699 18.313,89.000 18.800 M295.600 18.800 C 295.600 19.020,296.172 19.200,296.872 19.200 C 298.135 19.200,300.365 19.778,301.695 20.449 C 302.077 20.642,302.752 20.800,303.195 20.800 C 303.638 20.800,304.000 20.980,304.000 21.200 C 304.000 21.420,304.234 21.600,304.520 21.600 C 305.256 21.600,307.193 22.541,307.197 22.900 C 307.199 23.065,307.560 23.200,308.000 23.200 C 308.440 23.200,308.800 23.380,308.800 23.600 C 308.800 23.820,309.160 24.000,309.600 24.000 C 310.040 24.000,310.400 24.180,310.400 24.400 C 310.400 24.620,310.582 24.800,310.805 24.800 C 313.108 24.800,325.200 36.872,325.200 39.172 C 325.200 39.407,325.380 39.600,325.600 39.600 C 325.820 39.600,326.000 39.960,326.000 40.400 C 326.000 40.840,326.180 41.200,326.400 41.200 C 326.620 41.200,326.800 41.560,326.800 42.000 C 326.800 42.440,326.935 42.801,327.100 42.803 C 327.459 42.807,328.400 44.744,328.400 45.480 C 328.400 45.766,328.580 46.000,328.800 46.000 C 329.020 46.000,329.200 46.362,329.200 46.805 C 329.200 47.248,329.358 47.923,329.551 48.305 C 330.218 49.626,330.800 51.862,330.800 53.105 C 330.800 53.791,330.980 54.464,331.200 54.600 C 331.444 54.751,331.600 57.863,331.600 62.600 C 331.600 67.337,331.444 70.449,331.200 70.600 C 330.980 70.736,330.800 71.546,330.800 72.400 C 330.800 73.254,330.620 74.064,330.400 74.200 C 330.180 74.336,330.000 74.977,330.000 75.624 C 330.000 76.271,329.820 76.800,329.600 76.800 C 329.380 76.800,329.200 77.239,329.200 77.776 C 329.200 78.313,329.020 78.864,328.800 79.000 C 328.580 79.136,328.400 79.597,328.400 80.024 C 328.400 80.451,328.220 80.800,328.000 80.800 C 327.780 80.800,327.600 81.160,327.600 81.600 C 327.600 82.040,327.420 82.400,327.200 82.400 C 326.980 82.400,326.800 82.760,326.800 83.200 C 326.800 83.640,326.620 84.000,326.400 84.000 C 326.180 84.000,326.000 84.184,326.000 84.409 C 326.000 85.179,323.894 88.000,323.318 88.000 C 322.644 88.000,322.130 87.511,320.797 85.600 C 319.670 83.985,315.951 80.262,314.004 78.800 C 313.272 78.250,312.445 77.575,312.165 77.300 C 311.886 77.025,311.464 76.800,311.229 76.800 C 310.993 76.800,310.800 76.620,310.800 76.400 C 310.800 76.180,310.530 76.000,310.200 76.000 C 309.870 76.000,309.600 75.820,309.600 75.600 C 309.600 75.380,309.330 75.200,309.000 75.200 C 308.670 75.200,308.400 75.020,308.400 74.800 C 308.400 74.580,308.085 74.394,307.700 74.387 C 305.299 74.344,305.296 71.752,307.694 69.553 C 308.083 69.197,308.400 68.612,308.400 68.253 C 308.400 67.894,308.549 67.600,308.731 67.600 C 309.831 67.600,311.381 60.933,311.381 56.200 C 311.381 51.467,309.831 44.800,308.731 44.800 C 308.549 44.800,308.400 44.532,308.400 44.205 C 308.400 42.385,301.624 36.144,297.800 34.441 C 297.140 34.147,296.287 33.748,295.905 33.553 C 295.523 33.359,294.884 33.200,294.485 33.200 C 294.086 33.200,293.562 33.002,293.320 32.760 C 293.043 32.483,290.852 32.320,287.400 32.320 C 283.948 32.320,281.757 32.483,281.480 32.760 C 281.238 33.002,280.748 33.200,280.391 33.200 C 279.566 33.200,274.889 35.454,274.122 36.221 C 273.803 36.539,273.421 36.801,273.271 36.802 C 272.840 36.805,268.000 41.544,268.000 41.964 C 268.000 42.172,267.769 42.581,267.487 42.871 C 266.711 43.672,264.400 48.374,264.400 49.154 C 264.400 49.532,264.207 50.033,263.970 50.270 C 263.384 50.856,263.377 61.537,263.963 62.123 C 264.203 62.363,264.400 62.859,264.400 63.224 C 264.400 64.039,266.750 68.722,267.672 69.745 C 269.723 72.021,269.593 74.400,267.417 74.400 C 267.078 74.400,266.800 74.580,266.800 74.800 C 266.800 75.020,266.440 75.200,266.000 75.200 C 265.560 75.200,265.200 75.350,265.200 75.532 C 265.200 75.715,264.705 76.119,264.100 76.430 C 263.495 76.740,262.730 77.274,262.400 77.616 C 262.070 77.958,261.170 78.672,260.400 79.202 C 258.807 80.300,257.683 81.468,254.531 85.300 C 253.309 86.785,252.165 88.000,251.988 88.000 C 251.208 88.000,250.400 87.469,250.400 86.957 C 250.400 86.651,250.242 86.400,250.048 86.400 C 248.948 86.400,244.904 76.394,243.751 70.818 C 243.065 67.506,243.178 56.516,243.931 53.200 C 244.845 49.173,246.364 44.705,246.900 44.467 C 247.065 44.393,247.200 43.988,247.200 43.567 C 247.200 43.145,247.380 42.800,247.600 42.800 C 247.820 42.800,248.000 42.440,248.000 42.000 C 248.000 41.560,248.159 41.200,248.353 41.200 C 248.548 41.200,248.807 40.885,248.929 40.500 C 249.259 39.458,250.504 37.491,251.300 36.754 C 251.685 36.398,252.000 35.913,252.000 35.678 C 252.000 34.268,263.942 24.000,265.582 24.000 C 265.812 24.000,266.000 23.820,266.000 23.600 C 266.000 23.380,266.360 23.200,266.800 23.200 C 267.240 23.200,267.600 23.020,267.600 22.800 C 267.600 22.580,267.960 22.400,268.400 22.400 C 268.840 22.400,269.200 22.220,269.200 22.000 C 269.200 21.780,269.549 21.600,269.976 21.600 C 270.403 21.600,270.864 21.420,271.000 21.200 C 271.136 20.980,271.687 20.800,272.224 20.800 C 272.761 20.800,273.200 20.620,273.200 20.400 C 273.200 20.180,273.729 20.000,274.376 20.000 C 275.023 20.000,275.664 19.820,275.800 19.600 C 275.936 19.380,276.746 19.200,277.600 19.200 C 278.454 19.200,279.264 19.020,279.400 18.800 C 279.551 18.555,282.737 18.400,287.624 18.400 C 292.675 18.400,295.600 18.547,295.600 18.800 M292.954 44.163 C 295.283 45.192,298.252 47.909,299.147 49.827 C 299.447 50.472,299.852 51.313,300.047 51.695 C 300.809 53.192,300.459 59.884,299.513 61.904 C 296.177 69.032,284.705 71.962,279.707 66.964 C 279.406 66.664,278.940 66.279,278.669 66.109 C 277.814 65.571,275.600 62.510,275.600 61.866 C 275.600 61.526,275.420 61.136,275.200 61.000 C 274.241 60.407,274.732 52.152,275.848 50.114 C 279.226 43.947,286.636 41.369,292.954 44.163 M295.400 81.366 C 296.060 81.528,297.005 81.827,297.500 82.030 C 297.995 82.234,298.805 82.554,299.300 82.743 C 301.477 83.573,305.024 85.483,305.919 86.306 C 306.222 86.584,307.127 87.304,307.932 87.906 C 309.868 89.354,310.817 90.312,311.989 92.000 C 312.524 92.770,313.069 93.490,313.200 93.600 C 314.835 94.971,315.606 98.000,314.320 98.000 C 314.086 98.000,313.602 98.315,313.246 98.700 C 312.509 99.496,310.542 100.741,309.500 101.071 C 309.115 101.193,308.800 101.452,308.800 101.647 C 308.800 101.841,308.440 102.000,308.000 102.000 C 307.560 102.000,307.200 102.180,307.200 102.400 C 307.200 102.620,306.855 102.800,306.433 102.800 C 306.012 102.800,305.607 102.935,305.533 103.100 C 305.390 103.421,302.297 104.636,300.000 105.272 C 292.216 107.429,281.455 107.285,274.000 104.924 C 270.640 103.860,263.600 100.494,263.600 99.952 C 263.600 99.758,263.375 99.593,263.100 99.584 C 261.936 99.546,259.893 97.282,260.138 96.303 C 260.477 94.954,264.072 90.314,266.005 88.731 C 266.899 87.999,268.119 86.995,268.715 86.500 C 269.312 86.006,270.010 85.601,270.267 85.600 C 270.523 85.600,270.793 85.465,270.867 85.300 C 271.078 84.825,274.241 83.200,274.954 83.200 C 275.310 83.200,275.600 83.064,275.600 82.897 C 275.600 82.535,278.462 81.600,279.570 81.600 C 280.001 81.600,280.469 81.412,280.611 81.182 C 280.901 80.713,293.374 80.868,295.400 81.366 M83.382 108.100 C 83.524 109.255,83.805 112.540,84.007 115.400 C 84.209 118.260,84.563 123.210,84.793 126.400 C 86.721 153.108,86.837 155.896,86.082 157.478 C 85.735 158.205,85.305 158.800,85.126 158.800 C 84.947 158.800,84.800 159.160,84.800 159.600 C 84.800 160.040,84.632 160.400,84.427 160.400 C 84.222 160.400,83.947 160.738,83.816 161.151 C 82.593 165.004,80.793 164.617,77.952 159.888 L 75.601 155.977 76.009 150.488 C 76.234 147.470,76.605 142.210,76.835 138.800 C 77.795 124.560,78.773 111.074,79.047 108.300 L 79.274 106.000 81.198 106.000 L 83.123 106.000 83.382 108.100 M67.649 113.394 C 67.582 116.471,67.364 119.294,67.164 119.668 C 66.964 120.042,66.800 122.421,66.800 124.955 C 66.800 130.416,65.497 133.860,64.551 130.900 C 64.325 130.191,64.063 129.505,63.250 127.481 C 63.002 126.866,62.800 125.931,62.800 125.405 C 62.800 124.878,62.641 124.349,62.446 124.229 C 62.251 124.108,61.993 123.513,61.871 122.905 C 61.749 122.297,61.478 121.080,61.268 120.200 C 59.225 111.633,59.037 109.200,60.419 109.200 C 60.823 109.200,61.264 109.020,61.400 108.800 C 61.536 108.580,62.267 108.400,63.024 108.400 C 63.781 108.400,64.400 108.210,64.400 107.977 C 64.400 107.727,65.090 107.604,66.085 107.677 L 67.770 107.800 67.649 113.394 M98.200 108.000 C 98.336 108.220,98.889 108.400,99.429 108.400 C 99.969 108.400,100.813 108.608,101.305 108.862 C 101.797 109.116,102.470 109.454,102.800 109.613 C 103.130 109.772,103.360 110.329,103.312 110.851 C 103.118 112.942,102.732 115.042,102.402 115.800 C 102.211 116.240,101.944 117.230,101.808 118.000 C 101.673 118.770,101.461 119.987,101.337 120.704 C 101.213 121.421,100.951 122.106,100.756 122.227 C 100.560 122.348,100.400 122.966,100.400 123.600 C 100.400 124.234,100.220 124.864,100.000 125.000 C 99.780 125.136,99.600 125.777,99.600 126.424 C 99.600 127.071,99.420 127.600,99.200 127.600 C 98.980 127.600,98.800 128.140,98.800 128.800 C 98.800 129.460,98.633 130.000,98.428 130.000 C 98.223 130.000,97.998 130.391,97.928 130.869 C 97.735 132.177,96.866 132.212,96.335 130.933 C 96.077 130.310,95.713 127.280,95.527 124.200 C 95.342 121.120,95.048 116.260,94.876 113.400 C 94.703 110.540,94.626 108.065,94.705 107.900 C 94.918 107.452,97.914 107.538,98.200 108.000 M48.954 116.186 C 49.309 116.728,49.600 117.808,49.600 118.586 C 49.600 119.364,49.780 120.000,50.000 120.000 C 50.220 120.000,50.400 120.709,50.400 121.576 C 50.400 122.443,50.580 123.264,50.800 123.400 C 51.020 123.536,51.200 124.166,51.200 124.800 C 51.200 125.434,51.380 126.064,51.600 126.200 C 51.820 126.336,52.000 126.966,52.000 127.600 C 52.000 128.234,52.180 128.864,52.400 129.000 C 52.620 129.136,52.800 129.676,52.800 130.200 C 52.800 130.724,52.980 131.264,53.200 131.400 C 53.420 131.536,53.600 132.076,53.600 132.600 C 53.600 133.124,53.759 133.651,53.954 133.771 C 54.149 133.892,54.395 134.487,54.503 135.095 C 54.610 135.703,55.184 137.460,55.778 139.000 C 56.372 140.540,57.006 142.273,57.187 142.851 C 57.535 143.964,58.620 146.532,59.234 147.695 C 59.435 148.077,59.600 148.662,59.600 148.995 C 59.600 149.328,59.780 149.600,60.000 149.600 C 60.220 149.600,60.400 149.960,60.400 150.400 C 60.400 150.840,60.580 151.200,60.800 151.200 C 61.020 151.200,61.200 151.560,61.200 152.000 C 61.200 152.440,61.380 152.800,61.600 152.800 C 61.820 152.800,62.000 153.160,62.000 153.600 C 62.000 154.040,62.180 154.400,62.400 154.400 C 62.620 154.400,62.800 154.760,62.800 155.200 C 62.800 155.640,62.980 156.000,63.200 156.000 C 63.420 156.000,63.600 156.360,63.600 156.800 C 63.600 157.240,63.759 157.600,63.953 157.600 C 64.148 157.600,64.410 157.915,64.536 158.300 C 64.662 158.685,65.317 159.900,65.991 161.000 C 66.666 162.100,67.334 163.270,67.476 163.600 C 67.618 163.930,68.244 164.952,68.867 165.872 C 69.490 166.792,70.000 167.654,70.000 167.789 C 70.000 167.924,70.188 168.251,70.417 168.517 C 70.647 168.783,71.449 169.990,72.200 171.200 C 72.951 172.410,73.753 173.617,73.983 173.883 C 74.212 174.149,74.400 174.520,74.400 174.708 C 74.400 174.895,74.715 175.398,75.100 175.825 C 75.485 176.251,76.055 177.095,76.368 177.700 C 76.680 178.305,77.085 178.800,77.268 178.800 C 77.450 178.800,77.600 179.070,77.600 179.400 C 77.600 179.730,77.750 180.000,77.932 180.000 C 78.115 180.000,78.520 180.495,78.832 181.100 C 79.145 181.705,79.715 182.549,80.100 182.975 C 80.485 183.402,80.800 183.987,80.800 184.275 C 80.800 185.217,81.492 184.828,82.000 183.600 C 82.273 182.940,82.655 182.400,82.849 182.400 C 83.042 182.400,83.200 182.145,83.200 181.833 C 83.200 181.522,83.347 181.207,83.528 181.133 C 83.708 181.060,84.641 179.830,85.600 178.400 C 86.559 176.970,87.492 175.740,87.672 175.667 C 87.853 175.593,88.000 175.312,88.000 175.042 C 88.000 174.772,88.315 174.202,88.700 173.775 C 89.085 173.349,89.655 172.505,89.968 171.900 C 90.280 171.295,90.685 170.800,90.868 170.800 C 91.050 170.800,91.200 170.455,91.200 170.033 C 91.200 169.612,91.341 169.207,91.513 169.133 C 91.912 168.963,97.200 160.136,97.200 159.639 C 97.200 159.434,97.338 159.207,97.506 159.133 C 97.915 158.955,102.806 149.137,102.802 148.500 C 102.801 148.225,102.980 148.000,103.200 148.000 C 103.420 148.000,103.600 147.651,103.600 147.224 C 103.600 146.797,103.780 146.336,104.000 146.200 C 104.220 146.064,104.400 145.603,104.400 145.176 C 104.400 144.749,104.580 144.400,104.800 144.400 C 105.020 144.400,105.200 144.051,105.200 143.624 C 105.200 143.197,105.380 142.736,105.600 142.600 C 105.820 142.464,106.000 141.913,106.000 141.376 C 106.000 140.839,106.147 140.400,106.328 140.400 C 106.508 140.400,106.900 139.500,107.200 138.400 C 107.500 137.300,107.892 136.400,108.072 136.400 C 108.253 136.400,108.400 135.948,108.400 135.395 C 108.400 134.842,108.565 134.077,108.767 133.695 C 108.969 133.313,109.616 131.200,110.206 129.000 C 110.795 126.800,111.440 124.687,111.639 124.305 C 111.838 123.923,112.000 123.216,112.000 122.734 C 112.000 122.251,112.169 121.304,112.376 120.628 C 112.583 119.953,113.007 118.509,113.318 117.419 C 114.039 114.896,114.169 114.872,117.065 116.744 C 120.291 118.829,120.615 119.108,125.755 124.230 C 130.342 128.801,130.735 129.237,132.395 131.600 C 132.936 132.370,133.698 133.349,134.089 133.775 C 134.480 134.202,134.800 134.772,134.800 135.042 C 134.800 135.312,134.939 135.593,135.109 135.667 C 136.495 136.264,138.972 143.200,137.800 143.200 C 137.470 143.200,137.200 143.341,137.200 143.514 C 137.200 143.686,136.667 144.143,136.015 144.528 C 135.363 144.913,134.598 145.453,134.315 145.727 C 134.032 146.002,133.175 146.666,132.412 147.203 C 131.648 147.741,129.788 149.401,128.278 150.893 C 124.744 154.385,124.800 154.470,124.800 145.576 L 124.800 138.000 119.047 138.000 C 112.006 138.000,112.812 135.585,112.805 156.700 C 112.802 167.696,112.660 173.600,112.400 173.600 C 112.180 173.600,112.000 173.949,112.000 174.376 C 112.000 174.803,111.820 175.264,111.600 175.400 C 111.380 175.536,111.200 176.087,111.200 176.624 C 111.200 177.161,111.020 177.600,110.800 177.600 C 110.580 177.600,110.400 178.140,110.400 178.800 C 110.400 179.460,110.220 180.000,110.000 180.000 C 109.780 180.000,109.600 180.529,109.600 181.176 C 109.600 181.823,109.420 182.464,109.200 182.600 C 108.980 182.736,108.800 183.379,108.800 184.029 C 108.800 184.679,108.636 185.523,108.436 185.905 C 106.848 188.940,106.848 211.060,108.436 214.095 C 108.636 214.477,108.800 215.321,108.800 215.971 C 108.800 216.621,108.980 217.264,109.200 217.400 C 109.420 217.536,109.600 218.177,109.600 218.824 C 109.600 219.471,109.780 220.000,110.000 220.000 C 110.220 220.000,110.400 220.540,110.400 221.200 C 110.400 221.860,110.580 222.400,110.800 222.400 C 111.020 222.400,111.200 222.839,111.200 223.376 C 111.200 223.913,111.380 224.464,111.600 224.600 C 111.820 224.736,112.000 225.197,112.000 225.624 C 112.000 226.051,112.180 226.400,112.400 226.400 C 112.954 226.400,112.954 373.057,112.400 373.400 C 112.180 373.536,112.000 373.997,112.000 374.424 C 112.000 374.851,111.862 375.200,111.694 375.200 C 111.526 375.200,110.960 375.894,110.436 376.742 C 109.912 377.590,108.790 378.712,107.942 379.236 C 107.094 379.760,106.400 380.326,106.400 380.494 C 106.400 380.662,106.051 380.800,105.624 380.800 C 105.197 380.800,104.736 380.980,104.600 381.200 C 104.460 381.427,102.470 381.600,100.000 381.600 C 97.530 381.600,95.540 381.427,95.400 381.200 C 95.264 380.980,94.803 380.800,94.376 380.800 C 93.949 380.800,93.600 380.662,93.600 380.494 C 93.600 380.326,92.906 379.760,92.058 379.236 C 91.210 378.712,90.088 377.590,89.564 376.742 C 89.040 375.894,88.474 375.200,88.306 375.200 C 88.138 375.200,88.000 374.851,88.000 374.424 C 88.000 373.997,87.820 373.536,87.600 373.400 C 87.090 373.085,87.044 247.896,87.553 246.895 C 87.748 246.513,88.145 245.691,88.437 245.070 C 88.729 244.448,90.717 242.114,92.855 239.883 C 95.192 237.443,96.634 235.634,96.471 235.345 C 96.322 235.080,94.692 233.294,92.848 231.376 L 89.496 227.888 85.239 232.178 C 82.898 234.538,80.570 237.098,80.066 237.868 C 78.519 240.227,77.600 241.996,77.600 242.612 C 77.600 242.935,77.420 243.200,77.200 243.200 C 76.980 243.200,76.800 243.740,76.800 244.400 C 76.800 245.060,76.620 245.600,76.400 245.600 C 76.172 245.600,76.000 246.792,76.000 248.376 C 76.000 249.903,75.820 251.264,75.600 251.400 C 75.336 251.563,75.200 272.330,75.200 312.400 C 75.200 352.470,75.064 373.237,74.800 373.400 C 74.580 373.536,74.400 373.914,74.400 374.240 C 74.400 375.159,71.306 379.200,70.601 379.200 C 70.472 379.200,69.980 379.560,69.508 380.000 C 69.036 380.440,68.334 380.800,67.948 380.800 C 67.563 380.800,67.136 380.980,67.000 381.200 C 66.641 381.780,59.122 381.699,57.731 381.100 C 54.118 379.544,51.656 377.082,50.100 373.469 C 49.704 372.549,49.600 347.992,49.600 255.154 L 49.600 138.000 43.800 138.000 L 38.000 138.000 38.000 191.000 L 38.000 244.000 32.424 244.000 C 29.137 244.000,26.746 243.836,26.600 243.600 C 26.464 243.380,26.003 243.200,25.576 243.200 C 25.149 243.200,24.800 243.050,24.800 242.868 C 24.800 242.685,24.305 242.281,23.700 241.969 C 22.325 241.262,20.286 239.126,19.615 237.689 C 19.336 237.090,18.948 236.287,18.753 235.905 C 18.246 234.908,18.292 159.314,18.800 159.000 C 19.020 158.864,19.200 158.101,19.200 157.305 C 19.200 156.508,19.368 155.304,19.573 154.628 C 19.778 153.953,20.156 152.590,20.412 151.600 C 20.668 150.610,21.040 149.487,21.239 149.105 C 21.438 148.723,21.600 148.136,21.600 147.800 C 21.600 147.464,21.780 146.832,22.000 146.395 C 22.220 145.958,22.580 145.242,22.800 144.805 C 23.020 144.368,23.200 143.738,23.200 143.405 C 23.200 143.072,23.380 142.800,23.600 142.800 C 23.820 142.800,24.000 142.440,24.000 142.000 C 24.000 141.560,24.180 141.200,24.400 141.200 C 24.620 141.200,24.800 140.840,24.800 140.400 C 24.800 139.960,24.980 139.600,25.200 139.600 C 25.420 139.600,25.600 139.251,25.600 138.824 C 25.600 138.397,25.783 137.934,26.006 137.796 C 26.229 137.659,26.794 136.793,27.262 135.873 C 29.237 131.988,40.592 119.200,42.066 119.200 C 42.308 119.200,42.797 118.875,43.153 118.477 C 45.543 115.804,48.054 114.813,48.954 116.186 M184.600 143.804 C 186.360 144.128,188.520 144.585,189.400 144.819 C 190.280 145.053,191.564 145.391,192.253 145.570 C 192.942 145.748,194.095 146.188,194.815 146.547 C 195.534 146.906,196.287 147.200,196.487 147.200 C 197.113 147.200,202.121 149.690,203.872 150.872 C 204.792 151.492,205.737 152.000,205.972 152.000 C 206.207 152.000,206.400 152.150,206.400 152.332 C 206.400 152.515,206.895 152.919,207.500 153.230 C 208.105 153.540,208.870 154.074,209.200 154.416 C 209.530 154.758,210.430 155.478,211.200 156.015 C 215.180 158.792,222.299 167.223,224.107 171.300 C 224.376 171.905,224.731 172.400,224.898 172.400 C 225.064 172.400,225.200 172.760,225.200 173.200 C 225.200 173.640,225.380 174.000,225.600 174.000 C 225.820 174.000,226.000 174.360,226.000 174.800 C 226.000 175.240,226.180 175.600,226.400 175.600 C 226.620 175.600,226.800 175.960,226.800 176.400 C 226.800 176.840,226.980 177.200,227.200 177.200 C 227.420 177.200,227.600 177.650,227.600 178.200 C 227.600 178.750,227.780 179.200,228.000 179.200 C 228.220 179.200,228.400 179.639,228.400 180.176 C 228.400 180.713,228.580 181.264,228.800 181.400 C 229.020 181.536,229.200 182.076,229.200 182.600 C 229.200 183.124,229.380 183.664,229.600 183.800 C 229.820 183.936,230.000 184.566,230.000 185.200 C 230.000 185.834,230.180 186.464,230.400 186.600 C 230.620 186.736,230.800 187.636,230.800 188.600 C 230.800 189.564,230.980 190.464,231.200 190.600 C 231.448 190.753,231.600 194.330,231.600 200.000 C 231.600 205.670,231.448 209.247,231.200 209.400 C 230.980 209.536,230.800 210.436,230.800 211.400 C 230.800 212.364,230.620 213.264,230.400 213.400 C 230.180 213.536,230.000 214.166,230.000 214.800 C 230.000 215.434,229.820 216.064,229.600 216.200 C 229.380 216.336,229.200 216.876,229.200 217.400 C 229.200 217.924,229.020 218.464,228.800 218.600 C 228.580 218.736,228.400 219.287,228.400 219.824 C 228.400 220.361,228.220 220.800,228.000 220.800 C 227.780 220.800,227.600 221.250,227.600 221.800 C 227.600 222.350,227.420 222.800,227.200 222.800 C 226.980 222.800,226.800 223.160,226.800 223.600 C 226.800 224.040,226.620 224.400,226.400 224.400 C 226.180 224.400,226.000 224.760,226.000 225.200 C 226.000 225.640,225.820 226.000,225.600 226.000 C 225.380 226.000,225.200 226.360,225.200 226.800 C 225.200 227.240,225.064 227.600,224.898 227.600 C 224.731 227.600,224.376 228.095,224.107 228.700 C 222.299 232.777,215.180 241.208,211.200 243.985 C 210.430 244.522,209.530 245.242,209.200 245.584 C 208.870 245.926,208.105 246.460,207.500 246.770 C 206.895 247.081,206.400 247.485,206.400 247.668 C 206.400 247.850,206.207 248.000,205.972 248.000 C 205.737 248.000,204.792 248.508,203.872 249.128 C 201.798 250.528,197.066 252.800,196.225 252.800 C 195.881 252.800,195.600 252.959,195.600 253.153 C 195.600 253.348,195.195 253.605,194.700 253.726 C 194.205 253.846,193.080 254.147,192.200 254.395 C 188.558 255.420,187.655 255.634,184.600 256.196 C 180.358 256.977,169.642 256.977,165.400 256.196 C 162.335 255.632,160.663 255.236,157.600 254.350 C 156.830 254.127,155.795 253.846,155.300 253.726 C 154.805 253.605,154.400 253.348,154.400 253.153 C 154.400 252.959,154.119 252.800,153.775 252.800 C 152.934 252.800,148.202 250.528,146.128 249.128 C 145.208 248.508,144.263 248.000,144.028 248.000 C 143.793 248.000,143.600 247.850,143.600 247.668 C 143.600 247.485,143.105 247.081,142.500 246.770 C 141.895 246.460,141.130 245.926,140.800 245.584 C 140.470 245.242,139.570 244.526,138.800 243.993 C 135.384 241.628,128.638 233.817,126.369 229.600 C 125.836 228.610,125.265 227.740,125.100 227.667 C 124.935 227.593,124.800 227.188,124.800 226.767 C 124.800 226.345,124.620 226.000,124.400 226.000 C 124.180 226.000,124.000 225.640,124.000 225.200 C 124.000 224.760,123.820 224.400,123.600 224.400 C 123.380 224.400,123.200 224.040,123.200 223.600 C 123.200 223.160,123.020 222.800,122.800 222.800 C 122.580 222.800,122.400 222.476,122.400 222.080 C 122.400 221.684,122.251 221.189,122.070 220.980 C 121.888 220.771,121.510 219.790,121.231 218.800 C 120.951 217.810,120.560 216.687,120.361 216.305 C 120.162 215.923,120.000 215.169,120.000 214.629 C 120.000 214.089,119.820 213.536,119.600 213.400 C 119.380 213.264,119.200 212.364,119.200 211.400 C 119.200 210.436,119.020 209.536,118.800 209.400 C 118.552 209.247,118.400 205.670,118.400 200.000 C 118.400 194.330,118.552 190.753,118.800 190.600 C 119.020 190.464,119.200 189.564,119.200 188.600 C 119.200 187.636,119.380 186.736,119.600 186.600 C 119.820 186.464,120.000 185.971,120.000 185.505 C 120.000 184.376,121.074 181.017,122.047 179.105 C 122.241 178.723,122.400 178.138,122.400 177.805 C 122.400 177.472,122.580 177.200,122.800 177.200 C 123.020 177.200,123.200 176.840,123.200 176.400 C 123.200 175.960,123.380 175.600,123.600 175.600 C 123.820 175.600,124.000 175.240,124.000 174.800 C 124.000 174.360,124.180 174.000,124.400 174.000 C 124.620 174.000,124.800 173.640,124.800 173.200 C 124.800 172.760,124.980 172.400,125.200 172.400 C 125.420 172.400,125.600 172.137,125.600 171.815 C 125.600 171.167,129.290 165.602,131.065 163.574 C 133.394 160.913,137.446 156.951,138.800 156.010 C 139.570 155.476,140.470 154.758,140.800 154.416 C 141.130 154.074,141.895 153.540,142.500 153.230 C 143.105 152.919,143.600 152.515,143.600 152.332 C 143.600 152.150,143.793 152.000,144.028 152.000 C 144.263 152.000,145.208 151.492,146.128 150.872 C 147.879 149.690,152.887 147.200,153.513 147.200 C 153.713 147.200,154.466 146.906,155.185 146.547 C 155.905 146.188,157.148 145.728,157.947 145.525 C 158.746 145.321,160.120 144.963,161.000 144.728 C 166.903 143.155,178.588 142.697,184.600 143.804 M345.800 156.400 C 345.936 156.620,346.519 156.800,347.095 156.800 C 348.166 156.800,350.449 157.420,351.695 158.049 C 352.077 158.242,352.628 158.400,352.920 158.400 C 353.212 158.400,354.383 158.850,355.523 159.400 C 356.663 159.950,357.677 160.400,357.777 160.400 C 358.156 160.400,362.645 163.165,363.561 163.963 C 364.090 164.423,364.662 164.800,364.833 164.800 C 365.998 164.800,375.200 175.447,375.200 176.795 C 375.200 177.018,375.346 177.200,375.525 177.200 C 375.704 177.200,376.098 177.830,376.400 178.600 C 376.702 179.370,377.096 180.000,377.275 180.000 C 377.454 180.000,377.600 180.360,377.600 180.800 C 377.600 181.240,377.780 181.600,378.000 181.600 C 378.220 181.600,378.400 181.949,378.400 182.376 C 378.400 182.803,378.580 183.264,378.800 183.400 C 379.020 183.536,379.200 184.087,379.200 184.624 C 379.200 185.161,379.360 185.600,379.556 185.600 C 379.906 185.600,380.220 186.937,380.659 190.300 C 380.781 191.235,381.042 192.000,381.240 192.000 C 381.441 192.000,381.600 195.530,381.600 200.000 C 381.600 204.470,381.441 208.000,381.240 208.000 C 381.042 208.000,380.781 208.765,380.659 209.700 C 380.220 213.063,379.906 214.400,379.556 214.400 C 379.360 214.400,379.200 214.755,379.200 215.188 C 379.200 215.621,378.840 216.617,378.400 217.400 C 377.960 218.183,377.600 219.089,377.600 219.412 C 377.600 219.735,377.454 220.000,377.275 220.000 C 377.096 220.000,376.702 220.630,376.400 221.400 C 376.098 222.170,375.748 222.800,375.623 222.800 C 375.498 222.800,375.156 223.340,374.864 224.000 C 374.136 225.645,372.908 225.553,371.400 223.739 C 369.229 221.127,364.502 216.506,363.239 215.760 C 362.558 215.357,362.000 214.886,362.000 214.714 C 362.000 214.541,361.812 214.400,361.583 214.400 C 361.354 214.400,360.780 214.040,360.308 213.600 C 359.836 213.160,359.213 212.800,358.925 212.800 C 358.636 212.800,358.400 212.620,358.400 212.400 C 358.400 212.180,358.122 212.000,357.783 212.000 C 355.525 212.000,355.302 209.534,357.373 207.463 C 357.938 206.899,358.400 206.158,358.400 205.818 C 358.400 205.478,358.559 205.200,358.753 205.200 C 358.948 205.200,359.200 204.795,359.313 204.300 C 359.427 203.805,359.919 202.410,360.407 201.200 C 362.646 195.648,361.048 184.061,357.514 180.225 C 357.121 179.798,356.800 179.298,356.800 179.114 C 356.800 177.464,347.186 170.800,344.805 170.800 C 344.450 170.800,343.954 170.594,343.702 170.342 C 343.059 169.699,332.152 169.688,331.511 170.329 C 331.252 170.588,330.712 170.800,330.311 170.800 C 327.821 170.800,318.000 177.803,318.000 179.579 C 318.000 179.779,317.765 180.181,317.478 180.471 C 317.029 180.926,316.307 182.202,314.750 185.295 C 314.557 185.677,314.400 186.316,314.400 186.715 C 314.400 187.114,314.203 187.637,313.963 187.877 C 313.377 188.463,313.384 199.144,313.970 199.730 C 314.207 199.967,314.400 200.574,314.400 201.080 C 314.400 201.586,314.580 202.000,314.800 202.000 C 315.020 202.000,315.200 202.253,315.200 202.562 C 315.200 203.284,316.798 206.375,317.672 207.345 C 319.737 209.637,319.552 211.951,317.300 211.991 C 317.025 211.996,316.800 212.180,316.800 212.400 C 316.800 212.620,316.440 212.800,316.000 212.800 C 315.560 212.800,315.200 212.950,315.200 213.132 C 315.200 213.315,314.705 213.719,314.100 214.030 C 313.495 214.340,312.730 214.874,312.400 215.216 C 312.070 215.558,311.170 216.275,310.400 216.810 C 308.558 218.090,306.237 220.511,303.600 223.906 C 301.562 226.529,299.266 224.211,295.969 216.200 C 292.241 207.139,292.250 193.484,295.990 183.800 C 296.940 181.339,300.098 175.453,300.818 174.800 C 300.939 174.690,301.478 173.970,302.016 173.200 C 303.232 171.458,308.876 165.811,311.010 164.200 C 313.001 162.697,314.318 161.927,317.600 160.343 C 319.030 159.654,320.513 158.934,320.895 158.745 C 321.277 158.555,321.952 158.400,322.395 158.400 C 322.838 158.400,323.200 158.220,323.200 158.000 C 323.200 157.780,323.729 157.600,324.376 157.600 C 325.023 157.600,325.664 157.420,325.800 157.200 C 325.936 156.980,326.746 156.800,327.600 156.800 C 328.454 156.800,329.264 156.620,329.400 156.400 C 329.551 156.155,332.730 156.000,337.600 156.000 C 342.470 156.000,345.649 156.155,345.800 156.400 M169.200 163.000 L 169.200 169.200 159.780 169.200 L 150.360 169.200 150.553 178.700 C 150.760 188.900,151.060 192.800,151.637 192.800 C 151.837 192.800,152.000 193.093,152.000 193.451 C 152.000 195.102,155.592 200.041,158.219 202.000 C 159.631 203.054,162.287 204.400,162.954 204.400 C 163.310 204.400,163.600 204.564,163.600 204.764 C 163.600 205.300,167.593 205.634,176.527 205.845 L 184.454 206.032 186.239 207.818 L 188.025 209.604 187.913 214.302 L 187.800 219.000 177.400 219.112 C 171.680 219.174,166.616 219.131,166.147 219.017 C 164.286 218.562,162.000 215.701,162.000 213.826 L 162.000 212.800 156.600 212.800 L 151.200 212.800 151.200 215.005 C 151.200 216.218,151.359 217.523,151.553 217.905 C 151.748 218.287,152.147 219.140,152.441 219.800 C 154.117 223.562,156.881 226.488,160.383 228.205 C 161.602 228.803,162.913 229.451,163.295 229.646 C 163.677 229.841,164.487 230.001,165.095 230.002 C 165.703 230.003,166.875 230.192,167.700 230.421 L 169.200 230.838 169.200 237.019 L 169.200 243.200 175.000 243.200 L 180.800 243.200 180.800 237.000 L 180.800 230.800 190.220 230.800 L 199.640 230.800 199.447 221.300 C 199.240 211.100,198.940 207.200,198.363 207.200 C 198.163 207.200,198.000 206.907,198.000 206.549 C 198.000 203.381,190.156 195.600,186.962 195.600 C 186.653 195.600,186.400 195.436,186.400 195.236 C 186.400 194.700,182.408 194.366,173.482 194.155 L 165.564 193.968 163.769 192.148 L 161.975 190.328 162.088 185.664 L 162.200 181.000 173.215 180.894 L 184.230 180.788 185.651 182.094 C 187.347 183.653,188.000 184.788,188.000 186.174 L 188.000 187.200 193.400 187.200 L 198.800 187.200 198.800 184.995 C 198.800 183.782,198.641 182.477,198.447 182.095 C 198.252 181.713,197.853 180.860,197.559 180.200 C 195.883 176.438,193.119 173.512,189.617 171.795 C 188.398 171.197,187.087 170.549,186.705 170.354 C 186.323 170.159,185.405 170.000,184.665 170.000 C 183.925 170.000,182.753 169.802,182.060 169.561 L 180.800 169.122 180.800 162.961 L 180.800 156.800 175.000 156.800 L 169.200 156.800 169.200 163.000 M343.104 181.687 C 347.930 183.946,350.400 188.046,350.400 193.801 C 350.400 195.896,350.241 197.923,350.047 198.305 C 349.852 198.687,349.449 199.518,349.151 200.152 C 348.649 201.220,346.640 203.453,345.012 204.754 C 342.037 207.130,335.582 207.526,331.671 205.572 C 329.154 204.314,325.600 200.749,325.600 199.480 C 325.600 199.132,325.420 198.736,325.200 198.600 C 324.971 198.459,324.800 196.404,324.800 193.800 C 324.800 191.196,324.971 189.141,325.200 189.000 C 325.420 188.864,325.600 188.486,325.600 188.160 C 325.600 186.671,328.523 183.521,331.312 182.005 C 334.171 180.450,340.119 180.290,343.104 181.687 M344.600 218.800 C 344.736 219.020,345.366 219.200,346.000 219.200 C 346.634 219.200,347.264 219.380,347.400 219.600 C 347.536 219.820,348.087 220.000,348.624 220.000 C 349.161 220.000,349.600 220.180,349.600 220.400 C 349.600 220.620,349.853 220.800,350.162 220.800 C 350.828 220.800,354.141 222.468,354.333 222.900 C 354.407 223.065,354.722 223.200,355.033 223.200 C 355.345 223.200,355.600 223.341,355.600 223.514 C 355.600 223.686,356.153 224.154,356.830 224.554 C 358.971 225.819,363.636 230.912,364.692 233.137 L 365.337 234.497 363.773 235.848 C 362.913 236.592,361.982 237.200,361.704 237.200 C 361.427 237.200,361.200 237.335,361.200 237.501 C 361.200 238.037,353.854 241.600,352.749 241.600 C 352.363 241.600,351.936 241.780,351.800 242.000 C 351.664 242.220,351.124 242.400,350.600 242.400 C 350.076 242.400,349.536 242.580,349.400 242.800 C 349.264 243.020,348.454 243.200,347.600 243.200 C 346.746 243.200,345.936 243.380,345.800 243.600 C 345.649 243.845,342.470 244.000,337.600 244.000 C 332.730 244.000,329.551 243.845,329.400 243.600 C 329.264 243.380,328.353 243.200,327.376 243.200 C 326.399 243.200,325.600 243.020,325.600 242.800 C 325.600 242.580,325.060 242.400,324.400 242.400 C 323.740 242.400,323.200 242.220,323.200 242.000 C 323.200 241.780,322.822 241.600,322.359 241.600 C 321.065 241.600,313.580 237.884,312.081 236.497 C 311.782 236.221,311.192 235.810,310.769 235.583 C 309.718 235.021,309.804 233.894,311.050 231.920 C 312.764 229.205,319.089 223.226,320.267 223.207 C 320.523 223.203,320.793 223.055,320.867 222.879 C 320.940 222.702,322.260 221.961,323.800 221.232 C 325.340 220.504,326.913 219.748,327.295 219.554 C 327.677 219.359,328.431 219.200,328.971 219.200 C 329.511 219.200,330.064 219.020,330.200 218.800 C 330.349 218.558,333.196 218.400,337.400 218.400 C 341.604 218.400,344.451 218.558,344.600 218.800 M295.269 293.632 C 299.150 294.419,303.180 295.579,303.780 296.082 C 303.989 296.257,304.484 296.400,304.880 296.400 C 305.276 296.400,305.600 296.580,305.600 296.800 C 305.600 297.020,305.960 297.200,306.400 297.200 C 306.840 297.200,307.200 297.380,307.200 297.600 C 307.200 297.820,307.545 298.000,307.967 298.000 C 308.388 298.000,308.793 298.135,308.867 298.300 C 308.940 298.465,309.810 299.037,310.800 299.572 C 311.790 300.106,312.891 300.871,313.247 301.272 C 313.603 301.672,314.087 302.000,314.322 302.000 C 315.732 302.000,326.000 313.942,326.000 315.582 C 326.000 315.812,326.180 316.000,326.400 316.000 C 326.620 316.000,326.800 316.360,326.800 316.800 C 326.800 317.240,326.980 317.600,327.200 317.600 C 327.420 317.600,327.600 317.960,327.600 318.400 C 327.600 318.840,327.780 319.200,328.000 319.200 C 328.220 319.200,328.400 319.549,328.400 319.976 C 328.400 320.403,328.580 320.864,328.800 321.000 C 329.020 321.136,329.200 321.687,329.200 322.224 C 329.200 322.761,329.380 323.200,329.600 323.200 C 329.820 323.200,330.000 323.729,330.000 324.376 C 330.000 325.023,330.180 325.664,330.400 325.800 C 330.620 325.936,330.800 326.746,330.800 327.600 C 330.800 328.454,330.980 329.264,331.200 329.400 C 331.445 329.551,331.600 332.737,331.600 337.624 C 331.600 342.675,331.453 345.600,331.200 345.600 C 330.980 345.600,330.800 346.172,330.800 346.872 C 330.800 348.135,330.222 350.365,329.551 351.695 C 329.358 352.077,329.200 352.752,329.200 353.195 C 329.200 353.638,329.020 354.000,328.800 354.000 C 328.580 354.000,328.400 354.253,328.400 354.562 C 328.400 355.228,326.732 358.541,326.300 358.733 C 326.135 358.807,326.000 359.212,326.000 359.633 C 326.000 360.055,325.842 360.400,325.649 360.400 C 325.455 360.400,325.073 360.940,324.800 361.600 C 324.483 362.366,324.014 362.800,323.505 362.800 C 322.733 362.800,320.000 360.213,320.000 359.483 C 320.000 358.562,310.048 350.426,308.900 350.408 C 308.625 350.404,308.400 350.220,308.400 350.000 C 308.400 349.780,308.122 349.600,307.783 349.600 C 306.226 349.600,305.474 348.185,306.209 346.637 C 306.584 345.846,307.032 345.200,307.204 345.200 C 307.578 345.200,309.696 340.890,310.667 338.152 C 311.616 335.474,311.625 327.018,310.681 324.321 C 309.710 321.545,308.325 318.705,307.514 317.825 C 307.121 317.398,306.800 316.893,306.800 316.702 C 306.800 316.253,302.064 311.600,301.606 311.600 C 301.414 311.600,301.019 311.373,300.729 311.095 C 299.679 310.093,294.949 308.036,292.667 307.587 C 288.611 306.791,279.200 307.420,279.200 308.487 C 279.200 308.659,278.947 308.800,278.638 308.800 C 278.002 308.800,275.020 310.292,273.840 311.200 C 270.021 314.139,265.200 320.284,265.200 322.212 C 265.200 322.535,265.020 322.800,264.800 322.800 C 264.580 322.800,264.400 323.325,264.400 323.967 C 264.400 324.608,264.205 325.198,263.968 325.277 C 263.372 325.476,263.372 336.924,263.968 337.123 C 264.205 337.202,264.400 337.792,264.400 338.433 C 264.400 339.075,264.580 339.600,264.800 339.600 C 265.020 339.600,265.200 339.834,265.200 340.120 C 265.200 340.856,266.141 342.793,266.500 342.797 C 266.665 342.799,266.800 343.029,266.800 343.309 C 266.800 343.589,267.339 344.472,267.998 345.271 C 269.859 347.529,269.753 348.293,267.404 349.540 C 266.306 350.123,265.057 350.915,264.628 351.300 C 264.200 351.685,263.628 352.000,263.358 352.000 C 263.088 352.000,262.807 352.136,262.733 352.303 C 262.660 352.470,261.790 353.226,260.800 353.984 C 258.454 355.781,255.596 358.641,254.388 360.400 C 253.020 362.392,252.560 362.800,251.682 362.800 C 250.944 362.800,248.800 360.128,248.800 359.209 C 248.800 358.984,248.620 358.800,248.400 358.800 C 248.180 358.800,248.000 358.440,248.000 358.000 C 248.000 357.560,247.820 357.200,247.600 357.200 C 247.380 357.200,247.200 356.876,247.200 356.480 C 247.200 356.084,247.048 355.589,246.862 355.380 C 246.677 355.171,246.158 354.010,245.709 352.800 C 240.609 339.042,243.217 321.517,251.982 310.652 C 252.785 309.656,259.656 302.785,260.652 301.982 C 269.142 295.133,284.455 291.439,295.269 293.632 M292.269 318.900 C 294.783 319.983,297.129 321.810,298.238 323.548 C 298.877 324.550,299.625 325.893,299.900 326.531 C 300.499 327.922,300.580 335.441,300.000 335.800 C 299.780 335.936,299.600 336.397,299.600 336.824 C 299.600 337.251,299.420 337.600,299.200 337.600 C 298.980 337.600,298.800 337.870,298.800 338.200 C 298.800 338.530,298.650 338.800,298.468 338.800 C 298.285 338.800,297.913 339.215,297.642 339.721 C 297.371 340.228,296.440 341.081,295.575 341.616 C 294.709 342.151,294.000 342.726,294.000 342.894 C 294.000 343.062,293.651 343.200,293.224 343.200 C 292.797 343.200,292.336 343.380,292.200 343.600 C 291.677 344.446,283.752 344.076,281.696 343.110 C 279.276 341.973,276.827 339.524,275.690 337.104 C 274.741 335.082,274.383 328.010,275.153 326.495 C 275.348 326.113,275.753 325.275,276.053 324.634 C 276.757 323.133,279.534 320.357,281.034 319.654 C 281.675 319.353,282.470 318.959,282.800 318.777 C 283.761 318.249,290.974 318.342,292.269 318.900 M294.600 356.400 C 294.736 356.620,295.199 356.800,295.630 356.800 C 296.738 356.800,299.600 357.735,299.600 358.097 C 299.600 358.264,299.900 358.400,300.267 358.400 C 303.196 358.400,314.356 367.802,314.393 370.300 C 314.397 370.575,314.593 370.800,314.828 370.800 C 315.931 370.800,314.834 372.637,313.000 373.862 C 311.900 374.597,310.783 375.379,310.517 375.599 C 310.251 375.820,309.756 376.000,309.417 376.000 C 309.078 376.000,308.800 376.180,308.800 376.400 C 308.800 376.620,308.440 376.800,308.000 376.800 C 307.560 376.800,307.200 376.936,307.200 377.102 C 307.200 377.269,306.615 377.644,305.900 377.936 C 303.150 379.059,302.578 379.304,301.905 379.647 C 301.523 379.841,300.859 380.000,300.429 380.000 C 299.999 380.000,299.536 380.180,299.400 380.400 C 299.264 380.620,298.353 380.800,297.376 380.800 C 296.399 380.800,295.600 380.980,295.600 381.200 C 295.600 381.453,292.675 381.600,287.624 381.600 C 282.737 381.600,279.551 381.445,279.400 381.200 C 279.264 380.980,278.454 380.800,277.600 380.800 C 276.746 380.800,275.936 380.620,275.800 380.400 C 275.664 380.180,275.023 380.000,274.376 380.000 C 273.729 380.000,273.200 379.820,273.200 379.600 C 273.200 379.380,272.761 379.200,272.224 379.200 C 271.687 379.200,271.136 379.020,271.000 378.800 C 270.864 378.580,270.403 378.400,269.976 378.400 C 269.549 378.400,269.200 378.220,269.200 378.000 C 269.200 377.780,268.840 377.600,268.400 377.600 C 267.960 377.600,267.600 377.420,267.600 377.200 C 267.600 376.980,267.240 376.800,266.800 376.800 C 266.360 376.800,266.000 376.620,266.000 376.400 C 266.000 376.180,265.818 376.000,265.596 376.000 C 264.546 376.000,260.016 372.560,260.008 371.756 C 259.991 370.024,262.985 366.378,267.926 362.110 C 269.136 361.065,273.121 358.879,275.600 357.901 C 276.150 357.684,276.913 357.348,277.295 357.153 C 277.677 356.959,278.431 356.800,278.971 356.800 C 279.511 356.800,280.064 356.620,280.200 356.400 C 280.349 356.158,283.196 356.000,287.400 356.000 C 291.604 356.000,294.451 356.158,294.600 356.400 " stroke="none" fill="#000000" fill-rule="evenodd"></path></g></svg> 