<?xml version="1.0" encoding="UTF-8"?>
<svg xmlns="http://www.w3.org/2000/svg" xmlns:xlink="http://www.w3.org/1999/xlink" width="120pt" height="37pt" viewBox="0 0 120 37" version="1.1">
<g id="surface1">
<path style=" stroke:none;fill-rule:evenodd;fill:rgb(26.666667%,58.039216%,26.666667%);fill-opacity:1;" d="M 0 18.476562 L 0 36.949219 L 9.800781 36.949219 L 9.800781 21.332031 L 9.988281 21.347656 C 10.089844 21.355469 10.363281 21.371094 10.59375 21.382812 C 10.820312 21.394531 11.035156 21.425781 11.070312 21.453125 C 11.101562 21.480469 11.171875 21.503906 11.226562 21.503906 C 11.53125 21.503906 12.164062 21.558594 12.214844 21.589844 C 12.246094 21.613281 12.519531 21.636719 12.824219 21.644531 C 13.125 21.65625 13.476562 21.695312 13.601562 21.734375 C 13.722656 21.769531 14.015625 21.808594 14.25 21.8125 C 14.484375 21.816406 14.699219 21.839844 14.726562 21.859375 C 14.753906 21.882812 14.785156 21.902344 14.800781 21.902344 C 14.8125 21.902344 14.859375 21.914062 14.898438 21.929688 C 14.941406 21.941406 15.1875 21.964844 15.449219 21.976562 C 15.710938 21.992188 15.992188 22.015625 16.074219 22.035156 C 16.15625 22.054688 16.460938 22.085938 16.75 22.109375 C 17.296875 22.152344 17.390625 22.167969 17.476562 22.21875 C 17.503906 22.238281 17.726562 22.253906 17.972656 22.253906 C 18.265625 22.257812 18.433594 22.28125 18.457031 22.320312 C 18.484375 22.363281 18.71875 22.390625 19.210938 22.402344 C 19.601562 22.414062 19.9375 22.441406 19.949219 22.460938 C 20.023438 22.578125 20.238281 22.566406 20.335938 22.441406 C 20.390625 22.371094 20.449219 22.328125 20.46875 22.34375 C 20.484375 22.359375 20.476562 22.304688 20.453125 22.222656 C 20.429688 22.136719 20.308594 21.964844 20.179688 21.835938 C 20.054688 21.707031 19.949219 21.585938 19.949219 21.566406 C 19.949219 21.546875 19.847656 21.445312 19.726562 21.335938 C 19.601562 21.226562 19.5 21.109375 19.5 21.074219 C 19.5 21.042969 19.398438 20.925781 19.273438 20.816406 C 19.152344 20.707031 19.050781 20.601562 19.050781 20.578125 C 19.050781 20.558594 18.859375 20.347656 18.625 20.117188 C 18.390625 19.882812 18.199219 19.671875 18.199219 19.648438 C 18.199219 19.625 18.167969 19.601562 18.125 19.601562 C 18.082031 19.601562 18.054688 19.585938 18.0625 19.566406 C 18.070312 19.542969 18.023438 19.472656 17.960938 19.402344 C 17.582031 18.972656 17.277344 18.644531 16.9375 18.292969 C 16.722656 18.070312 16.550781 17.875 16.550781 17.855469 C 16.550781 17.835938 16.484375 17.765625 16.398438 17.699219 C 16.316406 17.628906 16.25 17.550781 16.25 17.523438 C 16.25 17.496094 16.113281 17.339844 15.949219 17.179688 C 15.785156 17.015625 15.648438 16.875 15.648438 16.867188 C 15.648438 16.855469 15.496094 16.6875 15.3125 16.492188 C 15.125 16.300781 14.875 16.023438 14.75 15.882812 C 14.625 15.738281 14.382812 15.476562 14.210938 15.296875 C 14.039062 15.117188 13.898438 14.953125 13.898438 14.929688 C 13.898438 14.910156 13.867188 14.890625 13.824219 14.890625 C 13.785156 14.890625 13.75 14.867188 13.75 14.839844 C 13.75 14.761719 13.417969 14.4375 13.378906 14.480469 C 13.359375 14.5 13.347656 14.492188 13.355469 14.464844 C 13.375 14.378906 13.292969 14.238281 13.21875 14.238281 C 13.179688 14.238281 13.148438 14.214844 13.148438 14.1875 C 13.148438 14.132812 13.113281 14.089844 12.578125 13.511719 C 12.398438 13.320312 12.25 13.140625 12.25 13.121094 C 12.25 13.097656 12.226562 13.09375 12.199219 13.109375 C 12.171875 13.128906 12.148438 13.117188 12.148438 13.085938 C 12.148438 13.054688 12.039062 12.917969 11.898438 12.78125 C 11.761719 12.640625 11.648438 12.511719 11.648438 12.488281 C 11.648438 12.417969 11.46875 12.28125 11.425781 12.320312 C 11.402344 12.339844 11.398438 12.332031 11.417969 12.300781 C 11.4375 12.265625 11.402344 12.207031 11.34375 12.164062 C 11.285156 12.125 11.210938 12.039062 11.175781 11.972656 C 11.144531 11.910156 11.089844 11.863281 11.054688 11.871094 C 11.019531 11.878906 11.003906 11.863281 11.019531 11.839844 C 11.035156 11.816406 10.941406 11.691406 10.8125 11.566406 C 10.679688 11.441406 10.472656 11.226562 10.351562 11.089844 C 10.226562 10.953125 10.109375 10.847656 10.085938 10.863281 C 10.066406 10.875 10.050781 10.851562 10.050781 10.8125 C 10.050781 10.773438 10.015625 10.726562 9.976562 10.710938 C 9.933594 10.695312 9.898438 10.648438 9.898438 10.609375 C 9.898438 10.574219 9.820312 10.480469 9.726562 10.40625 C 9.628906 10.332031 9.550781 10.242188 9.550781 10.207031 C 9.550781 10.171875 9.441406 10.039062 9.3125 9.914062 C 9.09375 9.699219 8.5 9.0625 8.113281 8.628906 C 7.914062 8.40625 7.207031 7.644531 6.886719 7.3125 C 6.757812 7.175781 6.648438 7.050781 6.648438 7.03125 C 6.648438 7.011719 6.5625 6.90625 6.457031 6.792969 C 6.171875 6.492188 5.671875 5.960938 5.527344 5.804688 C 5.460938 5.726562 5.382812 5.664062 5.351562 5.664062 C 5.324219 5.664062 5.300781 5.636719 5.300781 5.601562 C 5.300781 5.570312 5.246094 5.484375 5.175781 5.414062 C 5.109375 5.347656 4.914062 5.132812 4.738281 4.945312 C 4.566406 4.753906 4.292969 4.460938 4.136719 4.292969 C 3.976562 4.125 3.726562 3.851562 3.585938 3.6875 C 3.441406 3.523438 3.230469 3.292969 3.113281 3.175781 C 2.996094 3.058594 2.898438 2.949219 2.898438 2.929688 C 2.898438 2.914062 2.761719 2.757812 2.589844 2.589844 C 2.417969 2.417969 2.214844 2.203125 2.136719 2.105469 C 2.058594 2.007812 1.816406 1.738281 1.601562 1.503906 C 1.382812 1.269531 1.152344 1.015625 1.085938 0.941406 C 1.015625 0.867188 0.945312 0.820312 0.929688 0.839844 C 0.914062 0.855469 0.898438 0.835938 0.898438 0.792969 C 0.898438 0.753906 0.804688 0.628906 0.6875 0.515625 C 0.570312 0.40625 0.421875 0.246094 0.355469 0.160156 C 0.28125 0.0585938 0.191406 0 0.117188 0 L 0 0 L 0 18.476562 "/>
<path style=" stroke:none;fill-rule:evenodd;fill:rgb(17.254902%,17.254902%,17.254902%);fill-opacity:1;" d="M 36.242188 0.195312 C 36.121094 0.304688 35.917969 0.46875 35.789062 0.558594 C 35.597656 0.699219 35.394531 0.855469 34.675781 1.414062 C 34.511719 1.542969 34.105469 1.863281 34 1.949219 C 33.78125 2.128906 33.265625 2.527344 33.148438 2.605469 C 33.089844 2.648438 32.941406 2.765625 32.824219 2.871094 C 32.707031 2.976562 32.523438 3.117188 32.417969 3.191406 C 32.3125 3.261719 32.214844 3.335938 32.199219 3.355469 C 32.1875 3.375 32.035156 3.496094 31.867188 3.625 C 31.695312 3.753906 31.527344 3.890625 31.492188 3.925781 C 31.453125 3.960938 31.234375 4.132812 31.003906 4.3125 C 30.769531 4.488281 30.539062 4.671875 30.492188 4.722656 C 30.441406 4.773438 30.382812 4.8125 30.363281 4.8125 C 30.339844 4.8125 30.269531 4.863281 30.199219 4.929688 C 30.132812 4.992188 29.941406 5.140625 29.78125 5.261719 C 29.621094 5.378906 29.445312 5.519531 29.398438 5.566406 C 29.347656 5.617188 29.242188 5.699219 29.164062 5.75 C 28.992188 5.859375 28.933594 5.90625 28.761719 6.066406 C 28.6875 6.136719 28.53125 6.253906 28.421875 6.332031 C 28.308594 6.40625 28.171875 6.507812 28.121094 6.558594 C 28.066406 6.605469 27.878906 6.753906 27.699219 6.890625 C 27.519531 7.023438 27.351562 7.160156 27.324219 7.195312 C 27.296875 7.226562 27.152344 7.339844 27 7.445312 C 26.847656 7.550781 26.675781 7.6875 26.613281 7.753906 C 26.554688 7.820312 26.488281 7.871094 26.472656 7.871094 C 26.433594 7.871094 26.050781 8.160156 25.976562 8.246094 C 25.949219 8.273438 25.644531 8.511719 25.300781 8.773438 C 24.957031 9.03125 24.652344 9.269531 24.625 9.300781 C 24.597656 9.332031 24.429688 9.46875 24.25 9.605469 C 24.070312 9.738281 23.894531 9.878906 23.855469 9.917969 C 23.816406 9.953125 23.703125 10.039062 23.605469 10.101562 C 23.507812 10.164062 23.355469 10.28125 23.273438 10.359375 C 23.1875 10.4375 23.023438 10.570312 22.910156 10.648438 C 22.792969 10.726562 22.617188 10.871094 22.519531 10.960938 C 22.421875 11.054688 22.332031 11.128906 22.316406 11.128906 C 22.285156 11.128906 21.898438 11.421875 21.824219 11.503906 C 21.796875 11.53125 21.683594 11.617188 21.574219 11.691406 C 21.464844 11.765625 21.296875 11.898438 21.199219 11.992188 C 21.101562 12.082031 20.929688 12.21875 20.824219 12.289062 C 20.714844 12.363281 20.535156 12.503906 20.425781 12.601562 C 20.316406 12.703125 20.207031 12.785156 20.1875 12.785156 C 20.167969 12.785156 20.109375 12.824219 20.0625 12.871094 C 20.011719 12.921875 19.898438 13.015625 19.808594 13.085938 C 19.71875 13.152344 19.597656 13.25 19.539062 13.296875 C 19.480469 13.347656 19.421875 13.386719 19.402344 13.386719 C 19.386719 13.386719 19.277344 13.476562 19.160156 13.585938 C 19.046875 13.695312 18.9375 13.789062 18.917969 13.789062 C 18.886719 13.789062 18.496094 14.09375 18.355469 14.226562 C 18.316406 14.265625 18.226562 14.332031 18.15625 14.378906 C 18.03125 14.460938 17.980469 14.5 17.601562 14.835938 C 17.503906 14.917969 17.410156 14.988281 17.390625 14.988281 C 17.371094 14.988281 17.328125 15.019531 17.292969 15.054688 C 17.253906 15.089844 17.050781 15.25 16.839844 15.410156 C 16.183594 15.902344 16.183594 15.902344 17.355469 17.132812 C 17.503906 17.289062 17.6875 17.496094 17.765625 17.59375 C 17.84375 17.691406 18.171875 18.054688 18.496094 18.398438 C 18.820312 18.746094 19.183594 19.136719 19.304688 19.277344 C 19.722656 19.75 19.875 19.917969 20.175781 20.226562 C 20.339844 20.394531 20.621094 20.699219 20.800781 20.902344 C 20.980469 21.105469 21.207031 21.363281 21.3125 21.476562 C 21.414062 21.589844 21.496094 21.699219 21.5 21.71875 C 21.503906 21.910156 22.054688 21.84375 22.351562 21.613281 C 22.417969 21.558594 22.757812 21.3125 23.101562 21.058594 C 23.445312 20.808594 23.75 20.585938 23.777344 20.5625 C 23.804688 20.539062 23.953125 20.433594 24.101562 20.328125 C 24.253906 20.222656 24.386719 20.125 24.398438 20.105469 C 24.414062 20.085938 24.546875 19.984375 24.699219 19.878906 C 24.851562 19.773438 25.003906 19.660156 25.035156 19.632812 C 25.1875 19.496094 25.246094 19.453125 25.273438 19.453125 C 25.316406 19.453125 25.941406 18.988281 26.109375 18.832031 C 26.183594 18.765625 26.285156 18.695312 26.335938 18.679688 C 26.382812 18.664062 26.484375 18.59375 26.558594 18.527344 C 26.632812 18.457031 26.71875 18.398438 26.746094 18.398438 C 26.785156 18.398438 26.800781 21.265625 26.800781 27.675781 L 26.800781 36.949219 L 37.050781 36.949219 L 37.050781 0 L 36.753906 0 C 36.480469 0 36.445312 0.015625 36.242188 0.195312 M 4.476562 4.660156 C 4.636719 4.863281 4.699219 4.921875 4.699219 4.875 C 4.699219 4.851562 4.628906 4.765625 4.539062 4.683594 C 4.410156 4.566406 4.394531 4.5625 4.476562 4.660156 M 66.726562 4.613281 C 66.558594 4.636719 66.234375 4.679688 66 4.710938 C 65.765625 4.738281 65.542969 4.777344 65.5 4.792969 C 65.457031 4.8125 65.300781 4.855469 65.148438 4.890625 C 64.566406 5.03125 64.425781 5.070312 64.378906 5.109375 C 64.347656 5.132812 64.261719 5.164062 64.1875 5.183594 C 64.113281 5.199219 64.050781 5.238281 64.050781 5.265625 C 64.050781 5.292969 64.011719 5.316406 63.96875 5.316406 C 63.867188 5.316406 63.148438 5.667969 63.148438 5.71875 C 63.148438 5.738281 63.097656 5.769531 63.039062 5.785156 C 62.976562 5.800781 62.867188 5.863281 62.800781 5.929688 C 62.730469 5.992188 62.625 6.066406 62.5625 6.09375 C 62.339844 6.191406 61.53125 6.941406 61.226562 7.339844 C 61.140625 7.445312 61.015625 7.601562 60.945312 7.683594 C 60.875 7.765625 60.761719 7.9375 60.695312 8.066406 C 60.628906 8.191406 60.5625 8.308594 60.542969 8.324219 C 60.476562 8.375 60.148438 9.023438 60.148438 9.101562 C 60.148438 9.144531 60.117188 9.214844 60.074219 9.257812 C 60.035156 9.296875 60 9.398438 60 9.484375 C 60 9.566406 59.964844 9.667969 59.925781 9.707031 C 59.882812 9.75 59.847656 9.867188 59.847656 9.96875 C 59.847656 10.070312 59.8125 10.195312 59.773438 10.25 C 59.726562 10.3125 59.699219 10.464844 59.699219 10.675781 C 59.699219 10.886719 59.671875 11.039062 59.625 11.101562 C 59.515625 11.242188 59.519531 12.847656 59.625 13.054688 C 59.671875 13.140625 59.699219 13.332031 59.699219 13.53125 C 59.699219 13.75 59.726562 13.902344 59.773438 13.964844 C 59.8125 14.019531 59.847656 14.144531 59.847656 14.246094 C 59.847656 14.34375 59.882812 14.453125 59.925781 14.488281 C 59.964844 14.523438 60 14.613281 60 14.691406 C 60 14.769531 60.035156 14.867188 60.074219 14.910156 C 60.117188 14.949219 60.148438 15.027344 60.148438 15.082031 C 60.148438 15.136719 60.183594 15.207031 60.226562 15.242188 C 60.265625 15.277344 60.300781 15.34375 60.300781 15.390625 C 60.300781 15.441406 60.332031 15.507812 60.375 15.542969 C 60.417969 15.578125 60.449219 15.644531 60.449219 15.691406 C 60.449219 15.742188 60.484375 15.808594 60.523438 15.84375 C 60.566406 15.878906 60.601562 15.9375 60.601562 15.972656 C 60.601562 16.007812 60.667969 16.117188 60.75 16.210938 C 60.832031 16.304688 60.898438 16.398438 60.898438 16.421875 C 60.898438 16.464844 61.390625 17.0625 61.609375 17.285156 C 61.875 17.554688 62.519531 18.097656 62.574219 18.097656 C 62.59375 18.097656 62.695312 18.167969 62.800781 18.25 C 62.90625 18.332031 63.011719 18.398438 63.039062 18.398438 C 63.066406 18.398438 63.117188 18.433594 63.148438 18.476562 C 63.183594 18.515625 63.25 18.550781 63.300781 18.550781 C 63.347656 18.550781 63.414062 18.582031 63.449219 18.625 C 63.484375 18.667969 63.550781 18.699219 63.601562 18.699219 C 63.648438 18.699219 63.714844 18.734375 63.75 18.777344 C 63.785156 18.816406 63.863281 18.851562 63.925781 18.851562 C 63.988281 18.851562 64.050781 18.882812 64.066406 18.925781 C 64.085938 18.96875 64.160156 19 64.242188 19 C 64.324219 19 64.414062 19.035156 64.449219 19.078125 C 64.484375 19.117188 64.578125 19.152344 64.660156 19.152344 C 64.742188 19.152344 64.839844 19.1875 64.882812 19.226562 C 64.925781 19.269531 65.050781 19.304688 65.164062 19.304688 C 65.28125 19.304688 65.417969 19.339844 65.472656 19.378906 C 65.539062 19.429688 65.699219 19.453125 65.972656 19.453125 C 66.246094 19.457031 66.40625 19.480469 66.472656 19.53125 C 66.617188 19.636719 68.410156 19.636719 68.519531 19.527344 C 68.574219 19.472656 68.710938 19.453125 69.039062 19.453125 C 69.378906 19.453125 69.503906 19.433594 69.550781 19.378906 C 69.589844 19.328125 69.699219 19.300781 69.851562 19.300781 C 70 19.300781 70.109375 19.273438 70.148438 19.226562 C 70.183594 19.1875 70.285156 19.152344 70.375 19.152344 C 70.464844 19.152344 70.566406 19.117188 70.601562 19.078125 C 70.632812 19.035156 70.710938 19 70.769531 19 C 70.828125 19 70.921875 18.972656 70.976562 18.933594 C 71.03125 18.894531 71.136719 18.851562 71.210938 18.832031 C 71.289062 18.8125 71.351562 18.777344 71.351562 18.75 C 71.351562 18.722656 71.394531 18.699219 71.445312 18.699219 C 71.5 18.699219 71.574219 18.671875 71.609375 18.632812 C 71.644531 18.597656 71.734375 18.550781 71.808594 18.535156 C 71.878906 18.515625 71.992188 18.445312 72.058594 18.375 C 72.121094 18.308594 72.210938 18.25 72.253906 18.25 C 72.296875 18.25 72.398438 18.183594 72.480469 18.101562 C 72.558594 18.019531 72.644531 17.949219 72.667969 17.949219 C 72.800781 17.945312 73.75 17.027344 73.988281 16.671875 C 74.0625 16.5625 74.175781 16.414062 74.238281 16.34375 C 74.300781 16.277344 74.351562 16.191406 74.351562 16.160156 C 74.351562 16.128906 74.382812 16.066406 74.425781 16.027344 C 74.53125 15.921875 74.847656 15.285156 74.851562 15.179688 C 74.851562 15.128906 74.871094 15.089844 74.898438 15.089844 C 74.925781 15.089844 74.964844 15.03125 74.980469 14.957031 C 75 14.882812 75.046875 14.765625 75.082031 14.691406 C 75.117188 14.621094 75.148438 14.519531 75.148438 14.460938 C 75.148438 14.40625 75.175781 14.335938 75.203125 14.304688 C 75.234375 14.273438 75.277344 14.117188 75.300781 13.957031 C 75.324219 13.792969 75.367188 13.558594 75.394531 13.4375 C 75.460938 13.136719 75.460938 11.011719 75.394531 10.753906 C 75.367188 10.644531 75.324219 10.421875 75.300781 10.261719 C 75.277344 10.097656 75.234375 9.941406 75.203125 9.910156 C 75.175781 9.882812 75.148438 9.800781 75.148438 9.738281 C 75.148438 9.617188 75.121094 9.542969 74.835938 8.925781 C 74.367188 7.914062 73.582031 6.917969 72.75 6.292969 C 72.570312 6.15625 72.414062 6.03125 72.398438 6.015625 C 72.351562 5.957031 71.761719 5.617188 71.707031 5.617188 C 71.675781 5.617188 71.648438 5.59375 71.648438 5.570312 C 71.648438 5.542969 71.582031 5.507812 71.5 5.488281 C 71.417969 5.472656 71.351562 5.4375 71.351562 5.410156 C 71.351562 5.386719 71.320312 5.363281 71.289062 5.363281 C 71.253906 5.363281 71.136719 5.316406 71.023438 5.265625 C 70.914062 5.210938 70.792969 5.164062 70.75 5.164062 C 70.707031 5.164062 70.632812 5.128906 70.578125 5.085938 C 70.523438 5.046875 70.417969 5.011719 70.34375 5.011719 C 70.269531 5.011719 70.195312 4.992188 70.179688 4.96875 C 70.164062 4.941406 70.03125 4.90625 69.886719 4.886719 C 69.742188 4.867188 69.597656 4.832031 69.566406 4.804688 C 69.53125 4.777344 69.332031 4.742188 69.117188 4.726562 C 68.902344 4.710938 68.699219 4.679688 68.667969 4.65625 C 68.589844 4.59375 67.089844 4.5625 66.726562 4.613281 M 82.976562 4.601562 C 82.808594 4.609375 82.652344 4.640625 82.628906 4.664062 C 82.601562 4.691406 82.488281 4.714844 82.378906 4.714844 C 82.140625 4.71875 82.070312 4.734375 80.953125 5.011719 C 80.828125 5.042969 80.707031 5.085938 80.675781 5.109375 C 80.648438 5.132812 80.5625 5.164062 80.488281 5.183594 C 80.410156 5.199219 80.351562 5.238281 80.351562 5.265625 C 80.351562 5.292969 80.3125 5.316406 80.265625 5.316406 C 80.160156 5.316406 79.449219 5.671875 79.449219 5.722656 C 79.449219 5.746094 79.417969 5.765625 79.375 5.765625 C 79.21875 5.765625 78.476562 6.335938 77.976562 6.839844 C 77.445312 7.375 77.203125 7.679688 76.875 8.230469 C 76.707031 8.511719 76.449219 9.042969 76.449219 9.105469 C 76.449219 9.148438 76.417969 9.214844 76.375 9.257812 C 76.332031 9.296875 76.300781 9.382812 76.296875 9.441406 C 76.296875 9.5 76.265625 9.59375 76.222656 9.648438 C 76.183594 9.703125 76.148438 9.828125 76.148438 9.929688 C 76.148438 10.035156 76.117188 10.144531 76.074219 10.175781 C 76.023438 10.222656 76 10.34375 76 10.597656 C 75.996094 10.832031 75.972656 10.988281 75.921875 11.050781 C 75.816406 11.195312 75.816406 13.042969 75.925781 13.152344 C 75.976562 13.207031 76 13.332031 76 13.574219 C 76 13.800781 76.027344 13.953125 76.074219 14.015625 C 76.113281 14.070312 76.148438 14.183594 76.148438 14.269531 C 76.148438 14.355469 76.183594 14.453125 76.226562 14.488281 C 76.265625 14.523438 76.300781 14.625 76.300781 14.714844 C 76.300781 14.804688 76.332031 14.90625 76.375 14.941406 C 76.417969 14.976562 76.449219 15.039062 76.449219 15.085938 C 76.449219 15.132812 76.484375 15.214844 76.523438 15.269531 C 76.5625 15.324219 76.597656 15.398438 76.597656 15.433594 C 76.597656 15.472656 76.667969 15.601562 76.75 15.726562 C 76.832031 15.847656 76.898438 15.96875 76.898438 15.996094 C 76.898438 16.039062 77.210938 16.5 77.324219 16.625 C 77.351562 16.65625 77.441406 16.765625 77.523438 16.867188 C 77.867188 17.292969 78.757812 18.097656 78.890625 18.097656 C 78.921875 18.097656 78.964844 18.128906 78.984375 18.160156 C 79.03125 18.230469 79.167969 18.324219 79.332031 18.398438 C 79.390625 18.421875 79.453125 18.46875 79.472656 18.496094 C 79.492188 18.527344 79.546875 18.550781 79.597656 18.550781 C 79.648438 18.550781 79.714844 18.582031 79.75 18.625 C 79.785156 18.667969 79.851562 18.699219 79.898438 18.699219 C 79.949219 18.699219 80.015625 18.734375 80.050781 18.777344 C 80.085938 18.816406 80.164062 18.851562 80.226562 18.851562 C 80.289062 18.851562 80.351562 18.882812 80.367188 18.925781 C 80.382812 18.96875 80.457031 19 80.527344 19 C 80.597656 19 80.691406 19.035156 80.730469 19.078125 C 80.773438 19.117188 80.875 19.152344 80.957031 19.152344 C 81.039062 19.152344 81.140625 19.1875 81.183594 19.226562 C 81.222656 19.269531 81.347656 19.304688 81.464844 19.304688 C 81.582031 19.304688 81.71875 19.339844 81.773438 19.378906 C 81.839844 19.429688 81.996094 19.453125 82.273438 19.453125 C 82.546875 19.457031 82.707031 19.480469 82.773438 19.53125 C 82.917969 19.636719 84.707031 19.636719 84.816406 19.527344 C 84.875 19.472656 85.007812 19.453125 85.339844 19.453125 C 85.675781 19.453125 85.804688 19.433594 85.851562 19.378906 C 85.890625 19.328125 86 19.300781 86.148438 19.300781 C 86.300781 19.300781 86.410156 19.273438 86.449219 19.226562 C 86.484375 19.1875 86.585938 19.152344 86.675781 19.152344 C 86.765625 19.152344 86.867188 19.117188 86.898438 19.078125 C 86.933594 19.035156 87.011719 19 87.070312 19 C 87.128906 19 87.222656 18.972656 87.277344 18.933594 C 87.332031 18.894531 87.4375 18.851562 87.511719 18.832031 C 87.589844 18.8125 87.648438 18.777344 87.648438 18.75 C 87.648438 18.722656 87.691406 18.699219 87.746094 18.699219 C 87.800781 18.699219 87.871094 18.671875 87.910156 18.636719 C 87.945312 18.601562 88.070312 18.53125 88.1875 18.472656 C 88.304688 18.417969 88.398438 18.359375 88.398438 18.339844 C 88.398438 18.320312 88.5 18.253906 88.625 18.195312 C 88.75 18.132812 88.851562 18.0625 88.851562 18.042969 C 88.851562 18.019531 88.910156 17.96875 88.988281 17.929688 C 89.238281 17.800781 89.835938 17.222656 90.140625 16.820312 C 90.265625 16.65625 90.390625 16.496094 90.421875 16.46875 C 90.503906 16.398438 90.851562 15.816406 90.851562 15.75 C 90.851562 15.71875 90.871094 15.691406 90.898438 15.691406 C 90.925781 15.691406 90.964844 15.628906 90.984375 15.554688 C 91 15.480469 91.046875 15.386719 91.082031 15.351562 C 91.121094 15.3125 91.148438 15.242188 91.148438 15.1875 C 91.148438 15.132812 91.167969 15.089844 91.191406 15.089844 C 91.214844 15.089844 91.28125 14.925781 91.34375 14.726562 C 91.40625 14.527344 91.480469 14.308594 91.503906 14.238281 C 91.527344 14.167969 91.570312 13.996094 91.597656 13.851562 C 91.625 13.703125 91.675781 13.46875 91.703125 13.324219 C 91.78125 12.953125 91.746094 10.707031 91.664062 10.621094 C 91.628906 10.585938 91.601562 10.488281 91.601562 10.402344 C 91.601562 10.320312 91.554688 10.121094 91.5 9.964844 C 91.445312 9.808594 91.398438 9.644531 91.398438 9.601562 C 91.398438 9.558594 91.382812 9.484375 91.359375 9.4375 C 91.332031 9.390625 91.28125 9.269531 91.238281 9.175781 C 91.121094 8.898438 90.953125 8.566406 90.824219 8.347656 C 90.757812 8.238281 90.6875 8.113281 90.667969 8.070312 C 90.589844 7.910156 90.042969 7.230469 89.742188 6.914062 C 89.3125 6.46875 88.339844 5.730469 88.058594 5.644531 C 88 5.625 87.949219 5.589844 87.949219 5.566406 C 87.949219 5.542969 87.882812 5.507812 87.800781 5.488281 C 87.71875 5.472656 87.648438 5.4375 87.648438 5.410156 C 87.648438 5.386719 87.621094 5.363281 87.585938 5.363281 C 87.554688 5.363281 87.433594 5.316406 87.324219 5.265625 C 87.214844 5.210938 87.089844 5.164062 87.050781 5.164062 C 87.007812 5.164062 86.929688 5.128906 86.878906 5.085938 C 86.824219 5.046875 86.71875 5.011719 86.644531 5.011719 C 86.566406 5.011719 86.492188 4.992188 86.476562 4.96875 C 86.460938 4.941406 86.332031 4.90625 86.1875 4.886719 C 86.042969 4.867188 85.902344 4.832031 85.871094 4.808594 C 85.84375 4.785156 85.617188 4.742188 85.371094 4.714844 C 85.125 4.683594 84.765625 4.640625 84.574219 4.613281 C 84.230469 4.570312 83.566406 4.5625 82.976562 4.601562 M 97.601562 4.597656 C 97.449219 4.609375 97.304688 4.640625 97.277344 4.664062 C 97.25 4.691406 97.105469 4.714844 96.953125 4.714844 C 96.800781 4.714844 96.585938 4.738281 96.476562 4.761719 C 96.363281 4.789062 96.164062 4.832031 96.023438 4.863281 C 95.886719 4.894531 95.742188 4.9375 95.699219 4.960938 C 95.65625 4.980469 95.527344 5.015625 95.410156 5.035156 C 95.292969 5.054688 95.199219 5.09375 95.199219 5.117188 C 95.199219 5.144531 95.167969 5.164062 95.132812 5.164062 C 95 5.164062 94.203125 5.59375 93.878906 5.839844 C 93.390625 6.210938 92.601562 7.136719 92.601562 7.34375 C 92.601562 7.378906 92.566406 7.4375 92.523438 7.46875 C 92.484375 7.503906 92.449219 7.582031 92.449219 7.640625 C 92.449219 7.699219 92.414062 7.789062 92.375 7.84375 C 92.332031 7.898438 92.300781 8.019531 92.296875 8.117188 C 92.296875 8.21875 92.265625 8.339844 92.222656 8.394531 C 92.117188 8.535156 92.117188 10.1875 92.226562 10.394531 C 92.265625 10.476562 92.300781 10.601562 92.300781 10.675781 C 92.300781 10.75 92.332031 10.855469 92.375 10.90625 C 92.414062 10.960938 92.449219 11.042969 92.449219 11.085938 C 92.449219 11.132812 92.484375 11.195312 92.523438 11.230469 C 92.566406 11.265625 92.601562 11.324219 92.601562 11.367188 C 92.601562 11.507812 93.332031 12.324219 93.648438 12.535156 C 93.710938 12.574219 93.789062 12.632812 93.820312 12.660156 C 93.90625 12.742188 94.601562 13.085938 94.679688 13.085938 C 94.71875 13.085938 94.75 13.105469 94.75 13.132812 C 94.75 13.160156 94.832031 13.195312 94.933594 13.214844 C 95.035156 13.234375 95.175781 13.28125 95.246094 13.316406 C 95.316406 13.355469 95.425781 13.386719 95.484375 13.386719 C 95.542969 13.386719 95.605469 13.40625 95.625 13.433594 C 95.640625 13.460938 95.757812 13.496094 95.890625 13.511719 C 96.019531 13.53125 96.195312 13.578125 96.28125 13.617188 C 96.371094 13.65625 96.507812 13.6875 96.589844 13.6875 C 96.671875 13.6875 96.804688 13.71875 96.882812 13.761719 C 96.960938 13.804688 97.105469 13.835938 97.203125 13.835938 C 97.300781 13.835938 97.402344 13.859375 97.429688 13.890625 C 97.460938 13.917969 97.601562 13.953125 97.75 13.972656 C 97.898438 13.988281 98.078125 14.035156 98.148438 14.070312 C 98.21875 14.109375 98.335938 14.136719 98.414062 14.136719 C 98.488281 14.136719 98.589844 14.160156 98.636719 14.183594 C 98.6875 14.207031 98.886719 14.277344 99.089844 14.339844 C 99.289062 14.402344 99.464844 14.46875 99.476562 14.496094 C 99.492188 14.519531 99.542969 14.539062 99.59375 14.539062 C 99.753906 14.539062 100 14.902344 100 15.140625 C 100 15.375 99.753906 15.742188 99.597656 15.742188 C 99.554688 15.742188 99.496094 15.765625 99.46875 15.792969 C 99.285156 15.976562 97.328125 16.035156 96.601562 15.878906 C 95.90625 15.730469 95.726562 15.683594 95.566406 15.613281 C 95.480469 15.574219 95.386719 15.542969 95.355469 15.542969 C 95.324219 15.542969 95.257812 15.523438 95.210938 15.496094 C 95.164062 15.472656 95.023438 15.414062 94.898438 15.367188 C 94.777344 15.320312 94.640625 15.261719 94.601562 15.234375 C 94.558594 15.210938 94.492188 15.175781 94.449219 15.160156 C 94.152344 15.039062 93.824219 14.855469 93.707031 14.75 C 93.667969 14.710938 93.550781 14.691406 93.4375 14.699219 C 93.214844 14.714844 93.183594 14.761719 92.898438 15.417969 C 92.539062 16.246094 92.453125 16.433594 92.367188 16.601562 C 92.332031 16.675781 92.300781 16.78125 92.300781 16.839844 C 92.300781 16.898438 92.277344 16.945312 92.25 16.945312 C 92.222656 16.945312 92.1875 17.007812 92.167969 17.082031 C 92.148438 17.160156 92.101562 17.25 92.066406 17.289062 C 92.03125 17.324219 92 17.386719 92 17.425781 C 92 17.46875 91.964844 17.554688 91.921875 17.621094 C 91.789062 17.820312 92.082031 18.25 92.351562 18.25 C 92.375 18.25 92.421875 18.277344 92.460938 18.3125 C 92.570312 18.414062 92.835938 18.550781 92.921875 18.550781 C 92.96875 18.550781 93.039062 18.582031 93.082031 18.625 C 93.125 18.667969 93.203125 18.699219 93.257812 18.699219 C 93.3125 18.699219 93.390625 18.734375 93.433594 18.777344 C 93.472656 18.816406 93.570312 18.851562 93.648438 18.851562 C 93.722656 18.851562 93.816406 18.882812 93.851562 18.925781 C 93.882812 18.96875 93.984375 19.003906 94.070312 19.003906 C 94.15625 19.003906 94.269531 19.039062 94.320312 19.078125 C 94.375 19.117188 94.511719 19.152344 94.628906 19.152344 C 94.753906 19.152344 94.863281 19.183594 94.898438 19.226562 C 94.941406 19.277344 95.058594 19.300781 95.273438 19.300781 C 95.492188 19.300781 95.605469 19.324219 95.648438 19.378906 C 95.699219 19.433594 95.832031 19.453125 96.21875 19.453125 C 96.585938 19.457031 96.75 19.476562 96.820312 19.53125 C 96.964844 19.636719 98.910156 19.636719 99.117188 19.527344 C 99.210938 19.480469 99.402344 19.453125 99.644531 19.453125 C 99.90625 19.453125 100.0625 19.429688 100.128906 19.378906 C 100.179688 19.339844 100.328125 19.304688 100.457031 19.304688 C 100.597656 19.304688 100.710938 19.273438 100.75 19.226562 C 100.785156 19.1875 100.886719 19.152344 100.976562 19.152344 C 101.066406 19.152344 101.164062 19.117188 101.199219 19.078125 C 101.234375 19.035156 101.3125 19 101.375 19 C 101.4375 19 101.515625 18.96875 101.550781 18.925781 C 101.585938 18.882812 101.652344 18.851562 101.703125 18.851562 C 101.753906 18.851562 101.828125 18.816406 101.867188 18.777344 C 101.910156 18.734375 101.976562 18.699219 102.019531 18.699219 C 102.058594 18.699219 102.105469 18.679688 102.121094 18.65625 C 102.136719 18.628906 102.242188 18.5625 102.359375 18.5 C 102.5625 18.394531 102.664062 18.3125 103.066406 17.921875 C 103.347656 17.652344 103.699219 17.246094 103.699219 17.195312 C 103.699219 17.171875 103.765625 17.054688 103.847656 16.933594 C 103.925781 16.8125 104.007812 16.65625 104.027344 16.578125 C 104.046875 16.503906 104.082031 16.429688 104.105469 16.414062 C 104.128906 16.402344 104.148438 16.308594 104.148438 16.210938 C 104.148438 16.117188 104.183594 16.003906 104.226562 15.960938 C 104.335938 15.851562 104.335938 13.753906 104.226562 13.609375 C 104.1875 13.554688 104.152344 13.460938 104.152344 13.398438 C 104.148438 13.042969 103.125 11.730469 102.851562 11.730469 C 102.824219 11.730469 102.800781 11.707031 102.800781 11.679688 C 102.800781 11.652344 102.75 11.605469 102.6875 11.582031 C 102.550781 11.519531 102.402344 11.429688 102.3125 11.34375 C 102.273438 11.308594 102.203125 11.28125 102.152344 11.28125 C 102.101562 11.28125 102.035156 11.246094 102 11.207031 C 101.964844 11.164062 101.890625 11.128906 101.832031 11.128906 C 101.773438 11.128906 101.679688 11.09375 101.628906 11.054688 C 101.574219 11.011719 101.46875 10.980469 101.398438 10.980469 C 101.324219 10.980469 101.234375 10.945312 101.199219 10.90625 C 101.164062 10.859375 101.054688 10.828125 100.941406 10.828125 C 100.832031 10.828125 100.710938 10.796875 100.667969 10.753906 C 100.625 10.710938 100.511719 10.679688 100.410156 10.675781 C 100.308594 10.675781 100.179688 10.640625 100.128906 10.601562 C 100.074219 10.5625 99.941406 10.527344 99.828125 10.527344 C 99.714844 10.527344 99.582031 10.492188 99.527344 10.453125 C 99.472656 10.410156 99.328125 10.378906 99.203125 10.375 C 99.078125 10.375 98.929688 10.339844 98.878906 10.300781 C 98.824219 10.261719 98.679688 10.226562 98.554688 10.226562 C 98.425781 10.226562 98.28125 10.191406 98.226562 10.152344 C 98.175781 10.109375 98.050781 10.078125 97.953125 10.074219 C 97.855469 10.074219 97.730469 10.039062 97.679688 10 C 97.625 9.960938 97.53125 9.925781 97.46875 9.925781 C 97.40625 9.925781 97.28125 9.890625 97.191406 9.84375 C 96.640625 9.566406 96.671875 9.589844 96.527344 9.308594 C 96.449219 9.15625 96.441406 9.101562 96.488281 9.03125 C 96.523438 8.988281 96.570312 8.902344 96.59375 8.847656 C 96.6875 8.636719 97.121094 8.324219 97.3125 8.324219 C 97.378906 8.324219 97.472656 8.289062 97.527344 8.25 C 97.667969 8.140625 99.429688 8.140625 99.570312 8.25 C 99.625 8.289062 99.777344 8.324219 99.914062 8.324219 C 100.0625 8.324219 100.1875 8.351562 100.230469 8.398438 C 100.273438 8.4375 100.378906 8.472656 100.464844 8.472656 C 100.554688 8.476562 100.667969 8.507812 100.722656 8.550781 C 100.777344 8.589844 100.867188 8.625 100.929688 8.625 C 100.988281 8.625 101.066406 8.65625 101.101562 8.699219 C 101.132812 8.738281 101.214844 8.773438 101.273438 8.773438 C 101.335938 8.773438 101.414062 8.808594 101.449219 8.847656 C 101.484375 8.890625 101.539062 8.925781 101.574219 8.925781 C 101.609375 8.925781 101.761719 8.992188 101.917969 9.074219 C 102.332031 9.296875 102.597656 9.25 102.671875 8.9375 C 102.6875 8.863281 102.734375 8.730469 102.773438 8.648438 C 102.933594 8.300781 103 8.128906 103 8.050781 C 103 8.007812 103.023438 7.972656 103.050781 7.972656 C 103.078125 7.972656 103.101562 7.941406 103.101562 7.910156 C 103.101562 7.875 103.148438 7.757812 103.199219 7.644531 C 103.253906 7.535156 103.296875 7.417969 103.296875 7.382812 C 103.300781 7.347656 103.320312 7.28125 103.34375 7.230469 C 103.753906 6.390625 103.835938 5.957031 103.617188 5.789062 C 103.460938 5.667969 102.699219 5.316406 102.589844 5.3125 C 102.554688 5.3125 102.480469 5.277344 102.429688 5.238281 C 102.375 5.195312 102.273438 5.164062 102.203125 5.164062 C 102.132812 5.160156 102.03125 5.128906 101.976562 5.085938 C 101.925781 5.046875 101.808594 5.011719 101.71875 5.011719 C 101.628906 5.011719 101.542969 4.992188 101.527344 4.96875 C 101.511719 4.945312 101.359375 4.90625 101.1875 4.886719 C 101.015625 4.867188 100.851562 4.832031 100.820312 4.808594 C 100.789062 4.78125 100.554688 4.75 100.292969 4.730469 C 100.035156 4.714844 99.800781 4.679688 99.769531 4.65625 C 99.707031 4.605469 98.03125 4.5625 97.601562 4.597656 M 42.074219 4.898438 C 42.019531 4.914062 41.957031 4.949219 41.9375 4.980469 C 41.878906 5.074219 41.890625 19.09375 41.953125 19.207031 C 42.03125 19.355469 45.816406 19.355469 45.898438 19.207031 C 45.933594 19.140625 45.949219 18.035156 45.949219 15.96875 C 45.949219 14.128906 45.96875 12.839844 45.996094 12.855469 C 46.019531 12.871094 46.089844 12.980469 46.148438 13.097656 C 46.210938 13.214844 46.273438 13.324219 46.292969 13.335938 C 46.3125 13.351562 46.480469 13.621094 46.671875 13.9375 C 46.863281 14.253906 47.039062 14.523438 47.058594 14.53125 C 47.082031 14.539062 47.101562 14.574219 47.101562 14.609375 C 47.101562 14.644531 47.15625 14.746094 47.230469 14.84375 C 47.300781 14.9375 47.378906 15.0625 47.40625 15.117188 C 47.429688 15.171875 47.492188 15.277344 47.539062 15.351562 C 47.585938 15.425781 47.792969 15.765625 47.996094 16.101562 C 48.199219 16.441406 48.386719 16.726562 48.410156 16.738281 C 48.429688 16.746094 48.449219 16.78125 48.449219 16.816406 C 48.449219 16.851562 48.515625 16.972656 48.601562 17.089844 C 48.683594 17.203125 48.75 17.316406 48.75 17.339844 C 48.75 17.390625 49.09375 17.855469 49.171875 17.910156 C 49.203125 17.929688 49.648438 17.949219 50.167969 17.949219 L 51.109375 17.949219 L 51.253906 17.792969 C 51.335938 17.707031 51.398438 17.605469 51.398438 17.566406 C 51.398438 17.527344 51.421875 17.496094 51.445312 17.496094 C 51.472656 17.496094 51.507812 17.449219 51.527344 17.390625 C 51.546875 17.332031 51.617188 17.203125 51.683594 17.105469 C 51.753906 17.003906 51.832031 16.875 51.855469 16.820312 C 51.878906 16.765625 51.945312 16.652344 52 16.570312 C 52.054688 16.488281 52.113281 16.386719 52.132812 16.34375 C 52.152344 16.304688 52.265625 16.109375 52.382812 15.910156 C 52.503906 15.714844 52.601562 15.542969 52.601562 15.527344 C 52.601562 15.511719 52.703125 15.351562 52.824219 15.167969 C 52.949219 14.988281 53.050781 14.816406 53.050781 14.789062 C 53.050781 14.757812 53.074219 14.707031 53.101562 14.675781 C 53.222656 14.535156 53.5 14.074219 53.5 14.011719 C 53.5 13.976562 53.519531 13.9375 53.539062 13.929688 C 53.59375 13.90625 53.949219 13.3125 53.949219 13.242188 C 53.949219 13.210938 53.96875 13.183594 53.988281 13.183594 C 54.007812 13.183594 54.09375 13.066406 54.175781 12.921875 L 54.324219 12.660156 L 54.351562 15.933594 C 54.371094 18.769531 54.386719 19.210938 54.449219 19.253906 C 54.582031 19.335938 58.3125 19.316406 58.429688 19.230469 C 58.5625 19.132812 58.609375 12.90625 58.476562 12.703125 C 58.410156 12.601562 58.398438 12.105469 58.398438 8.8125 C 58.398438 6.523438 58.378906 5.007812 58.351562 4.964844 C 58.25 4.804688 54.699219 4.867188 54.699219 5.023438 C 54.699219 5.058594 54.648438 5.164062 54.582031 5.261719 C 54.515625 5.359375 54.367188 5.597656 54.253906 5.789062 C 54.140625 5.984375 54.027344 6.175781 54 6.21875 C 53.769531 6.585938 53.351562 7.324219 53.351562 7.363281 C 53.351562 7.386719 53.316406 7.4375 53.273438 7.46875 C 53.234375 7.503906 53.199219 7.574219 53.199219 7.628906 C 53.199219 7.679688 53.167969 7.738281 53.125 7.753906 C 53.082031 7.769531 53.050781 7.804688 53.050781 7.832031 C 53.050781 7.859375 52.980469 7.980469 52.898438 8.105469 C 52.816406 8.226562 52.75 8.335938 52.75 8.347656 C 52.75 8.359375 52.648438 8.535156 52.523438 8.742188 C 52.402344 8.945312 52.300781 9.136719 52.300781 9.164062 C 52.300781 9.191406 52.28125 9.222656 52.261719 9.234375 C 52.207031 9.253906 51.851562 9.851562 51.851562 9.917969 C 51.851562 9.945312 51.832031 9.976562 51.808594 9.984375 C 51.753906 10.007812 51.398438 10.601562 51.398438 10.671875 C 51.398438 10.703125 51.378906 10.730469 51.351562 10.730469 C 51.328125 10.730469 51.292969 10.777344 51.273438 10.839844 C 51.253906 10.898438 51.171875 11.039062 51.09375 11.148438 C 51.015625 11.257812 50.949219 11.375 50.949219 11.414062 C 50.949219 11.449219 50.929688 11.480469 50.90625 11.480469 C 50.878906 11.480469 50.835938 11.542969 50.804688 11.617188 C 50.738281 11.78125 50.574219 12.058594 50.445312 12.226562 C 50.390625 12.292969 50.351562 12.367188 50.351562 12.394531 C 50.351562 12.503906 50.1875 12.609375 50.140625 12.53125 C 50.117188 12.492188 49.972656 12.265625 49.824219 12.03125 C 49.675781 11.796875 49.527344 11.542969 49.496094 11.46875 C 49.464844 11.394531 49.417969 11.332031 49.394531 11.332031 C 49.371094 11.332031 49.351562 11.300781 49.351562 11.261719 C 49.351562 11.226562 49.28125 11.101562 49.199219 10.988281 C 49.117188 10.875 49.050781 10.757812 49.050781 10.734375 C 49.050781 10.707031 49.019531 10.65625 48.984375 10.617188 C 48.898438 10.53125 48.667969 10.144531 48.59375 9.964844 C 48.566406 9.886719 48.523438 9.828125 48.507812 9.828125 C 48.488281 9.828125 48.417969 9.726562 48.351562 9.601562 C 48.28125 9.476562 48.210938 9.375 48.1875 9.375 C 48.167969 9.375 48.148438 9.34375 48.148438 9.300781 C 48.148438 9.261719 48.082031 9.128906 48 9.007812 C 47.917969 8.882812 47.851562 8.757812 47.851562 8.730469 C 47.851562 8.699219 47.828125 8.671875 47.796875 8.671875 C 47.769531 8.671875 47.726562 8.617188 47.699219 8.550781 C 47.675781 8.480469 47.566406 8.285156 47.464844 8.109375 C 47.359375 7.9375 47.246094 7.75 47.214844 7.695312 C 46.84375 7.082031 46.625 6.742188 46.589844 6.726562 C 46.566406 6.71875 46.550781 6.6875 46.550781 6.65625 C 46.550781 6.605469 46.210938 6.015625 46.152344 5.964844 C 46.136719 5.953125 46.09375 5.886719 46.058594 5.816406 C 45.9375 5.570312 45.703125 5.203125 45.542969 4.996094 C 45.460938 4.890625 42.421875 4.804688 42.074219 4.898438 M 109.824219 4.917969 C 109.675781 4.960938 109.652344 5 109.425781 5.539062 C 109.25 5.964844 109.210938 6.050781 109.054688 6.390625 C 108.964844 6.585938 108.863281 6.8125 108.828125 6.894531 C 108.792969 6.976562 108.726562 7.128906 108.683594 7.234375 C 108.636719 7.339844 108.601562 7.453125 108.601562 7.492188 C 108.601562 7.527344 108.566406 7.585938 108.523438 7.621094 C 108.484375 7.65625 108.449219 7.722656 108.449219 7.769531 C 108.449219 7.816406 108.382812 7.984375 108.300781 8.140625 C 108.21875 8.292969 108.148438 8.464844 108.148438 8.515625 C 108.148438 8.566406 108.117188 8.640625 108.074219 8.671875 C 108.035156 8.707031 108 8.773438 108 8.824219 C 108 8.871094 107.964844 8.941406 107.925781 8.972656 C 107.882812 9.007812 107.851562 9.066406 107.851562 9.101562 C 107.851562 9.136719 107.8125 9.242188 107.765625 9.332031 C 107.71875 9.425781 107.652344 9.558594 107.617188 9.632812 C 107.578125 9.707031 107.550781 9.804688 107.550781 9.851562 C 107.550781 9.894531 107.515625 9.96875 107.476562 10.007812 C 107.433594 10.050781 107.398438 10.128906 107.398438 10.179688 C 107.398438 10.234375 107.378906 10.277344 107.351562 10.277344 C 107.328125 10.277344 107.292969 10.328125 107.273438 10.390625 C 107.257812 10.453125 107.210938 10.578125 107.171875 10.664062 C 107.128906 10.753906 107.0625 10.914062 107.015625 11.015625 C 106.972656 11.121094 106.90625 11.265625 106.867188 11.339844 C 106.832031 11.410156 106.800781 11.507812 106.800781 11.550781 C 106.800781 11.59375 106.777344 11.632812 106.75 11.632812 C 106.722656 11.632812 106.699219 11.65625 106.699219 11.683594 C 106.699219 11.710938 106.621094 11.90625 106.523438 12.109375 C 106.429688 12.316406 106.351562 12.507812 106.351562 12.53125 C 106.351562 12.554688 106.316406 12.640625 106.277344 12.71875 C 106.152344 12.957031 105.898438 13.53125 105.898438 13.578125 C 105.898438 13.601562 105.839844 13.730469 105.769531 13.867188 C 105.699219 14.003906 105.5625 14.304688 105.46875 14.539062 C 105.371094 14.773438 105.238281 15.089844 105.167969 15.242188 C 105.097656 15.394531 105.007812 15.585938 104.972656 15.667969 C 104.933594 15.75 104.835938 15.96875 104.753906 16.15625 C 104.667969 16.34375 104.601562 16.519531 104.601562 16.546875 C 104.601562 16.578125 104.566406 16.636719 104.523438 16.675781 C 104.484375 16.71875 104.449219 16.800781 104.449219 16.863281 C 104.449219 16.921875 104.414062 17.015625 104.375 17.066406 C 104.332031 17.121094 104.300781 17.207031 104.300781 17.257812 C 104.300781 17.3125 104.265625 17.386719 104.226562 17.429688 C 104.183594 17.46875 104.148438 17.546875 104.148438 17.601562 C 104.148438 17.65625 104.128906 17.699219 104.101562 17.699219 C 104.078125 17.699219 104.042969 17.75 104.023438 17.808594 C 103.992188 17.925781 103.886719 18.175781 103.765625 18.40625 C 103.730469 18.480469 103.699219 18.574219 103.699219 18.613281 C 103.699219 18.65625 103.667969 18.714844 103.625 18.75 C 103.535156 18.824219 103.523438 19.15625 103.609375 19.242188 C 103.65625 19.285156 104.207031 19.300781 105.785156 19.300781 L 107.902344 19.300781 L 108.003906 19.140625 C 108.058594 19.050781 108.117188 18.914062 108.132812 18.839844 C 108.148438 18.765625 108.191406 18.675781 108.230469 18.644531 C 108.269531 18.613281 108.300781 18.546875 108.300781 18.5 C 108.300781 18.449219 108.332031 18.347656 108.375 18.265625 C 108.414062 18.1875 108.449219 18.085938 108.449219 18.042969 C 108.449219 17.996094 108.484375 17.933594 108.523438 17.898438 C 108.566406 17.863281 108.601562 17.789062 108.601562 17.730469 C 108.601562 17.671875 108.636719 17.578125 108.675781 17.523438 C 108.71875 17.472656 108.75 17.375 108.75 17.3125 C 108.75 17.25 108.769531 17.195312 108.796875 17.195312 C 108.824219 17.195312 108.859375 17.144531 108.875 17.082031 C 108.890625 17.023438 108.945312 16.898438 108.988281 16.808594 L 109.074219 16.644531 L 114.597656 16.644531 L 114.648438 16.84375 C 114.679688 16.957031 114.726562 17.046875 114.75 17.046875 C 114.777344 17.046875 114.800781 17.097656 114.800781 17.160156 C 114.800781 17.226562 114.832031 17.320312 114.875 17.375 C 114.914062 17.429688 114.949219 17.519531 114.949219 17.582031 C 114.949219 17.640625 114.984375 17.722656 115.023438 17.765625 C 115.066406 17.808594 115.101562 17.882812 115.101562 17.933594 C 115.101562 17.988281 115.132812 18.074219 115.171875 18.128906 C 115.214844 18.179688 115.246094 18.273438 115.25 18.332031 C 115.25 18.390625 115.285156 18.464844 115.324219 18.5 C 115.367188 18.535156 115.398438 18.613281 115.398438 18.671875 C 115.398438 18.730469 115.433594 18.824219 115.472656 18.878906 C 115.515625 18.933594 115.546875 19.011719 115.546875 19.054688 C 115.554688 19.296875 115.589844 19.300781 117.867188 19.300781 L 120 19.300781 L 120 18.929688 C 120 18.710938 119.972656 18.5 119.929688 18.417969 C 119.890625 18.339844 119.824219 18.195312 119.785156 18.097656 C 119.609375 17.691406 119.550781 17.558594 119.429688 17.304688 C 119.359375 17.15625 119.300781 17.019531 119.300781 16.996094 C 119.300781 16.972656 119.222656 16.785156 119.125 16.578125 C 119.027344 16.375 118.949219 16.179688 118.949219 16.148438 C 118.949219 16.117188 118.925781 16.09375 118.898438 16.09375 C 118.871094 16.09375 118.851562 16.058594 118.851562 16.011719 C 118.851562 15.96875 118.820312 15.875 118.78125 15.800781 C 118.636719 15.507812 118.421875 15.011719 118.375 14.851562 C 118.359375 14.789062 118.324219 14.738281 118.296875 14.738281 C 118.269531 14.738281 118.25 14.695312 118.25 14.644531 C 118.25 14.589844 118.214844 14.511719 118.175781 14.472656 C 118.132812 14.429688 118.101562 14.359375 118.101562 14.3125 C 118.101562 14.265625 118.066406 14.167969 118.027344 14.097656 C 117.9375 13.929688 117.816406 13.648438 117.777344 13.5 C 117.757812 13.4375 117.722656 13.386719 117.695312 13.386719 C 117.671875 13.386719 117.648438 13.351562 117.648438 13.304688 C 117.648438 13.261719 117.585938 13.085938 117.507812 12.917969 C 117.429688 12.746094 117.347656 12.558594 117.328125 12.496094 C 117.308594 12.433594 117.273438 12.382812 117.246094 12.382812 C 117.222656 12.382812 117.199219 12.328125 117.199219 12.265625 C 117.199219 12.199219 117.167969 12.117188 117.125 12.082031 C 117.082031 12.046875 117.050781 11.988281 117.050781 11.945312 C 117.050781 11.90625 117.019531 11.8125 116.984375 11.738281 C 116.917969 11.613281 116.839844 11.4375 116.664062 11.03125 C 116.621094 10.933594 116.570312 10.820312 116.542969 10.777344 C 116.519531 10.738281 116.488281 10.671875 116.472656 10.628906 C 116.425781 10.507812 116.296875 10.214844 116.21875 10.0625 C 116.183594 9.984375 116.148438 9.898438 116.148438 9.875 C 116.148438 9.851562 116.046875 9.617188 115.925781 9.351562 C 115.800781 9.089844 115.699219 8.863281 115.699219 8.847656 C 115.699219 8.832031 115.632812 8.679688 115.554688 8.507812 C 115.476562 8.335938 115.371094 8.105469 115.328125 7.996094 C 115.1875 7.65625 115.164062 7.609375 114.980469 7.210938 C 114.878906 7 114.800781 6.800781 114.800781 6.773438 C 114.800781 6.742188 114.777344 6.71875 114.75 6.71875 C 114.722656 6.71875 114.699219 6.671875 114.699219 6.617188 C 114.699219 6.527344 114.457031 5.941406 114.347656 5.765625 C 114.320312 5.722656 114.285156 5.65625 114.269531 5.617188 C 114.253906 5.574219 114.191406 5.421875 114.132812 5.273438 C 114.078125 5.128906 113.996094 4.980469 113.957031 4.949219 C 113.867188 4.875 110.058594 4.84375 109.824219 4.917969 M 6.257812 6.609375 C 6.289062 6.660156 6.363281 6.730469 6.421875 6.765625 C 6.492188 6.8125 6.480469 6.785156 6.378906 6.675781 C 6.210938 6.496094 6.171875 6.476562 6.257812 6.609375 M 68.082031 8.398438 C 68.125 8.441406 68.25 8.472656 68.382812 8.472656 C 68.515625 8.472656 68.636719 8.503906 68.683594 8.546875 C 68.722656 8.589844 68.808594 8.625 68.875 8.625 C 68.941406 8.625 69.007812 8.648438 69.027344 8.675781 C 69.046875 8.707031 69.109375 8.75 69.167969 8.777344 C 69.519531 8.929688 70.257812 9.617188 70.453125 9.976562 C 70.507812 10.074219 70.570312 10.1875 70.59375 10.226562 C 70.621094 10.269531 70.675781 10.402344 70.722656 10.527344 C 70.769531 10.652344 70.839844 10.816406 70.878906 10.894531 C 70.917969 10.976562 70.949219 11.183594 70.949219 11.382812 C 70.949219 11.621094 70.972656 11.746094 71.023438 11.800781 C 71.070312 11.84375 71.101562 11.964844 71.101562 12.097656 C 71.101562 12.234375 71.070312 12.34375 71.023438 12.382812 C 70.972656 12.425781 70.949219 12.542969 70.949219 12.761719 C 70.949219 12.941406 70.917969 13.132812 70.875 13.21875 C 70.835938 13.296875 70.800781 13.410156 70.800781 13.472656 C 70.800781 13.53125 70.78125 13.59375 70.753906 13.609375 C 70.730469 13.625 70.695312 13.699219 70.675781 13.773438 C 70.589844 14.125 69.59375 15.292969 69.382812 15.292969 C 69.34375 15.292969 69.285156 15.324219 69.25 15.367188 C 69.214844 15.40625 69.167969 15.441406 69.144531 15.441406 C 69.121094 15.441406 68.984375 15.496094 68.839844 15.5625 C 68.203125 15.855469 66.984375 15.894531 66.425781 15.644531 C 66.371094 15.617188 66.269531 15.582031 66.199219 15.5625 C 66.132812 15.542969 65.992188 15.472656 65.886719 15.410156 C 65.785156 15.34375 65.6875 15.292969 65.675781 15.292969 C 65.660156 15.292969 65.617188 15.269531 65.585938 15.242188 C 65.550781 15.210938 65.417969 15.109375 65.289062 15.011719 C 65.160156 14.917969 64.972656 14.730469 64.878906 14.601562 C 64.78125 14.46875 64.679688 14.339844 64.65625 14.308594 C 64.554688 14.1875 64.300781 13.667969 64.300781 13.582031 C 64.300781 13.535156 64.265625 13.460938 64.226562 13.417969 C 64.179688 13.375 64.148438 13.253906 64.148438 13.125 C 64.148438 13.003906 64.125 12.882812 64.097656 12.851562 C 63.988281 12.742188 64.089844 11.054688 64.222656 10.753906 C 64.691406 9.699219 65.347656 8.941406 65.949219 8.75 C 66.003906 8.730469 66.050781 8.695312 66.050781 8.671875 C 66.050781 8.644531 66.113281 8.625 66.191406 8.625 C 66.269531 8.625 66.375 8.589844 66.429688 8.550781 C 66.480469 8.507812 66.59375 8.476562 66.675781 8.472656 C 66.757812 8.472656 66.882812 8.441406 66.949219 8.402344 C 67.132812 8.300781 67.980469 8.296875 68.082031 8.398438 M 84.382812 8.398438 C 84.425781 8.441406 84.546875 8.472656 84.671875 8.472656 C 84.804688 8.472656 84.914062 8.503906 84.949219 8.546875 C 84.984375 8.589844 85.0625 8.625 85.125 8.625 C 85.1875 8.625 85.265625 8.65625 85.300781 8.699219 C 85.335938 8.738281 85.40625 8.773438 85.457031 8.773438 C 85.507812 8.773438 85.550781 8.792969 85.550781 8.820312 C 85.550781 8.847656 85.597656 8.882812 85.65625 8.902344 C 85.808594 8.949219 86.199219 9.308594 86.59375 9.765625 C 86.734375 9.929688 87.101562 10.652344 87.101562 10.765625 C 87.101562 10.816406 87.132812 10.902344 87.171875 10.957031 C 87.222656 11.023438 87.246094 11.183594 87.25 11.464844 C 87.25 11.761719 87.269531 11.894531 87.324219 11.949219 C 87.367188 11.992188 87.398438 12.058594 87.398438 12.097656 C 87.398438 12.136719 87.367188 12.199219 87.324219 12.234375 C 87.269531 12.277344 87.25 12.398438 87.25 12.660156 C 87.25 12.886719 87.222656 13.078125 87.175781 13.167969 C 87.132812 13.246094 87.101562 13.347656 87.101562 13.394531 C 87.101562 13.441406 87.0625 13.554688 87.015625 13.644531 C 86.96875 13.738281 86.914062 13.851562 86.890625 13.902344 C 86.695312 14.304688 86.574219 14.46875 86.195312 14.851562 C 85.957031 15.09375 85.726562 15.292969 85.683594 15.292969 C 85.640625 15.292969 85.578125 15.320312 85.542969 15.355469 C 85.402344 15.488281 84.683594 15.742188 84.445312 15.742188 C 84.367188 15.742188 84.292969 15.765625 84.273438 15.792969 C 84.238281 15.855469 83.367188 15.859375 83.328125 15.796875 C 83.3125 15.773438 83.175781 15.738281 83.027344 15.71875 C 82.875 15.699219 82.738281 15.664062 82.722656 15.636719 C 82.707031 15.613281 82.660156 15.59375 82.617188 15.59375 C 82.523438 15.59375 82.058594 15.378906 81.925781 15.273438 C 81.871094 15.230469 81.707031 15.101562 81.5625 14.988281 C 81.417969 14.878906 81.230469 14.691406 81.148438 14.574219 C 81.070312 14.457031 80.980469 14.339844 80.953125 14.308594 C 80.855469 14.1875 80.601562 13.667969 80.601562 13.585938 C 80.601562 13.539062 80.566406 13.472656 80.523438 13.4375 C 80.484375 13.402344 80.449219 13.292969 80.449219 13.1875 C 80.449219 13.085938 80.417969 12.960938 80.375 12.90625 C 80.269531 12.765625 80.269531 11.503906 80.375 11.300781 C 80.414062 11.21875 80.449219 11.074219 80.449219 10.972656 C 80.449219 10.875 80.484375 10.761719 80.523438 10.730469 C 80.566406 10.695312 80.601562 10.613281 80.601562 10.546875 C 80.601562 10.480469 80.625 10.398438 80.652344 10.363281 C 80.679688 10.332031 80.820312 10.125 80.960938 9.910156 C 81.273438 9.433594 81.46875 9.222656 81.800781 9.019531 C 81.9375 8.933594 82.050781 8.84375 82.050781 8.820312 C 82.050781 8.792969 82.09375 8.773438 82.144531 8.773438 C 82.195312 8.773438 82.265625 8.738281 82.300781 8.699219 C 82.335938 8.65625 82.410156 8.625 82.472656 8.625 C 82.53125 8.625 82.625 8.589844 82.679688 8.550781 C 82.730469 8.507812 82.855469 8.476562 82.949219 8.472656 C 83.046875 8.472656 83.179688 8.441406 83.25 8.402344 C 83.433594 8.300781 84.28125 8.296875 84.382812 8.398438 M 7.949219 8.472656 C 7.980469 8.527344 8.027344 8.574219 8.058594 8.574219 C 8.089844 8.574219 8.074219 8.527344 8.023438 8.472656 C 7.976562 8.417969 7.925781 8.371094 7.914062 8.371094 C 7.90625 8.371094 7.921875 8.417969 7.949219 8.472656 M 111.9375 10.039062 C 111.964844 10.074219 112 10.164062 112.019531 10.242188 C 112.035156 10.316406 112.074219 10.378906 112.101562 10.378906 C 112.128906 10.378906 112.148438 10.441406 112.148438 10.523438 C 112.148438 10.601562 112.183594 10.695312 112.226562 10.730469 C 112.265625 10.761719 112.300781 10.84375 112.300781 10.90625 C 112.300781 10.964844 112.332031 11.046875 112.375 11.078125 C 112.417969 11.113281 112.449219 11.203125 112.449219 11.28125 C 112.449219 11.355469 112.484375 11.445312 112.523438 11.480469 C 112.566406 11.515625 112.601562 11.597656 112.601562 11.660156 C 112.601562 11.722656 112.621094 11.789062 112.644531 11.804688 C 112.667969 11.820312 112.703125 11.894531 112.722656 11.96875 C 112.738281 12.046875 112.785156 12.175781 112.824219 12.257812 C 112.976562 12.589844 113.050781 12.777344 113.050781 12.84375 C 113.050781 12.878906 113.085938 12.953125 113.125 13.007812 C 113.167969 13.0625 113.199219 13.121094 113.199219 13.144531 C 113.199219 13.167969 112.570312 13.183594 111.804688 13.183594 L 110.40625 13.183594 L 110.476562 13.046875 C 110.515625 12.972656 110.550781 12.882812 110.550781 12.851562 C 110.550781 12.820312 110.582031 12.730469 110.621094 12.652344 C 110.738281 12.421875 110.851562 12.148438 110.851562 12.089844 C 110.851562 12.0625 110.882812 11.976562 110.921875 11.898438 C 111.054688 11.636719 111.148438 11.390625 111.148438 11.3125 C 111.148438 11.265625 111.167969 11.230469 111.191406 11.230469 C 111.210938 11.230469 111.269531 11.101562 111.316406 10.945312 C 111.367188 10.785156 111.433594 10.589844 111.472656 10.503906 C 111.507812 10.421875 111.601562 10.195312 111.679688 10.007812 C 111.820312 9.667969 111.824219 9.664062 111.855469 9.816406 C 111.871094 9.90625 111.910156 10.003906 111.9375 10.039062 M 9.550781 10.210938 C 9.550781 10.273438 9.742188 10.453125 9.773438 10.417969 C 9.789062 10.40625 9.742188 10.34375 9.675781 10.277344 C 9.605469 10.214844 9.550781 10.183594 9.550781 10.210938 M 12.851562 13.800781 C 12.851562 13.851562 13.097656 14.105469 13.125 14.078125 C 13.136719 14.066406 13.082031 13.992188 13 13.910156 C 12.917969 13.832031 12.851562 13.78125 12.851562 13.800781 M 14.527344 15.65625 C 14.542969 15.6875 14.613281 15.761719 14.691406 15.8125 C 14.824219 15.910156 14.824219 15.910156 14.679688 15.75 C 14.519531 15.578125 14.488281 15.558594 14.527344 15.65625 M 16.550781 17.871094 C 16.550781 17.921875 16.699219 18.066406 16.726562 18.039062 C 16.742188 18.023438 16.707031 17.972656 16.648438 17.921875 C 16.59375 17.875 16.550781 17.847656 16.550781 17.871094 M 17.84375 19.285156 C 17.902344 19.402344 17.992188 19.476562 18.027344 19.441406 C 18.039062 19.429688 17.992188 19.363281 17.917969 19.296875 C 17.792969 19.183594 17.789062 19.183594 17.84375 19.285156 M 19.050781 20.605469 C 19.050781 20.628906 19.101562 20.679688 19.164062 20.710938 C 19.273438 20.769531 19.273438 20.769531 19.179688 20.664062 C 19.074219 20.542969 19.050781 20.53125 19.050781 20.605469 M 19.5 21.09375 C 19.5 21.15625 19.644531 21.28125 19.675781 21.246094 C 19.691406 21.234375 19.65625 21.183594 19.601562 21.132812 C 19.546875 21.082031 19.5 21.066406 19.5 21.09375 M 13.113281 21.695312 C 13.1875 21.707031 13.300781 21.707031 13.363281 21.695312 C 13.425781 21.683594 13.363281 21.671875 13.226562 21.671875 C 13.085938 21.671875 13.035156 21.683594 13.113281 21.695312 M 14.289062 21.84375 C 14.347656 21.855469 14.449219 21.855469 14.511719 21.84375 C 14.574219 21.832031 14.523438 21.824219 14.398438 21.824219 C 14.277344 21.824219 14.226562 21.832031 14.289062 21.84375 M 16.863281 22.144531 C 16.9375 22.15625 17.050781 22.15625 17.113281 22.144531 C 17.175781 22.132812 17.113281 22.125 16.976562 22.125 C 16.835938 22.125 16.785156 22.132812 16.863281 22.144531 M 20.359375 22.394531 L 20.242188 22.578125 L 20.355469 22.503906 C 20.414062 22.460938 20.472656 22.378906 20.484375 22.320312 C 20.503906 22.175781 20.496094 22.179688 20.359375 22.394531 M 45.574219 24.230469 C 45.519531 24.269531 45.363281 24.3125 45.226562 24.328125 C 45.089844 24.34375 44.96875 24.382812 44.960938 24.410156 C 44.949219 24.441406 44.886719 24.464844 44.820312 24.464844 C 44.667969 24.464844 43.75 24.949219 43.75 25.03125 C 43.75 25.050781 43.726562 25.066406 43.695312 25.066406 C 43.609375 25.066406 43.050781 25.574219 42.898438 25.792969 C 42.820312 25.90625 42.703125 26.058594 42.632812 26.132812 C 42.566406 26.210938 42.4375 26.425781 42.347656 26.609375 C 42.257812 26.796875 42.15625 27.007812 42.117188 27.082031 C 42.082031 27.152344 42.050781 27.257812 42.050781 27.3125 C 42.050781 27.367188 42.015625 27.476562 41.976562 27.554688 C 41.933594 27.636719 41.902344 27.816406 41.902344 27.957031 C 41.898438 28.097656 41.863281 28.300781 41.820312 28.40625 C 41.726562 28.628906 41.742188 29.292969 41.84375 29.390625 C 41.875 29.421875 41.898438 29.597656 41.902344 29.777344 C 41.902344 29.972656 41.929688 30.164062 41.976562 30.25 C 42.015625 30.328125 42.050781 30.425781 42.050781 30.464844 C 42.050781 30.542969 42.21875 30.953125 42.300781 31.082031 C 42.328125 31.125 42.367188 31.191406 42.382812 31.234375 C 42.558594 31.625 43.199219 32.371094 43.539062 32.570312 C 43.65625 32.640625 43.75 32.714844 43.75 32.734375 C 43.75 32.753906 43.84375 32.820312 43.960938 32.882812 C 44.078125 32.941406 44.207031 33.011719 44.25 33.039062 C 44.292969 33.0625 44.359375 33.09375 44.398438 33.109375 C 44.441406 33.125 44.507812 33.160156 44.550781 33.183594 C 44.75 33.300781 45.019531 33.390625 45.179688 33.390625 C 45.277344 33.390625 45.390625 33.425781 45.433594 33.464844 C 45.496094 33.527344 45.707031 33.539062 46.699219 33.539062 C 47.695312 33.539062 47.898438 33.527344 47.949219 33.464844 C 47.984375 33.421875 48.09375 33.390625 48.207031 33.390625 C 48.3125 33.390625 48.441406 33.367188 48.488281 33.34375 C 48.535156 33.316406 48.703125 33.234375 48.863281 33.164062 C 49.019531 33.089844 49.160156 33.011719 49.175781 32.984375 C 49.191406 32.960938 49.246094 32.9375 49.292969 32.9375 C 49.339844 32.9375 49.445312 32.875 49.527344 32.796875 C 49.609375 32.71875 49.757812 32.605469 49.863281 32.542969 C 50.398438 32.21875 50.390625 31.957031 49.835938 31.402344 C 49.320312 30.886719 49.195312 30.859375 48.828125 31.191406 C 48.582031 31.417969 48.085938 31.734375 47.980469 31.734375 C 47.949219 31.734375 47.875 31.769531 47.820312 31.808594 C 47.769531 31.851562 47.632812 31.882812 47.523438 31.882812 C 47.410156 31.886719 47.277344 31.917969 47.222656 31.960938 C 47.089844 32.0625 46.410156 32.0625 46.277344 31.960938 C 46.222656 31.917969 46.089844 31.886719 45.976562 31.882812 C 45.867188 31.882812 45.730469 31.851562 45.679688 31.808594 C 45.625 31.769531 45.519531 31.734375 45.445312 31.734375 C 45.371094 31.734375 45.300781 31.71875 45.292969 31.695312 C 45.28125 31.675781 45.183594 31.601562 45.074219 31.535156 C 44.644531 31.269531 44 30.628906 44 30.464844 C 44 30.425781 43.964844 30.367188 43.925781 30.332031 C 43.882812 30.296875 43.851562 30.230469 43.851562 30.183594 C 43.851562 30.140625 43.832031 30.078125 43.808594 30.054688 C 43.785156 30.027344 43.726562 29.890625 43.683594 29.746094 C 43.519531 29.230469 43.597656 27.933594 43.808594 27.703125 C 43.832031 27.675781 43.851562 27.617188 43.851562 27.570312 C 43.851562 27.523438 43.882812 27.457031 43.925781 27.425781 C 43.964844 27.390625 44 27.324219 44 27.28125 C 44 27.203125 44.109375 27.0625 44.445312 26.695312 C 44.648438 26.476562 44.957031 26.25 45.234375 26.125 C 45.292969 26.097656 45.355469 26.054688 45.375 26.023438 C 45.390625 25.996094 45.46875 25.96875 45.550781 25.96875 C 45.628906 25.96875 45.707031 25.949219 45.722656 25.921875 C 45.738281 25.898438 45.878906 25.863281 46.039062 25.847656 C 46.195312 25.828125 46.363281 25.792969 46.410156 25.765625 C 46.460938 25.742188 46.613281 25.71875 46.75 25.71875 C 46.886719 25.71875 47.039062 25.742188 47.089844 25.765625 C 47.136719 25.792969 47.304688 25.828125 47.460938 25.847656 C 47.621094 25.863281 47.761719 25.898438 47.777344 25.921875 C 47.792969 25.949219 47.859375 25.96875 47.921875 25.96875 C 47.984375 25.96875 48.066406 26.003906 48.101562 26.046875 C 48.132812 26.085938 48.203125 26.121094 48.257812 26.121094 C 48.308594 26.121094 48.351562 26.140625 48.351562 26.167969 C 48.351562 26.191406 48.402344 26.230469 48.460938 26.25 C 48.523438 26.269531 48.675781 26.382812 48.800781 26.503906 C 49.167969 26.863281 49.324219 26.832031 49.839844 26.300781 C 50.421875 25.707031 50.40625 25.597656 49.691406 25.0625 C 49.46875 24.898438 49.257812 24.765625 49.21875 24.765625 C 49.183594 24.765625 49.148438 24.746094 49.148438 24.71875 C 49.148438 24.691406 49.089844 24.652344 49.011719 24.632812 C 48.9375 24.613281 48.847656 24.570312 48.808594 24.53125 C 48.773438 24.496094 48.695312 24.464844 48.632812 24.464844 C 48.574219 24.464844 48.480469 24.429688 48.429688 24.390625 C 48.375 24.347656 48.246094 24.316406 48.144531 24.316406 C 48.039062 24.316406 47.949219 24.289062 47.9375 24.253906 C 47.90625 24.15625 45.710938 24.136719 45.574219 24.230469 M 53.78125 24.242188 C 53.703125 24.28125 53.566406 24.316406 53.480469 24.316406 C 53.390625 24.316406 53.277344 24.347656 53.222656 24.390625 C 53.167969 24.429688 53.074219 24.464844 53.015625 24.464844 C 52.957031 24.464844 52.875 24.5 52.832031 24.542969 C 52.789062 24.582031 52.722656 24.617188 52.683594 24.617188 C 52.640625 24.617188 52.578125 24.644531 52.539062 24.679688 C 52.503906 24.714844 52.382812 24.785156 52.273438 24.839844 C 51.867188 25.039062 51.238281 25.605469 50.960938 26.019531 C 50.859375 26.171875 50.761719 26.308594 50.746094 26.320312 C 50.6875 26.375 50.351562 27.085938 50.347656 27.164062 C 50.347656 27.210938 50.3125 27.292969 50.273438 27.347656 C 50.234375 27.398438 50.199219 27.496094 50.199219 27.5625 C 50.199219 27.628906 50.164062 27.792969 50.121094 27.925781 C 50.019531 28.234375 50.03125 29.785156 50.136719 29.886719 C 50.171875 29.921875 50.199219 30.03125 50.199219 30.128906 C 50.199219 30.226562 50.230469 30.363281 50.269531 30.4375 C 50.304688 30.507812 50.347656 30.625 50.367188 30.699219 C 50.386719 30.773438 50.425781 30.832031 50.449219 30.832031 C 50.476562 30.832031 50.5 30.867188 50.5 30.90625 C 50.5 30.976562 50.691406 31.382812 50.746094 31.433594 C 50.761719 31.449219 50.835938 31.550781 50.90625 31.660156 C 51.207031 32.121094 51.960938 32.785156 52.363281 32.945312 C 52.4375 32.972656 52.5 33.019531 52.5 33.042969 C 52.5 33.070312 52.539062 33.089844 52.589844 33.089844 C 52.640625 33.089844 52.707031 33.117188 52.738281 33.148438 C 52.832031 33.242188 53.15625 33.351562 53.410156 33.375 C 53.539062 33.390625 53.671875 33.429688 53.703125 33.46875 C 53.792969 33.578125 56.109375 33.574219 56.21875 33.464844 C 56.257812 33.425781 56.371094 33.390625 56.46875 33.390625 C 56.566406 33.390625 56.730469 33.351562 56.835938 33.304688 C 57.332031 33.085938 57.453125 33.027344 57.476562 32.984375 C 57.492188 32.960938 57.539062 32.9375 57.578125 32.9375 C 58.054688 32.9375 59.394531 31.34375 59.578125 30.558594 C 59.597656 30.476562 59.632812 30.382812 59.65625 30.355469 C 59.695312 30.300781 59.765625 29.964844 59.855469 29.378906 C 59.910156 29.023438 59.867188 28.042969 59.796875 27.996094 C 59.769531 27.980469 59.75 27.902344 59.75 27.824219 C 59.75 27.511719 59.367188 26.582031 59.089844 26.214844 C 59.011719 26.113281 58.949219 26.015625 58.949219 25.996094 C 58.949219 25.90625 58.167969 25.132812 58.035156 25.089844 C 57.988281 25.074219 57.886719 25.007812 57.816406 24.941406 C 57.746094 24.875 57.640625 24.804688 57.585938 24.785156 C 57.527344 24.769531 57.449219 24.722656 57.410156 24.683594 C 57.375 24.648438 57.304688 24.617188 57.257812 24.613281 C 57.210938 24.613281 57.132812 24.582031 57.078125 24.539062 C 57.023438 24.5 56.925781 24.464844 56.863281 24.464844 C 56.796875 24.464844 56.710938 24.433594 56.667969 24.390625 C 56.625 24.351562 56.519531 24.316406 56.425781 24.316406 C 56.335938 24.316406 56.195312 24.28125 56.117188 24.242188 C 56.003906 24.179688 55.761719 24.164062 54.949219 24.164062 C 54.136719 24.164062 53.894531 24.179688 53.78125 24.242188 M 60.867188 24.203125 C 60.707031 24.304688 60.699219 24.550781 60.699219 28.894531 C 60.703125 32.316406 60.714844 33.292969 60.765625 33.390625 C 60.828125 33.511719 60.839844 33.515625 61.503906 33.53125 C 62.484375 33.550781 62.371094 33.941406 62.398438 30.460938 L 62.425781 27.523438 L 62.550781 27.664062 C 62.621094 27.738281 62.789062 27.945312 62.921875 28.121094 C 63.054688 28.296875 63.230469 28.503906 63.308594 28.585938 C 63.386719 28.664062 63.449219 28.746094 63.449219 28.765625 C 63.453125 28.785156 63.519531 28.882812 63.605469 28.976562 C 63.691406 29.074219 63.832031 29.242188 63.917969 29.347656 C 64.378906 29.917969 64.65625 30.265625 64.949219 30.636719 C 65.488281 31.320312 65.816406 31.707031 65.882812 31.75 C 65.921875 31.773438 65.949219 31.8125 65.949219 31.84375 C 65.949219 31.90625 66.085938 32.085938 66.34375 32.363281 C 66.445312 32.472656 66.5625 32.621094 66.605469 32.6875 C 66.699219 32.835938 66.898438 33.074219 67.15625 33.347656 L 67.339844 33.539062 L 67.910156 33.539062 C 68.285156 33.539062 68.5 33.519531 68.539062 33.480469 C 68.644531 33.378906 68.625 24.347656 68.523438 24.242188 C 68.414062 24.136719 67.21875 24.128906 67.070312 24.238281 C 66.976562 24.304688 66.972656 24.410156 66.949219 27.300781 L 66.925781 30.292969 L 66.675781 29.976562 C 66.539062 29.804688 66.335938 29.546875 66.230469 29.40625 C 66.121094 29.269531 66.007812 29.132812 65.972656 29.105469 C 65.941406 29.074219 65.820312 28.925781 65.707031 28.765625 C 65.59375 28.609375 65.457031 28.441406 65.40625 28.390625 C 65.355469 28.339844 65.222656 28.175781 65.113281 28.023438 C 65 27.867188 64.84375 27.675781 64.765625 27.59375 C 64.6875 27.515625 64.558594 27.355469 64.476562 27.242188 C 64.394531 27.128906 64.226562 26.914062 64.109375 26.765625 C 63.988281 26.617188 63.820312 26.40625 63.734375 26.296875 C 63.644531 26.1875 63.539062 26.066406 63.5 26.019531 C 63.457031 25.976562 63.371094 25.863281 63.3125 25.769531 C 63.253906 25.671875 63.113281 25.503906 63.003906 25.394531 C 62.894531 25.285156 62.800781 25.171875 62.800781 25.148438 C 62.796875 25.058594 62.203125 24.390625 62.003906 24.253906 C 61.867188 24.160156 60.992188 24.125 60.867188 24.203125 M 71.972656 24.238281 C 71.917969 24.28125 71.792969 24.3125 71.695312 24.3125 C 71.597656 24.316406 71.476562 24.347656 71.421875 24.390625 C 71.367188 24.429688 71.292969 24.464844 71.257812 24.464844 C 71.117188 24.46875 70.566406 24.84375 70.296875 25.121094 C 70.042969 25.382812 69.914062 25.59375 69.679688 26.128906 C 69.570312 26.378906 69.566406 27.433594 69.675781 27.644531 C 69.714844 27.722656 69.75 27.8125 69.75 27.84375 C 69.75 28.089844 70.453125 28.851562 70.847656 29.035156 C 71.316406 29.25 71.574219 29.347656 71.898438 29.445312 C 72.050781 29.488281 72.292969 29.558594 72.433594 29.601562 C 72.578125 29.644531 72.78125 29.679688 72.882812 29.683594 C 72.988281 29.683594 73.117188 29.714844 73.171875 29.757812 C 73.226562 29.796875 73.351562 29.832031 73.453125 29.832031 C 73.554688 29.832031 73.664062 29.863281 73.699219 29.90625 C 73.734375 29.945312 73.835938 29.980469 73.925781 29.980469 C 74.015625 29.980469 74.117188 30.015625 74.148438 30.054688 C 74.183594 30.097656 74.246094 30.132812 74.285156 30.132812 C 74.457031 30.132812 74.949219 30.738281 74.949219 30.953125 C 74.949219 31.085938 74.722656 31.449219 74.535156 31.609375 C 74.21875 31.882812 74.214844 31.886719 74.085938 31.886719 C 74.023438 31.886719 73.925781 31.917969 73.871094 31.960938 C 73.730469 32.066406 72.316406 32.066406 72.179688 31.960938 C 72.125 31.917969 71.992188 31.886719 71.886719 31.886719 C 71.78125 31.886719 71.660156 31.851562 71.617188 31.8125 C 71.578125 31.769531 71.480469 31.734375 71.402344 31.734375 C 71.324219 31.734375 71.234375 31.703125 71.199219 31.660156 C 71.164062 31.617188 71.101562 31.585938 71.0625 31.585938 C 71.019531 31.585938 70.910156 31.527344 70.820312 31.460938 C 70.730469 31.390625 70.640625 31.335938 70.621094 31.335938 C 70.605469 31.335938 70.503906 31.265625 70.398438 31.183594 C 70.09375 30.941406 69.929688 31.035156 69.640625 31.617188 C 69.359375 32.175781 69.371094 32.636719 69.660156 32.636719 C 69.6875 32.636719 69.796875 32.707031 69.898438 32.789062 C 70.003906 32.871094 70.113281 32.9375 70.136719 32.9375 C 70.164062 32.9375 70.214844 32.972656 70.25 33.015625 C 70.285156 33.054688 70.347656 33.089844 70.394531 33.089844 C 70.4375 33.089844 70.535156 33.121094 70.609375 33.160156 C 70.683594 33.199219 70.8125 33.246094 70.894531 33.265625 C 70.980469 33.28125 71.0625 33.320312 71.078125 33.34375 C 71.09375 33.371094 71.214844 33.390625 71.347656 33.390625 C 71.5 33.390625 71.609375 33.417969 71.648438 33.464844 C 71.703125 33.527344 71.914062 33.539062 72.976562 33.539062 C 74.035156 33.539062 74.253906 33.527344 74.316406 33.464844 C 74.359375 33.425781 74.460938 33.390625 74.546875 33.390625 C 74.996094 33.390625 76.300781 32.46875 76.300781 32.152344 C 76.300781 32.113281 76.332031 32.046875 76.375 32.003906 C 76.417969 31.960938 76.449219 31.878906 76.453125 31.820312 C 76.453125 31.761719 76.484375 31.667969 76.527344 31.613281 C 76.582031 31.539062 76.601562 31.359375 76.601562 30.859375 C 76.601562 30.359375 76.582031 30.175781 76.527344 30.105469 C 76.484375 30.050781 76.453125 29.957031 76.453125 29.898438 C 76.449219 29.839844 76.417969 29.765625 76.375 29.730469 C 76.332031 29.695312 76.300781 29.636719 76.300781 29.59375 C 76.300781 29.484375 75.65625 28.871094 75.4375 28.777344 C 75.375 28.75 75.292969 28.707031 75.25 28.683594 C 75.113281 28.597656 74.8125 28.476562 74.734375 28.476562 C 74.695312 28.476562 74.597656 28.445312 74.519531 28.402344 C 74.4375 28.359375 74.308594 28.328125 74.226562 28.324219 C 74.144531 28.324219 74.03125 28.289062 73.976562 28.25 C 73.925781 28.210938 73.785156 28.175781 73.671875 28.175781 C 73.546875 28.175781 73.4375 28.144531 73.398438 28.101562 C 73.363281 28.054688 73.25 28.027344 73.117188 28.027344 C 72.984375 28.027344 72.863281 27.996094 72.816406 27.949219 C 72.777344 27.910156 72.667969 27.875 72.574219 27.875 C 72.480469 27.875 72.394531 27.855469 72.378906 27.828125 C 72.363281 27.804688 72.277344 27.765625 72.191406 27.746094 C 71.777344 27.65625 71.300781 27.167969 71.300781 26.835938 C 71.300781 26.425781 71.914062 25.824219 72.335938 25.820312 C 72.394531 25.820312 72.457031 25.796875 72.476562 25.769531 C 72.511719 25.707031 73.832031 25.703125 73.871094 25.765625 C 73.886719 25.789062 74.023438 25.824219 74.171875 25.84375 C 74.324219 25.863281 74.460938 25.898438 74.476562 25.921875 C 74.492188 25.949219 74.558594 25.96875 74.621094 25.96875 C 74.6875 25.96875 74.765625 26.003906 74.800781 26.046875 C 74.835938 26.085938 74.914062 26.121094 74.976562 26.121094 C 75.042969 26.121094 75.105469 26.140625 75.121094 26.164062 C 75.285156 26.429688 75.851562 26.472656 75.851562 26.222656 C 75.851562 26.175781 75.875 26.113281 75.910156 26.082031 C 75.976562 26.011719 76.097656 25.703125 76.136719 25.496094 C 76.152344 25.414062 76.195312 25.316406 76.230469 25.277344 C 76.367188 25.144531 76.191406 24.90625 75.816406 24.722656 C 75.683594 24.65625 75.515625 24.570312 75.441406 24.535156 C 75.371094 24.496094 75.269531 24.464844 75.21875 24.464844 C 75.167969 24.464844 75.082031 24.429688 75.027344 24.390625 C 74.972656 24.347656 74.839844 24.316406 74.726562 24.3125 C 74.617188 24.3125 74.480469 24.28125 74.429688 24.238281 C 74.347656 24.179688 74.117188 24.164062 73.199219 24.164062 C 72.28125 24.164062 72.050781 24.179688 71.972656 24.238281 M 77.425781 24.234375 C 77.304688 24.320312 77.238281 30.164062 77.351562 30.632812 C 77.382812 30.757812 77.425781 30.953125 77.449219 31.070312 C 77.476562 31.183594 77.515625 31.320312 77.542969 31.371094 C 77.566406 31.417969 77.644531 31.578125 77.714844 31.726562 C 78.09375 32.511719 79.160156 33.390625 79.746094 33.390625 C 79.824219 33.390625 79.914062 33.425781 79.949219 33.464844 C 80.003906 33.527344 80.207031 33.539062 81.199219 33.539062 C 82.195312 33.539062 82.398438 33.527344 82.449219 33.464844 C 82.484375 33.425781 82.585938 33.390625 82.675781 33.390625 C 82.769531 33.390625 82.90625 33.359375 82.984375 33.316406 C 83.0625 33.277344 83.160156 33.230469 83.199219 33.214844 C 83.242188 33.203125 83.34375 33.144531 83.425781 33.089844 C 83.507812 33.035156 83.625 32.96875 83.683594 32.941406 C 83.949219 32.824219 84.746094 31.851562 84.75 31.636719 C 84.753906 31.59375 84.785156 31.515625 84.828125 31.464844 C 84.867188 31.410156 84.902344 31.308594 84.902344 31.238281 C 84.902344 31.167969 84.9375 31.066406 84.976562 31.011719 C 85.023438 30.949219 85.050781 30.796875 85.050781 30.570312 C 85.050781 30.347656 85.078125 30.1875 85.125 30.113281 C 85.25 29.917969 85.214844 24.40625 85.085938 24.28125 C 84.953125 24.144531 83.648438 24.144531 83.515625 24.28125 C 83.429688 24.363281 83.425781 24.566406 83.414062 27.363281 C 83.402344 29.769531 83.386719 30.386719 83.332031 30.507812 C 82.992188 31.246094 82.792969 31.535156 82.5625 31.605469 C 82.5 31.625 82.449219 31.660156 82.449219 31.683594 C 82.449219 31.707031 82.382812 31.742188 82.300781 31.761719 C 82.21875 31.777344 82.148438 31.816406 82.148438 31.839844 C 82.148438 31.867188 82.066406 31.886719 81.960938 31.886719 C 81.859375 31.886719 81.710938 31.921875 81.632812 31.960938 C 81.554688 32.003906 81.359375 32.035156 81.199219 32.035156 C 81.042969 32.035156 80.847656 32.003906 80.769531 31.960938 C 80.691406 31.921875 80.539062 31.886719 80.4375 31.886719 C 80.335938 31.886719 80.25 31.867188 80.25 31.84375 C 80.25 31.824219 80.164062 31.769531 80.0625 31.722656 C 79.777344 31.59375 79.304688 31.105469 79.300781 30.933594 C 79.300781 30.890625 79.269531 30.8125 79.230469 30.757812 C 79.195312 30.703125 79.148438 30.546875 79.132812 30.414062 C 79.113281 30.277344 79.078125 30.140625 79.050781 30.109375 C 79.019531 30.070312 78.996094 28.949219 78.988281 27.183594 C 78.976562 24.917969 78.960938 24.308594 78.910156 24.253906 C 78.808594 24.152344 77.558594 24.136719 77.425781 24.234375 M 86.753906 24.261719 C 86.613281 24.40625 86.585938 33.320312 86.726562 33.460938 C 86.847656 33.582031 92.851562 33.582031 92.972656 33.460938 C 93.113281 33.320312 93.085938 32.066406 92.9375 31.964844 C 92.84375 31.894531 92.53125 31.886719 90.5625 31.886719 L 88.300781 31.886719 L 88.300781 28.113281 C 88.296875 25.828125 88.28125 24.3125 88.25 24.265625 C 88.167969 24.128906 86.886719 24.128906 86.753906 24.261719 M 91.480469 24.242188 C 91.386719 24.335938 91.363281 25.632812 91.449219 25.769531 C 91.488281 25.832031 91.722656 25.847656 92.921875 25.859375 L 94.351562 25.875 L 94.351562 29.601562 C 94.351562 33.078125 94.355469 33.335938 94.4375 33.4375 C 94.582031 33.613281 95.890625 33.574219 95.984375 33.390625 C 96.035156 33.292969 96.046875 32.445312 96.050781 29.566406 L 96.050781 25.871094 L 97.386719 25.867188 C 99.203125 25.863281 99.136719 25.894531 99.144531 25.039062 C 99.152344 24.503906 99.085938 24.277344 98.914062 24.210938 C 98.679688 24.121094 91.570312 24.152344 91.480469 24.242188 M 99.480469 24.242188 C 99.382812 24.339844 99.351562 33.257812 99.453125 33.445312 C 99.535156 33.601562 100.859375 33.589844 100.972656 33.429688 C 101.085938 33.269531 101.089844 24.441406 100.980469 24.289062 C 100.878906 24.148438 99.613281 24.109375 99.480469 24.242188 M 102.75 24.265625 C 102.609375 24.40625 102.589844 33.324219 102.730469 33.460938 C 102.792969 33.527344 102.933594 33.539062 103.476562 33.539062 C 104.402344 33.539062 104.300781 33.929688 104.300781 30.417969 L 104.300781 27.449219 L 104.480469 27.648438 C 104.578125 27.761719 104.730469 27.953125 104.8125 28.074219 C 104.898438 28.199219 105.015625 28.347656 105.074219 28.402344 C 105.132812 28.457031 105.277344 28.636719 105.394531 28.796875 C 105.515625 28.957031 105.648438 29.128906 105.695312 29.171875 C 105.738281 29.21875 105.886719 29.402344 106.023438 29.578125 C 106.160156 29.757812 106.300781 29.933594 106.335938 29.972656 C 106.371094 30.007812 106.503906 30.175781 106.632812 30.347656 C 106.765625 30.519531 106.882812 30.667969 106.902344 30.683594 C 106.917969 30.695312 107.027344 30.832031 107.144531 30.984375 C 107.261719 31.136719 107.433594 31.351562 107.527344 31.460938 C 107.621094 31.570312 107.816406 31.808594 107.960938 31.988281 C 108.105469 32.164062 108.238281 32.324219 108.253906 32.335938 C 108.273438 32.351562 108.398438 32.507812 108.53125 32.6875 C 109.203125 33.578125 109.148438 33.539062 109.820312 33.539062 C 110.644531 33.539062 110.550781 34.140625 110.550781 28.875 C 110.550781 23.550781 110.652344 24.164062 109.761719 24.167969 C 108.757812 24.167969 108.851562 23.832031 108.851562 27.417969 C 108.851562 30.160156 108.84375 30.296875 108.765625 30.179688 C 108.71875 30.113281 108.601562 29.972656 108.511719 29.871094 C 108.417969 29.773438 108.289062 29.613281 108.222656 29.523438 C 108.03125 29.257812 107.882812 29.066406 107.796875 28.980469 C 107.753906 28.9375 107.664062 28.824219 107.597656 28.726562 C 107.472656 28.550781 107.363281 28.414062 107.164062 28.195312 C 107.101562 28.125 107.050781 28.054688 107.050781 28.03125 C 107.050781 28.011719 106.980469 27.917969 106.898438 27.820312 C 106.8125 27.726562 106.679688 27.570312 106.601562 27.472656 C 106.523438 27.378906 106.335938 27.152344 106.191406 26.972656 C 106.042969 26.792969 105.863281 26.566406 105.789062 26.464844 C 105.714844 26.363281 105.621094 26.25 105.585938 26.210938 C 105.550781 26.175781 105.398438 25.988281 105.25 25.792969 C 105.101562 25.601562 104.90625 25.363281 104.820312 25.269531 C 104.730469 25.171875 104.5625 24.96875 104.445312 24.816406 C 104.328125 24.664062 104.144531 24.457031 104.039062 24.351562 L 103.847656 24.164062 L 103.347656 24.164062 C 102.917969 24.164062 102.835938 24.179688 102.75 24.265625 M 115.132812 24.242188 C 115.054688 24.28125 114.914062 24.316406 114.824219 24.316406 C 114.734375 24.316406 114.632812 24.351562 114.601562 24.390625 C 114.566406 24.433594 114.488281 24.464844 114.425781 24.464844 C 114.289062 24.464844 113.570312 24.820312 113.421875 24.957031 C 113.363281 25.011719 113.273438 25.070312 113.222656 25.085938 C 113.089844 25.128906 112.394531 25.847656 112.234375 26.105469 C 112.164062 26.21875 112.082031 26.328125 112.050781 26.34375 C 112.023438 26.363281 112 26.417969 112 26.46875 C 112 26.519531 111.964844 26.585938 111.925781 26.621094 C 111.882812 26.65625 111.851562 26.722656 111.851562 26.773438 C 111.851562 26.820312 111.816406 26.886719 111.773438 26.921875 C 111.734375 26.957031 111.699219 27.023438 111.699219 27.074219 C 111.699219 27.121094 111.667969 27.226562 111.625 27.304688 C 111.585938 27.382812 111.550781 27.546875 111.550781 27.664062 C 111.550781 27.792969 111.519531 27.914062 111.476562 27.957031 C 111.367188 28.066406 111.363281 29.613281 111.472656 29.757812 C 111.515625 29.8125 111.546875 29.957031 111.546875 30.085938 C 111.550781 30.210938 111.582031 30.355469 111.625 30.410156 C 111.664062 30.464844 111.699219 30.554688 111.699219 30.617188 C 111.699219 30.675781 111.734375 30.757812 111.773438 30.800781 C 111.816406 30.84375 111.851562 30.921875 111.851562 30.972656 C 111.851562 31.027344 111.882812 31.101562 111.925781 31.132812 C 111.964844 31.167969 112 31.226562 112 31.261719 C 112 31.296875 112.027344 31.355469 112.0625 31.394531 C 112.097656 31.429688 112.183594 31.550781 112.257812 31.660156 C 112.507812 32.039062 113.292969 32.789062 113.445312 32.789062 C 113.476562 32.789062 113.5 32.808594 113.5 32.832031 C 113.5 32.859375 113.5625 32.902344 113.636719 32.933594 C 113.714844 32.964844 113.871094 33.042969 113.988281 33.109375 C 114.105469 33.175781 114.269531 33.246094 114.351562 33.265625 C 114.433594 33.28125 114.511719 33.320312 114.527344 33.34375 C 114.542969 33.371094 114.644531 33.390625 114.757812 33.390625 C 114.867188 33.390625 114.992188 33.421875 115.03125 33.464844 C 115.09375 33.527344 115.308594 33.539062 116.332031 33.539062 C 117.371094 33.539062 117.558594 33.53125 117.582031 33.464844 C 117.601562 33.414062 117.679688 33.390625 117.816406 33.390625 C 118.113281 33.386719 119.191406 32.964844 119.242188 32.832031 C 119.25 32.808594 119.28125 32.789062 119.308594 32.789062 C 119.417969 32.789062 119.828125 32.421875 119.855469 32.296875 C 119.933594 31.972656 119.902344 28.855469 119.820312 28.738281 C 119.730469 28.609375 118.382812 28.5625 118.261719 28.6875 C 118.214844 28.730469 118.199219 29.117188 118.199219 30.117188 L 118.199219 31.484375 L 118 31.609375 C 117.890625 31.679688 117.757812 31.734375 117.707031 31.734375 C 117.65625 31.734375 117.585938 31.769531 117.550781 31.8125 C 117.511719 31.859375 117.402344 31.886719 117.257812 31.886719 C 117.128906 31.886719 116.960938 31.921875 116.882812 31.960938 C 116.707031 32.050781 115.96875 32.066406 115.941406 31.980469 C 115.929688 31.949219 115.796875 31.910156 115.648438 31.898438 C 115.496094 31.882812 115.332031 31.839844 115.277344 31.804688 C 115.222656 31.765625 115.128906 31.734375 115.070312 31.734375 C 115.011719 31.734375 114.933594 31.703125 114.898438 31.660156 C 114.867188 31.617188 114.804688 31.585938 114.765625 31.585938 C 114.726562 31.585938 114.667969 31.5625 114.636719 31.535156 C 114.601562 31.507812 114.496094 31.417969 114.398438 31.335938 C 114.304688 31.253906 114.203125 31.183594 114.175781 31.183594 C 114.113281 31.183594 113.953125 31.011719 113.828125 30.808594 C 113.773438 30.726562 113.707031 30.628906 113.679688 30.597656 C 113.527344 30.425781 113.5 30.378906 113.5 30.316406 C 113.5 30.277344 113.464844 30.214844 113.425781 30.179688 C 113.382812 30.148438 113.351562 30.054688 113.351562 29.976562 C 113.351562 29.902344 113.316406 29.804688 113.273438 29.761719 C 113.167969 29.652344 113.167969 28.097656 113.277344 27.953125 C 113.316406 27.898438 113.351562 27.792969 113.351562 27.714844 C 113.351562 27.636719 113.371094 27.574219 113.398438 27.574219 C 113.421875 27.574219 113.457031 27.523438 113.476562 27.464844 C 113.550781 27.234375 114.046875 26.640625 114.34375 26.425781 C 114.511719 26.304688 114.648438 26.183594 114.648438 26.160156 C 114.648438 26.140625 114.707031 26.121094 114.777344 26.121094 C 114.847656 26.121094 114.917969 26.085938 114.933594 26.046875 C 114.949219 26.003906 115.023438 25.96875 115.105469 25.96875 C 115.1875 25.96875 115.289062 25.949219 115.339844 25.921875 C 115.703125 25.714844 117.039062 25.714844 117.410156 25.921875 C 117.460938 25.949219 117.53125 25.96875 117.566406 25.96875 C 117.636719 25.96875 118.164062 26.238281 118.269531 26.324219 C 118.886719 26.84375 118.980469 26.84375 119.488281 26.339844 C 120.054688 25.78125 120.023438 25.527344 119.324219 25.027344 C 118.800781 24.65625 118.441406 24.464844 118.257812 24.464844 C 118.203125 24.464844 118.148438 24.441406 118.140625 24.410156 C 118.128906 24.382812 118.011719 24.34375 117.875 24.328125 C 117.738281 24.3125 117.582031 24.269531 117.527344 24.234375 C 117.375 24.128906 115.332031 24.136719 115.132812 24.242188 M 55.320312 25.761719 C 55.335938 25.785156 55.484375 25.820312 55.648438 25.839844 C 55.8125 25.859375 55.960938 25.894531 55.976562 25.921875 C 55.992188 25.949219 56.070312 25.96875 56.148438 25.96875 C 56.222656 25.96875 56.316406 26.003906 56.351562 26.046875 C 56.382812 26.085938 56.449219 26.121094 56.492188 26.121094 C 56.539062 26.121094 56.644531 26.183594 56.730469 26.257812 C 56.820312 26.335938 56.9375 26.429688 57 26.472656 C 57.28125 26.667969 57.605469 27.097656 57.800781 27.550781 C 57.859375 27.6875 57.941406 27.863281 57.980469 27.941406 C 58.0625 28.105469 58.082031 29.730469 58.003906 29.730469 C 57.980469 29.730469 57.941406 29.804688 57.921875 29.890625 C 57.839844 30.269531 57.304688 31.066406 56.996094 31.273438 C 56.902344 31.339844 56.777344 31.429688 56.71875 31.480469 C 56.664062 31.53125 56.554688 31.585938 56.484375 31.605469 C 56.410156 31.621094 56.351562 31.660156 56.351562 31.6875 C 56.351562 31.714844 56.296875 31.734375 56.234375 31.734375 C 56.171875 31.734375 56.074219 31.769531 56.023438 31.808594 C 55.96875 31.851562 55.847656 31.882812 55.75 31.886719 C 55.652344 31.886719 55.511719 31.921875 55.433594 31.960938 C 55.347656 32.003906 55.15625 32.035156 54.976562 32.035156 C 54.792969 32.035156 54.601562 32.003906 54.519531 31.960938 C 54.441406 31.921875 54.277344 31.886719 54.160156 31.886719 C 54.035156 31.886719 53.910156 31.855469 53.867188 31.8125 C 53.828125 31.769531 53.753906 31.734375 53.703125 31.734375 C 53.652344 31.734375 53.585938 31.703125 53.550781 31.660156 C 53.515625 31.617188 53.445312 31.585938 53.394531 31.585938 C 53.34375 31.585938 53.300781 31.5625 53.300781 31.535156 C 53.300781 31.507812 53.277344 31.484375 53.246094 31.484375 C 53.03125 31.484375 52.148438 30.539062 52.148438 30.308594 C 52.148438 30.269531 52.128906 30.226562 52.105469 30.210938 C 52.039062 30.171875 51.902344 29.714844 51.871094 29.441406 C 51.855469 29.3125 51.820312 29.117188 51.789062 29.015625 C 51.75 28.878906 51.75 28.796875 51.789062 28.714844 C 51.820312 28.652344 51.859375 28.460938 51.878906 28.289062 C 51.894531 28.117188 51.929688 27.964844 51.953125 27.949219 C 51.980469 27.933594 52 27.878906 52 27.828125 C 52 27.730469 52.136719 27.414062 52.304688 27.125 C 52.425781 26.914062 53.078125 26.269531 53.171875 26.269531 C 53.207031 26.269531 53.265625 26.238281 53.300781 26.195312 C 53.335938 26.15625 53.40625 26.121094 53.457031 26.121094 C 53.511719 26.121094 53.566406 26.085938 53.582031 26.046875 C 53.597656 26.003906 53.671875 25.96875 53.753906 25.96875 C 53.832031 25.96875 53.90625 25.949219 53.921875 25.925781 C 53.9375 25.898438 54.097656 25.863281 54.277344 25.84375 C 54.457031 25.824219 54.613281 25.789062 54.628906 25.765625 C 54.664062 25.707031 55.285156 25.707031 55.320312 25.761719 "/>
</g>
</svg>
