<?xml version="1.0" encoding="UTF-8"?> <svg xmlns="http://www.w3.org/2000/svg" xmlns:xlink="http://www.w3.org/1999/xlink" id="svg" version="1.1" width="400" height="400" viewBox="0, 0, 400,400"><g id="svgg"><path id="path0" d="M162.272 2.003 L 160.156 4.119 160.156 27.729 L 160.156 51.338 154.883 52.617 C 134.049 57.671,117.547 75.616,114.110 96.954 L 113.329 101.807 95.445 119.849 C 74.342 141.138,73.852 141.875,73.838 152.344 C 73.825 162.410,74.823 164.132,88.925 178.380 C 113.371 203.078,126.925 204.557,147.656 184.792 C 161.149 171.927,170.769 167.893,182.261 170.279 C 187.606 171.389,187.543 170.912,183.159 177.056 C 176.667 186.154,170.388 192.757,160.727 200.646 C 143.279 214.895,133.244 226.906,124.683 243.788 C 118.256 256.460,111.719 276.912,111.719 284.342 C 111.719 285.620,111.213 285.939,109.180 285.945 C 102.836 285.964,94.951 291.590,91.452 298.594 L 89.063 303.375 89.063 321.243 C 89.062 337.557,88.944 339.153,87.695 339.591 C 65.260 347.467,50.055 367.780,50.012 389.933 C 50.001 395.325,50.192 396.073,52.060 397.940 L 54.119 400.000 198.438 400.000 L 342.756 400.000 344.815 397.940 C 346.683 396.073,346.874 395.325,346.863 389.933 C 346.820 367.780,331.615 347.467,309.180 339.591 C 307.931 339.153,307.813 337.557,307.813 321.243 L 307.813 303.375 305.423 298.594 C 302.033 291.808,294.055 285.967,288.148 285.945 C 284.602 285.932,283.989 268.209,287.115 256.055 L 288.471 250.781 310.926 250.781 L 333.381 250.781 335.306 248.855 C 336.593 247.568,338.042 244.135,339.673 238.504 C 367.799 141.404,337.527 53.713,262.323 14.438 C 238.908 2.211,231.120 0.585,194.108 0.198 L 164.388 -0.113 162.272 2.003 M197.656 17.548 C 205.773 21.676,206.491 23.852,207.001 45.879 C 207.503 67.536,206.928 66.329,218.075 69.090 C 277.637 83.838,303.097 144.759,280.949 219.531 C 279.485 224.473,276.694 233.631,274.745 239.882 C 269.652 256.225,268.520 263.122,268.883 275.586 L 269.185 285.938 198.587 285.938 L 127.988 285.938 128.539 282.617 C 133.042 255.502,147.212 233.161,173.678 211.452 C 183.238 203.610,191.511 194.521,198.170 184.544 C 202.540 177.997,202.834 177.728,205.078 178.214 C 216.616 180.712,240.734 175.274,244.976 169.217 C 246.980 166.356,246.409 161.133,243.810 158.534 C 240.753 155.477,238.182 155.582,229.394 159.119 C 217.108 164.065,211.033 163.769,195.983 157.490 C 175.210 148.824,156.927 153.167,137.863 171.296 C 122.740 185.677,119.103 185.249,100.957 166.947 C 85.549 151.406,84.824 154.734,108.896 130.505 C 129.101 110.168,129.688 109.454,129.688 105.168 C 129.688 86.055,145.782 69.316,165.961 67.440 C 170.557 67.013,171.832 66.570,173.627 64.774 L 175.781 62.620 175.781 39.017 L 175.781 15.414 185.352 15.786 C 192.408 16.059,195.640 16.522,197.656 17.548 M232.716 20.023 C 311.770 42.862,352.581 135.750,324.921 229.883 L 323.371 235.156 308.508 235.156 C 294.718 235.156,293.674 235.057,294.052 233.789 C 307.278 189.341,308.687 163.722,299.857 128.249 C 291.368 94.147,264.804 66.313,230.273 55.337 L 222.656 52.916 222.656 39.082 C 222.656 29.068,222.335 24.189,221.493 21.413 C 220.853 19.304,220.326 17.451,220.321 17.296 C 220.306 16.810,225.708 17.998,232.716 20.023 M153.622 108.310 C 151.978 109.954,151.563 111.114,151.563 114.063 C 151.563 120.963,153.386 121.875,167.188 121.875 C 180.989 121.875,182.813 120.963,182.813 114.063 C 182.813 107.162,180.989 106.250,167.188 106.250 C 155.798 106.250,155.661 106.271,153.622 108.310 M286.140 302.387 C 291.325 303.827,291.762 305.310,292.052 322.424 L 292.307 337.500 259.151 337.500 L 225.994 337.500 223.935 339.560 C 222.290 341.204,221.875 342.364,221.875 345.313 C 221.875 348.261,222.290 349.421,223.935 351.065 L 225.994 353.125 257.724 353.131 C 296.183 353.138,300.465 353.526,309.079 357.780 C 318.798 362.580,327.629 373.106,329.411 382.016 L 329.883 384.375 198.535 384.375 C 70.399 384.375,67.188 384.339,67.188 382.903 C 67.188 379.500,73.413 369.011,78.069 364.570 C 89.047 354.099,94.170 353.139,139.151 353.131 L 170.881 353.125 172.940 351.065 C 174.585 349.421,175.000 348.261,175.000 345.313 C 175.000 342.364,174.585 341.204,172.940 339.560 L 170.881 337.500 137.724 337.500 L 104.568 337.500 104.823 322.424 C 105.108 305.585,105.600 303.809,110.356 302.435 C 114.013 301.379,282.344 301.333,286.140 302.387 M192.685 339.560 C 191.040 341.204,190.625 342.364,190.625 345.313 C 190.625 348.261,191.040 349.421,192.685 351.065 C 194.329 352.710,195.489 353.125,198.438 353.125 C 201.386 353.125,202.546 352.710,204.190 351.065 C 205.835 349.421,206.250 348.261,206.250 345.313 C 206.250 342.364,205.835 341.204,204.190 339.560 C 202.546 337.915,201.386 337.500,198.438 337.500 C 195.489 337.500,194.329 337.915,192.685 339.560 " stroke="none" fill="#000000" fill-rule="evenodd"></path></g></svg> 